<svg width="320" height="152" viewBox="0 0 320 152" fill="none" xmlns="http://www.w3.org/2000/svg">
<rect width="193.872" height="5.04024" transform="matrix(0.987688 -0.156434 0 1 126.51 30.3283)" fill="url(#paint0_linear_307_737)"/>
<rect width="323.989" height="59.7156" transform="matrix(0.987688 -0.156434 0 1 0 91.5525)" fill="#E31235"/>
<path d="M57.7375 104.026V121.134L54.2559 121.685V107.338L47.4667 108.414V122.76L43.9851 123.312V106.204L57.7375 104.026ZM74.6581 109.5V110.311C74.6581 111.611 74.484 112.806 74.1358 113.895C73.7877 114.984 73.2964 115.943 72.662 116.772C72.0275 117.593 71.2693 118.266 70.3873 118.789C69.513 119.312 68.5421 119.657 67.4744 119.826C66.4144 119.994 65.4434 119.956 64.5614 119.712C63.6872 119.467 62.9289 119.035 62.2868 118.416C61.6446 117.789 61.1456 116.987 60.7897 116.009C60.4415 115.03 60.2674 113.891 60.2674 112.59V111.779C60.2674 110.471 60.4415 109.277 60.7897 108.195C61.1378 107.106 61.6291 106.147 62.2636 105.318C62.9057 104.488 63.6639 103.812 64.5382 103.289C65.4202 102.766 66.3912 102.42 67.4512 102.252C68.5189 102.083 69.4898 102.121 70.3641 102.367C71.2461 102.611 72.0043 103.047 72.6387 103.675C73.2809 104.302 73.7761 105.104 74.1242 106.083C74.4801 107.053 74.6581 108.192 74.6581 109.5ZM71.1417 110.868V110.034C71.1417 109.125 71.0604 108.339 70.8979 107.675C70.7355 107.012 70.4956 106.47 70.1784 106.05C69.8612 105.63 69.4744 105.339 69.0179 105.176C68.5614 105.006 68.0392 104.967 67.4512 105.06C66.8632 105.154 66.3409 105.358 65.8844 105.673C65.4357 105.979 65.0527 106.392 64.7355 106.912C64.426 107.431 64.1901 108.048 64.0276 108.763C63.8651 109.478 63.7839 110.29 63.7839 111.199V112.033C63.7839 112.934 63.8651 113.72 64.0276 114.392C64.1901 115.055 64.4299 115.601 64.7471 116.028C65.0643 116.448 65.4512 116.743 65.9076 116.914C66.3641 117.084 66.8864 117.123 67.4744 117.03C68.0624 116.937 68.5846 116.733 69.0411 116.418C69.4976 116.102 69.8805 115.685 70.19 115.166C70.4995 114.639 70.7355 114.019 70.8979 113.303C71.0604 112.581 71.1417 111.769 71.1417 110.868ZM90.1744 113.247V115.996L78.0004 117.924V115.175L90.1744 113.247ZM79.0333 115.011V121.955L75.7606 122.474L75.5749 115.559L79.0333 115.011ZM92.6812 112.85L92.3794 119.853L89.188 120.359V113.403L92.6812 112.85ZM88.2595 99.1914V101.953L80.1242 103.241V100.48L88.2595 99.1914ZM90.7431 98.798V115.906L87.2731 116.456V99.3476L90.7431 98.798ZM79.6948 100.548L83.1764 99.9965L82.7238 107.036C82.6542 108.198 82.5304 109.236 82.3524 110.15C82.1822 111.054 81.9733 111.859 81.7257 112.564C81.4859 113.268 81.219 113.893 80.925 114.441C80.631 114.981 80.3215 115.461 79.9965 115.881C79.6716 116.293 79.3428 116.666 79.0101 117.001C78.6774 117.327 78.3524 117.634 78.0352 117.919L76.0391 118.235V115.485L76.8167 115.362C77.041 115.139 77.277 114.843 77.5246 114.475C77.7799 114.105 78.0198 113.625 78.2441 113.033C78.4762 112.432 78.6774 111.687 78.8476 110.799C79.0256 109.909 79.1571 108.839 79.2422 107.587L79.6948 100.548ZM101.536 100.014L96.9403 114.925L93.2382 115.511L99.5167 97.4084L101.873 97.0353L101.536 100.014ZM105.354 113.592L100.747 100.139L100.376 97.2724L102.755 96.8956L109.068 113.004L105.354 113.592ZM105.145 107.256V110.018L96.2208 111.431V108.67L105.145 107.256ZM117.215 105.615L112.909 106.297V103.548L117.215 102.866C117.88 102.76 118.422 102.565 118.84 102.279C119.257 101.986 119.563 101.624 119.756 101.194C119.95 100.764 120.047 100.298 120.047 99.7968C120.047 99.2877 119.95 98.8291 119.756 98.421C119.563 98.013 119.257 97.7089 118.84 97.5087C118.422 97.3086 117.88 97.2612 117.215 97.3666L114.116 97.8574V112.204L110.635 112.756V95.6475L117.215 94.6053C118.538 94.3958 119.671 94.4591 120.615 94.7953C121.567 95.1224 122.294 95.6691 122.797 96.4354C123.3 97.2018 123.551 98.1294 123.551 99.2182C123.551 100.323 123.3 101.318 122.797 102.205C122.294 103.091 121.567 103.829 120.615 104.419C119.671 105.007 118.538 105.406 117.215 105.615ZM129.447 92.668V109.776L125.965 110.327V93.2194L129.447 92.668ZM139.404 91.0909L132.929 102.163L128.669 102.837L128.228 99.77L131.072 99.3196L135.18 91.7599L139.404 91.0909ZM135.818 108.767L131.083 101.868L133.497 98.9707L139.95 108.112L135.818 108.767ZM144.673 101.818L151.462 89.1811L154.944 88.6296V105.738L151.462 106.289V94.7271L144.673 107.364L141.192 107.916V90.8078L144.673 90.2564V101.818ZM177.284 99.4498V102.199L165.11 104.127V101.378L177.284 99.4498ZM166.143 101.214V108.159L162.87 108.677L162.685 101.762L166.143 101.214ZM179.791 99.0528L179.489 106.057L176.298 106.562V99.606L179.791 99.0528ZM175.369 85.3946V88.1558L167.234 89.4443V86.6831L175.369 85.3946ZM177.853 85.0012V102.109L174.383 102.659V85.5508L177.853 85.0012ZM166.805 86.7511L170.286 86.1997L169.834 93.2391C169.764 94.4016 169.64 95.4396 169.462 96.3529C169.292 97.2572 169.083 98.0619 168.835 98.7669C168.596 99.4708 168.329 100.097 168.035 100.645C167.741 101.185 167.431 101.664 167.106 102.084C166.781 102.496 166.453 102.869 166.12 103.204C165.787 103.531 165.462 103.837 165.145 104.122L163.149 104.438V101.689L163.926 101.565C164.151 101.342 164.387 101.046 164.634 100.678C164.89 100.308 165.13 99.8278 165.354 99.2361C165.586 98.6354 165.787 97.8907 165.957 97.002C166.135 96.1122 166.267 95.0417 166.352 93.7905L166.805 86.7511ZM195.191 90.4096V91.2203C195.191 92.5207 195.017 93.7154 194.669 94.8046C194.321 95.8937 193.83 96.8528 193.195 97.6818C192.561 98.5029 191.802 99.1752 190.92 99.6988C190.046 100.221 189.075 100.567 188.008 100.736C186.948 100.904 185.977 100.866 185.095 100.622C184.22 100.376 183.462 99.944 182.82 99.325C182.178 98.6982 181.679 97.896 181.323 96.9184C180.975 95.9395 180.801 94.7999 180.801 93.4996V92.6888C180.801 91.3807 180.975 90.1859 181.323 89.1046C181.671 88.0155 182.162 87.0564 182.797 86.2274C183.439 85.3972 184.197 84.721 185.071 84.1987C185.953 83.6751 186.924 83.3294 187.984 83.1615C189.052 82.9924 190.023 83.0306 190.897 83.2759C191.779 83.5201 192.537 83.9562 193.172 84.5842C193.814 85.211 194.309 86.0138 194.657 86.9926C195.013 87.9624 195.191 89.1014 195.191 90.4096ZM191.675 91.7773V90.943C191.675 90.0344 191.594 89.2482 191.431 88.5846C191.269 87.921 191.029 87.3794 190.712 86.9596C190.394 86.5398 190.008 86.2486 189.551 86.0859C189.095 85.9154 188.572 85.8767 187.984 85.9698C187.396 86.0629 186.874 86.2671 186.418 86.5822C185.969 86.8883 185.586 87.3014 185.269 87.8217C184.959 88.3407 184.723 88.9577 184.561 89.6728C184.398 90.3879 184.317 91.1997 184.317 92.1084V92.9426C184.317 93.8435 184.398 94.6296 184.561 95.3011C184.723 95.9647 184.963 96.5102 185.28 96.9378C185.597 97.3576 185.984 97.6527 186.441 97.8233C186.897 97.9938 187.42 98.0325 188.008 97.9394C188.596 97.8463 189.118 97.6421 189.574 97.327C190.031 97.0119 190.414 96.5948 190.723 96.0758C191.033 95.5489 191.269 94.928 191.431 94.2129C191.594 93.49 191.675 92.6781 191.675 91.7773ZM206.414 89.7954L203.744 89.5719L204.708 80.7478L214.201 79.2443V81.982L207.458 83.05L207.04 86.9114C207.265 86.7427 207.605 86.5478 208.062 86.3266C208.518 86.0977 209.029 85.9385 209.593 85.849C210.414 85.7191 211.141 85.7332 211.775 85.8912C212.41 86.0492 212.947 86.34 213.388 86.7637C213.837 87.1861 214.178 87.7354 214.41 88.4114C214.642 89.0875 214.758 89.876 214.758 90.7768C214.758 91.5366 214.642 92.2796 214.41 93.0057C214.178 93.724 213.826 94.3907 213.354 95.006C212.882 95.6134 212.29 96.1262 211.578 96.5444C210.866 96.9627 210.023 97.249 209.048 97.4034C208.321 97.5186 207.617 97.5204 206.936 97.4089C206.263 97.2962 205.655 97.0673 205.114 96.7223C204.58 96.376 204.151 95.9231 203.826 95.3635C203.508 94.795 203.342 94.1163 203.327 93.3276L206.646 92.8019C206.692 93.2802 206.816 93.6797 207.017 94.0003C207.226 94.3119 207.501 94.5347 207.841 94.6688C208.181 94.8029 208.58 94.8338 209.036 94.7615C209.462 94.6941 209.826 94.5542 210.127 94.342C210.429 94.1297 210.673 93.8639 210.858 93.5447C211.044 93.2176 211.18 92.8515 211.265 92.4463C211.357 92.0321 211.404 91.5939 211.404 91.1318C211.404 90.6696 211.35 90.2591 211.241 89.9002C211.133 89.5414 210.967 89.2427 210.742 89.004C210.518 88.7654 210.232 88.5992 209.884 88.5056C209.543 88.4106 209.145 88.3993 208.688 88.4716C208.069 88.5697 207.59 88.7436 207.249 88.9933C206.916 89.2418 206.638 89.5092 206.414 89.7954ZM231.277 83.5897V86.5507C231.277 87.8354 231.141 88.9653 230.87 89.9403C230.6 90.9075 230.209 91.7293 229.698 92.4055C229.195 93.0726 228.596 93.6023 227.899 93.9946C227.203 94.3869 226.429 94.6505 225.578 94.7853C224.898 94.8931 224.263 94.9074 223.675 94.8282C223.087 94.7412 222.557 94.547 222.085 94.2458C221.621 93.9433 221.219 93.5331 220.878 93.0152C220.545 92.4882 220.29 91.8393 220.112 91.0685C219.934 90.2977 219.845 89.3953 219.845 88.3613V85.4003C219.845 84.1156 219.981 82.9936 220.251 82.0342C220.53 81.0657 220.921 80.2479 221.424 79.5808C221.934 78.9124 222.538 78.386 223.234 78.0015C223.93 77.6092 224.704 77.3457 225.555 77.2109C226.236 77.1031 226.867 77.0933 227.447 77.1816C228.035 77.2608 228.565 77.4471 229.037 77.7405C229.509 78.0339 229.911 78.4441 230.244 78.9711C230.576 79.4902 230.832 80.1352 231.01 80.906C231.188 81.669 231.277 82.5636 231.277 83.5897ZM227.923 87.5284V83.6627C227.923 83.0439 227.888 82.5089 227.818 82.0577C227.756 81.6054 227.66 81.229 227.528 80.9287C227.397 80.6205 227.234 80.3799 227.041 80.2069C226.847 80.0339 226.627 79.9199 226.379 79.8652C226.132 79.8104 225.857 79.8069 225.555 79.8547C225.176 79.9147 224.839 80.0424 224.545 80.2378C224.259 80.432 224.015 80.7095 223.814 81.0704C223.613 81.4234 223.458 81.8788 223.35 82.4364C223.25 82.985 223.199 83.6431 223.199 84.4108V88.2766C223.199 88.8954 223.23 89.4349 223.292 89.8951C223.362 90.3541 223.462 90.7416 223.594 91.0576C223.733 91.3645 223.896 91.609 224.081 91.7911C224.275 91.9641 224.495 92.0781 224.743 92.1328C224.998 92.1864 225.277 92.1893 225.578 92.1415C225.95 92.0827 226.279 91.9562 226.565 91.762C226.859 91.5588 227.106 91.2767 227.308 90.9159C227.516 90.546 227.671 90.0828 227.772 89.5263C227.872 88.9699 227.923 88.304 227.923 87.5284ZM244.924 81.4281V84.3891C244.924 85.6738 244.789 86.8037 244.518 87.7787C244.247 88.7459 243.857 89.5676 243.346 90.2439C242.843 90.911 242.244 91.4407 241.547 91.833C240.851 92.2253 240.077 92.4888 239.226 92.6236C238.545 92.7315 237.911 92.7458 237.323 92.6666C236.735 92.5796 236.205 92.3854 235.733 92.0842C235.269 91.7817 234.867 91.3715 234.526 90.8536C234.193 90.3266 233.938 89.6777 233.76 88.9069C233.582 88.1361 233.493 87.2337 233.493 86.1997V83.2387C233.493 81.954 233.629 80.832 233.899 79.8726C234.178 78.9041 234.569 78.0863 235.072 77.4192C235.582 76.7508 236.186 76.2244 236.882 75.8399C237.578 75.4476 238.352 75.1841 239.203 75.0493C239.884 74.9415 240.514 74.9317 241.095 75.0199C241.683 75.0991 242.213 75.2855 242.685 75.5789C243.157 75.8723 243.559 76.2825 243.892 76.8095C244.224 77.3286 244.48 77.9736 244.658 78.7444C244.836 79.5074 244.924 80.402 244.924 81.4281ZM241.571 85.3668V81.5011C241.571 80.8822 241.536 80.3473 241.466 79.8961C241.404 79.4438 241.307 79.0674 241.176 78.7671C241.044 78.4589 240.882 78.2183 240.689 78.0453C240.495 77.8722 240.275 77.7583 240.027 77.7035C239.779 77.6488 239.505 77.6453 239.203 77.6931C238.824 77.7531 238.487 77.8808 238.193 78.0762C237.907 78.2704 237.663 78.5479 237.462 78.9088C237.261 79.2618 237.106 79.7171 236.998 80.2748C236.897 80.8234 236.847 81.4815 236.847 82.2492V86.1149C236.847 86.7338 236.878 87.2733 236.94 87.7335C237.01 88.1925 237.11 88.5799 237.242 88.896C237.381 89.2029 237.543 89.4474 237.729 89.6295C237.923 89.8025 238.143 89.9164 238.391 89.9712C238.646 90.0248 238.925 90.0277 239.226 89.9799C239.598 89.9211 239.926 89.7946 240.213 89.6004C240.507 89.3972 240.754 89.1151 240.955 88.7543C241.164 88.3843 241.319 87.9212 241.42 87.3647C241.52 86.8083 241.571 86.1423 241.571 85.3668ZM258.572 79.2665V82.2275C258.572 83.5122 258.437 84.642 258.166 85.6171C257.895 86.5843 257.505 87.406 256.994 88.0822C256.491 88.7494 255.892 89.2791 255.195 89.6714C254.499 90.0637 253.725 90.3272 252.874 90.462C252.193 90.5699 251.559 90.5842 250.971 90.505C250.383 90.4179 249.853 90.2238 249.381 89.9225C248.917 89.6201 248.514 89.2099 248.174 88.692C247.841 88.165 247.586 87.5161 247.408 86.7453C247.23 85.9745 247.141 85.072 247.141 84.038V81.077C247.141 79.7924 247.276 78.6703 247.547 77.711C247.826 76.7425 248.217 75.9247 248.719 75.2576C249.23 74.5892 249.834 74.0628 250.53 73.6783C251.226 73.286 252 73.0225 252.851 72.8877C253.532 72.7799 254.162 72.7701 254.743 72.8583C255.331 72.9375 255.861 73.1238 256.333 73.4173C256.804 73.7107 257.207 74.1209 257.539 74.6478C257.872 75.167 258.127 75.812 258.305 76.5828C258.483 77.3458 258.572 78.2403 258.572 79.2665ZM255.218 83.2052V79.3395C255.218 78.7206 255.184 78.1856 255.114 77.7345C255.052 77.2821 254.955 76.9058 254.824 76.6055C254.692 76.2973 254.53 76.0567 254.336 75.8837C254.143 75.7106 253.922 75.5967 253.675 75.5419C253.427 75.4871 253.153 75.4836 252.851 75.5314C252.472 75.5915 252.135 75.7192 251.841 75.9146C251.555 76.1088 251.311 76.3863 251.11 76.7472C250.909 77.1002 250.754 77.5555 250.646 78.1132C250.545 78.6618 250.495 79.3199 250.495 80.0876V83.9533C250.495 84.5722 250.526 85.1117 250.588 85.5719C250.658 86.0308 250.758 86.4183 250.89 86.7343C251.029 87.0413 251.191 87.2858 251.377 87.4679C251.57 87.6409 251.791 87.7548 252.039 87.8096C252.294 87.8632 252.572 87.8661 252.874 87.8183C253.246 87.7595 253.574 87.633 253.861 87.4388C254.155 87.2356 254.402 86.9535 254.603 86.5926C254.812 86.2227 254.967 85.7595 255.068 85.2031C255.168 84.6467 255.218 83.9807 255.218 83.2052ZM272.905 80.9562L264.015 82.3642V79.6147L272.824 78.2196C273.543 78.1056 274.116 77.9013 274.541 77.6068C274.975 77.311 275.288 76.948 275.481 76.5179C275.675 76.0799 275.771 75.6024 275.771 75.0854C275.771 74.5763 275.667 74.1267 275.458 73.7368C275.257 73.3378 274.944 73.0428 274.518 72.8517C274.1 72.6515 273.566 72.6029 272.917 72.7059L269.841 73.193V87.5397L266.36 88.0911V70.9831L272.905 69.9464C274.236 69.7357 275.373 69.7945 276.317 70.1228C277.269 70.4499 278 70.9921 278.51 71.7494C279.021 72.5067 279.276 73.4258 279.276 74.5068C279.276 75.6427 279.013 76.6596 278.487 77.5576C277.969 78.4543 277.234 79.1935 276.282 79.7751C275.338 80.3554 274.213 80.7491 272.905 80.9562ZM273.543 81.8186V84.5681L264.015 86.0772V83.3277L273.543 81.8186Z" fill="white"/>
<g clip-path="url(#clip0_307_737)">
<path d="M65.5199 70.2105L55.5827 60.5559L60.0878 59.8423C61.5179 59.6158 61.8796 58.7001 60.8904 57.8095L50.552 48.4817L55.1984 47.7458C56.6284 47.5193 56.9902 46.6035 56.001 45.7129L43.7124 34.628C42.7232 33.7373 41.1462 34.0157 40.1966 35.2535L28.965 49.9263C28.021 51.1632 28.4167 51.9876 29.8468 51.7611L33.5718 51.1711L24.0812 63.5708C23.1372 64.8077 23.5329 65.6321 24.963 65.4056L28.445 64.8541L19.3726 77.3878C17.5469 79.909 18.3948 81.6003 21.2549 81.1473L37.9355 78.5054V87.0383L47.0361 85.5969V77.064L63.7845 74.4113C66.6447 73.9583 67.4248 72.0721 65.5142 70.2171L65.5199 70.2105Z" fill="#E31235"/>
</g>
<g clip-path="url(#clip1_307_737)">
<path d="M92.5306 72.1086L87.5683 67.2874L89.818 66.9311C90.5321 66.818 90.7128 66.3607 90.2188 65.9159L85.0561 61.2578L87.3763 60.8903C88.0905 60.7772 88.2711 60.3199 87.7772 59.8752L81.6406 54.3396C81.1466 53.8949 80.359 54.0339 79.8848 54.652L74.2761 61.9792C73.8047 62.5969 74.0023 63.0086 74.7164 62.8955L76.5766 62.6009L71.8372 68.793C71.3658 69.4106 71.5634 69.8223 72.2776 69.7092L74.0164 69.4338L69.4859 75.6928C68.5742 76.9518 68.9976 77.7964 70.4259 77.5702L78.7557 76.2509V80.512L83.3003 79.7923V75.5311L91.6641 74.2064C93.0924 73.9802 93.4819 73.0383 92.5278 72.1119L92.5306 72.1086Z" fill="#E31235"/>
</g>
<defs>
<linearGradient id="paint0_linear_307_737" x1="183.902" y1="3.69653" x2="65.6597" y2="85.6684" gradientUnits="userSpaceOnUse">
<stop stop-color="#4AC4D7" stop-opacity="0"/>
<stop offset="1" stop-color="#4AC4D7"/>
</linearGradient>
<clipPath id="clip0_307_737">
<rect width="48.7541" height="52.2566" fill="white" transform="matrix(0.987688 -0.156434 0 1 18.4116 37.8683)"/>
</clipPath>
<clipPath id="clip1_307_737">
<rect width="24.3465" height="26.0956" fill="white" transform="matrix(0.987688 -0.156434 0 1 69.0056 55.9579)"/>
</clipPath>
</defs>
</svg>
