<svg width="1076" height="241" viewBox="0 0 1076 241" fill="none" xmlns="http://www.w3.org/2000/svg">
<rect width="642.805" height="118.478" transform="matrix(0.987688 -0.156434 0 1 0 122.392)" fill="#E31235"/>
<path d="M114.553 147.506V181.449L107.646 182.543V154.079L94.176 156.212V184.677L87.2684 185.771V151.828L114.553 147.506ZM148.125 158.368V159.976C148.125 162.556 147.779 164.927 147.088 167.088C146.398 169.249 145.423 171.151 144.164 172.796C142.905 174.425 141.401 175.759 139.651 176.798C137.917 177.834 135.99 178.52 133.872 178.856C131.769 179.189 129.842 179.113 128.092 178.629C126.358 178.142 124.854 177.284 123.579 176.056C122.305 174.813 121.315 173.221 120.609 171.282C119.918 169.339 119.573 167.078 119.573 164.499V162.89C119.573 160.295 119.918 157.924 120.609 155.779C121.3 153.618 122.275 151.715 123.533 150.07C124.807 148.423 126.312 147.081 128.046 146.045C129.796 145.006 131.723 144.321 133.826 143.987C135.944 143.652 137.871 143.728 139.605 144.214C141.355 144.699 142.859 145.564 144.118 146.81C145.392 148.054 146.375 149.646 147.065 151.589C147.771 153.513 148.125 155.772 148.125 158.368ZM141.148 161.081V159.426C141.148 157.623 140.987 156.064 140.664 154.747C140.342 153.43 139.866 152.356 139.237 151.523C138.607 150.69 137.84 150.112 136.934 149.79C136.029 149.451 134.992 149.374 133.826 149.559C132.659 149.744 131.623 150.149 130.717 150.774C129.827 151.381 129.067 152.201 128.438 153.233C127.824 154.263 127.356 155.487 127.033 156.906C126.711 158.325 126.55 159.936 126.55 161.738V163.394C126.55 165.181 126.711 166.741 127.033 168.073C127.356 169.389 127.831 170.472 128.461 171.32C129.09 172.153 129.858 172.739 130.763 173.077C131.669 173.415 132.705 173.492 133.872 173.307C135.038 173.122 136.075 172.717 136.98 172.092C137.886 171.467 138.646 170.639 139.26 169.61C139.874 168.564 140.342 167.332 140.664 165.914C140.987 164.479 141.148 162.869 141.148 161.081ZM178.909 165.801V171.256L154.756 175.082V169.627L178.909 165.801ZM156.805 169.302V183.08L150.312 184.108L149.944 170.389L156.805 169.302ZM183.883 165.013L183.284 178.909L176.952 179.912V166.111L183.883 165.013ZM175.11 137.915V143.393L158.969 145.95V140.471L175.11 137.915ZM180.038 137.134V171.077L173.153 172.168V138.225L180.038 137.134ZM158.118 140.606L165.025 139.512L164.127 153.479C163.989 155.785 163.743 157.845 163.39 159.657C163.053 161.451 162.638 163.047 162.147 164.446C161.671 165.843 161.142 167.084 160.558 168.171C159.975 169.243 159.361 170.195 158.716 171.027C158.071 171.844 157.419 172.585 156.759 173.249C156.099 173.898 155.454 174.505 154.825 175.071L150.865 175.698V170.243L152.407 169.998C152.852 169.555 153.321 168.968 153.812 168.237C154.318 167.504 154.794 166.551 155.239 165.377C155.7 164.185 156.099 162.708 156.437 160.945C156.79 159.179 157.051 157.055 157.22 154.573L158.118 140.606ZM201.451 139.548L192.333 169.13L184.988 170.293L197.445 134.377L202.119 133.637L201.451 139.548ZM209.027 166.486L199.886 139.796L199.149 134.108L203.869 133.36L216.395 165.319L209.027 166.486ZM208.612 153.916V159.395L190.906 162.199V156.721L208.612 153.916ZM232.559 150.66L224.016 152.013V146.558L232.559 145.205C233.879 144.996 234.953 144.608 235.782 144.041C236.611 143.459 237.217 142.742 237.601 141.888C237.985 141.035 238.177 140.111 238.177 139.116C238.177 138.106 237.985 137.196 237.601 136.386C237.217 135.577 236.611 134.974 235.782 134.576C234.953 134.179 233.879 134.085 232.559 134.294L226.411 135.268V163.733L219.503 164.827V130.884L232.559 128.816C235.184 128.4 237.432 128.526 239.305 129.193C241.193 129.842 242.636 130.927 243.634 132.447C244.632 133.967 245.131 135.808 245.131 137.968C245.131 140.159 244.632 142.135 243.634 143.893C242.636 145.652 241.193 147.116 239.305 148.286C237.432 149.453 235.184 150.244 232.559 150.66ZM256.827 124.972V158.915L249.92 160.009V126.066L256.827 124.972ZM276.583 121.843L263.735 143.81L255.285 145.149L254.41 139.063L260.051 138.169L268.202 123.171L276.583 121.843ZM269.468 156.913L260.074 143.224L264.863 137.477L277.665 155.615L269.468 156.913ZM287.037 143.127L300.507 118.054L307.414 116.96V150.903L300.507 151.997V129.058L287.037 154.13L280.129 155.224V121.282L287.037 120.188V143.127ZM351.738 138.428V143.883L327.584 147.708V142.253L351.738 138.428ZM329.634 141.929V155.706L323.141 156.735L322.772 143.015L329.634 141.929ZM356.712 137.64L356.113 151.536L349.781 152.539V138.738L356.712 137.64ZM347.939 110.542V116.02L331.798 118.576V113.098L347.939 110.542ZM352.866 109.761V143.704L345.982 144.794V110.852L352.866 109.761ZM330.946 113.233L337.854 112.139L336.956 126.105C336.818 128.412 336.572 130.471 336.219 132.283C335.881 134.077 335.467 135.674 334.976 137.073C334.5 138.469 333.97 139.711 333.387 140.798C332.804 141.869 332.19 142.821 331.545 143.654C330.9 144.471 330.248 145.212 329.588 145.876C328.928 146.524 328.283 147.131 327.654 147.697L323.693 148.325V142.869L325.236 142.625C325.681 142.182 326.149 141.595 326.64 140.864C327.147 140.131 327.623 139.178 328.068 138.004C328.529 136.812 328.928 135.334 329.265 133.571C329.618 131.806 329.879 129.682 330.048 127.199L330.946 113.233ZM387.266 120.492V122.1C387.266 124.68 386.921 127.05 386.23 129.211C385.539 131.372 384.565 133.275 383.306 134.92C382.047 136.549 380.543 137.883 378.793 138.922C377.058 139.958 375.132 140.644 373.014 140.979C370.911 141.312 368.984 141.237 367.234 140.752C365.5 140.265 363.995 139.408 362.721 138.18C361.447 136.936 360.457 135.345 359.751 133.405C359.06 131.463 358.715 129.202 358.715 126.622V125.014C358.715 122.418 359.06 120.048 359.751 117.902C360.442 115.742 361.416 113.839 362.675 112.194C363.949 110.547 365.454 109.205 367.188 108.169C368.938 107.13 370.865 106.444 372.968 106.111C375.086 105.776 377.012 105.851 378.747 106.338C380.497 106.822 382.001 107.688 383.26 108.934C384.534 110.177 385.516 111.77 386.207 113.712C386.913 115.636 387.266 117.896 387.266 120.492ZM380.29 123.205V121.55C380.29 119.747 380.128 118.187 379.806 116.871C379.484 115.554 379.008 114.479 378.379 113.647C377.749 112.814 376.982 112.236 376.076 111.913C375.17 111.575 374.134 111.498 372.968 111.683C371.801 111.868 370.765 112.273 369.859 112.898C368.969 113.505 368.209 114.325 367.58 115.357C366.966 116.387 366.497 117.611 366.175 119.03C365.853 120.448 365.692 122.059 365.692 123.862V125.517C365.692 127.304 365.853 128.864 366.175 130.196C366.497 131.513 366.973 132.595 367.603 133.444C368.232 134.277 369 134.862 369.905 135.201C370.811 135.539 371.847 135.616 373.014 135.431C374.18 135.246 375.216 134.841 376.122 134.216C377.028 133.591 377.788 132.763 378.402 131.733C379.016 130.688 379.484 129.456 379.806 128.037C380.128 126.603 380.29 124.992 380.29 123.205ZM409.532 119.273L404.236 118.83L406.147 101.322L424.982 98.3391V103.771L411.604 105.89L410.775 113.551C411.22 113.216 411.896 112.83 412.801 112.391C413.707 111.937 414.72 111.621 415.841 111.443C417.468 111.185 418.911 111.213 420.17 111.527C421.428 111.84 422.495 112.417 423.37 113.258C424.26 114.096 424.936 115.186 425.396 116.527C425.857 117.868 426.087 119.433 426.087 121.22C426.087 122.728 425.857 124.202 425.396 125.642C424.936 127.067 424.237 128.39 423.301 129.611C422.365 130.816 421.19 131.833 419.778 132.663C418.366 133.493 416.693 134.061 414.759 134.367C413.316 134.596 411.919 134.6 410.568 134.378C409.233 134.155 408.028 133.701 406.953 133.016C405.894 132.329 405.042 131.43 404.397 130.32C403.768 129.192 403.438 127.846 403.407 126.281L409.992 125.238C410.084 126.187 410.33 126.979 410.729 127.616C411.144 128.234 411.689 128.676 412.364 128.942C413.039 129.208 413.83 129.269 414.736 129.126C415.58 128.992 416.301 128.715 416.9 128.293C417.499 127.872 417.982 127.345 418.351 126.712C418.719 126.063 418.988 125.336 419.156 124.532C419.341 123.711 419.433 122.841 419.433 121.924C419.433 121.007 419.325 120.193 419.11 119.481C418.896 118.769 418.566 118.176 418.12 117.703C417.675 117.229 417.107 116.9 416.416 116.714C415.741 116.526 414.951 116.503 414.045 116.647C412.817 116.841 411.865 117.186 411.19 117.682C410.53 118.175 409.977 118.705 409.532 119.273ZM458.861 106.961V112.835C458.861 115.384 458.592 117.626 458.055 119.56C457.518 121.479 456.743 123.11 455.729 124.451C454.732 125.775 453.542 126.826 452.161 127.604C450.779 128.383 449.244 128.906 447.555 129.173C446.205 129.387 444.946 129.415 443.779 129.258C442.613 129.085 441.561 128.7 440.625 128.103C439.704 127.502 438.906 126.689 438.23 125.661C437.57 124.616 437.064 123.328 436.71 121.799C436.357 120.269 436.181 118.479 436.181 116.428V110.553C436.181 108.004 436.45 105.778 436.987 103.874C437.539 101.953 438.315 100.33 439.312 99.0068C440.325 97.6807 441.523 96.6363 442.904 95.8735C444.286 95.0952 445.821 94.5723 447.509 94.3049C448.86 94.0909 450.111 94.0715 451.263 94.2466C452.429 94.4038 453.481 94.7734 454.417 95.3556C455.353 95.9377 456.152 96.7516 456.812 97.7971C457.472 98.8271 457.978 100.107 458.331 101.636C458.684 103.15 458.861 104.925 458.861 106.961ZM452.207 114.775V107.105C452.207 105.878 452.137 104.816 451.999 103.921C451.877 103.024 451.685 102.277 451.424 101.681C451.163 101.07 450.84 100.592 450.457 100.249C450.073 99.9057 449.635 99.6797 449.144 99.571C448.653 99.4623 448.108 99.4554 447.509 99.5502C446.757 99.6693 446.089 99.9227 445.506 100.31C444.938 100.696 444.455 101.246 444.056 101.962C443.656 102.663 443.349 103.566 443.135 104.672C442.935 105.761 442.835 107.067 442.835 108.59V116.26C442.835 117.487 442.897 118.558 443.019 119.471C443.158 120.381 443.357 121.15 443.618 121.777C443.894 122.386 444.217 122.871 444.585 123.232C444.969 123.576 445.406 123.802 445.898 123.91C446.404 124.017 446.957 124.022 447.555 123.928C448.292 123.811 448.945 123.56 449.513 123.175C450.096 122.772 450.587 122.212 450.986 121.496C451.401 120.762 451.708 119.843 451.907 118.739C452.107 117.635 452.207 116.314 452.207 114.775ZM485.939 102.672V108.547C485.939 111.096 485.67 113.337 485.133 115.272C484.596 117.191 483.82 118.821 482.807 120.163C481.81 121.486 480.62 122.537 479.238 123.316C477.857 124.094 476.322 124.617 474.633 124.884C473.282 125.098 472.024 125.127 470.857 124.969C469.69 124.797 468.639 124.412 467.703 123.814C466.782 123.214 465.983 122.4 465.308 121.372C464.648 120.327 464.141 119.039 463.788 117.51C463.435 115.981 463.259 114.19 463.259 112.139V106.264C463.259 103.715 463.527 101.489 464.065 99.5857C464.617 97.6643 465.392 96.0417 466.39 94.7181C467.403 93.392 468.601 92.3476 469.982 91.5848C471.364 90.8065 472.899 90.2836 474.587 90.0162C475.938 89.8022 477.189 89.7828 478.34 89.9579C479.507 90.1151 480.558 90.4847 481.495 91.0669C482.431 91.649 483.229 92.4629 483.889 93.5084C484.55 94.5384 485.056 95.818 485.409 97.3474C485.762 98.8612 485.939 100.636 485.939 102.672ZM479.284 110.487V102.817C479.284 101.589 479.215 100.528 479.077 99.6324C478.954 98.7349 478.762 97.9882 478.502 97.3924C478.241 96.781 477.918 96.3036 477.534 95.9603C477.151 95.617 476.713 95.391 476.222 95.2823C475.731 95.1736 475.186 95.1667 474.587 95.2615C473.835 95.3806 473.167 95.634 472.584 96.0217C472.016 96.4069 471.533 96.9575 471.133 97.6735C470.734 98.3739 470.427 99.2773 470.212 100.384C470.013 101.472 469.913 102.778 469.913 104.301V111.971C469.913 113.199 469.974 114.269 470.097 115.182C470.235 116.093 470.435 116.861 470.696 117.488C470.972 118.097 471.295 118.583 471.663 118.944C472.047 119.287 472.484 119.513 472.975 119.622C473.482 119.728 474.035 119.734 474.633 119.639C475.37 119.522 476.022 119.271 476.59 118.886C477.174 118.483 477.665 117.923 478.064 117.207C478.479 116.473 478.786 115.554 478.985 114.45C479.185 113.346 479.284 112.025 479.284 110.487ZM513.017 98.3833V104.258C513.017 106.807 512.748 109.048 512.211 110.983C511.673 112.902 510.898 114.532 509.885 115.874C508.887 117.198 507.698 118.249 506.316 119.027C504.935 119.805 503.4 120.328 501.711 120.596C500.36 120.809 499.102 120.838 497.935 120.681C496.768 120.508 495.717 120.123 494.781 119.525C493.859 118.925 493.061 118.111 492.386 117.084C491.726 116.038 491.219 114.751 490.866 113.221C490.513 111.692 490.337 109.902 490.337 107.85V101.975C490.337 99.4266 490.605 97.2005 491.142 95.297C491.695 93.3756 492.47 91.753 493.468 90.4294C494.481 89.1033 495.678 88.0589 497.06 87.2961C498.442 86.5178 499.977 85.9949 501.665 85.7275C503.016 85.5135 504.267 85.4941 505.418 85.6692C506.585 85.8264 507.636 86.196 508.573 86.7782C509.509 87.3603 510.307 88.1741 510.967 89.2197C511.627 90.2497 512.134 91.5293 512.487 93.0587C512.84 94.5724 513.017 96.3473 513.017 98.3833ZM506.362 106.198V98.528C506.362 97.3002 506.293 96.2388 506.155 95.3437C506.032 94.4462 505.84 93.6995 505.579 93.1037C505.318 92.4922 504.996 92.0149 504.612 91.6716C504.229 91.3283 503.791 91.1023 503.3 90.9936C502.809 90.8849 502.264 90.8779 501.665 90.9728C500.913 91.0919 500.245 91.3453 499.662 91.733C499.094 92.1182 498.61 92.6688 498.211 93.3848C497.812 94.0852 497.505 94.9886 497.29 96.095C497.091 97.1835 496.991 98.4892 496.991 100.012V107.682C496.991 108.91 497.052 109.98 497.175 110.893C497.313 111.804 497.513 112.573 497.774 113.2C498.05 113.809 498.372 114.294 498.741 114.655C499.125 114.998 499.562 115.224 500.053 115.333C500.56 115.439 501.112 115.445 501.711 115.35C502.448 115.234 503.1 114.983 503.668 114.597C504.252 114.194 504.743 113.635 505.142 112.919C505.556 112.185 505.863 111.266 506.063 110.162C506.263 109.058 506.362 107.736 506.362 106.198ZM541.453 101.736L523.816 104.529V99.0741L541.292 96.3061C542.719 96.08 543.855 95.6747 544.7 95.0903C545.559 94.5034 546.181 93.7833 546.565 92.9299C546.948 92.061 547.14 91.1136 547.14 90.0879C547.14 89.0777 546.933 88.1858 546.519 87.4122C546.119 86.6206 545.498 86.0352 544.654 85.6561C543.825 85.2589 542.765 85.1625 541.476 85.3667L535.374 86.3331V114.798L528.467 115.892V81.9488L541.453 79.8919C544.093 79.4738 546.35 79.5904 548.222 80.2418C550.111 80.8908 551.561 81.9666 552.574 83.469C553.587 84.9715 554.094 86.7951 554.094 88.9399C554.094 91.1934 553.572 93.211 552.528 94.9927C551.5 96.7719 550.041 98.2384 548.153 99.3922C546.281 100.544 544.047 101.325 541.453 101.736ZM542.719 103.447V108.902L523.816 111.896V106.441L542.719 103.447Z" fill="white"/>
<rect width="384.649" height="10" transform="matrix(0.987688 -0.156434 0 1 695.738 66.8683)" fill="url(#paint0_linear_302_734)"/>
<g clip-path="url(#clip0_302_734)">
<path d="M129.993 80.0485L110.277 60.8935L119.216 59.4778C122.053 59.0284 122.771 57.2116 120.808 55.4445L100.296 36.9379L109.515 35.4778C112.352 35.0284 113.07 33.2115 111.107 31.4445L86.7264 9.45165C84.7638 7.6846 81.6349 8.23695 79.7508 10.6927L57.467 39.804C55.5941 42.258 56.3792 43.8937 59.2165 43.4443L66.6071 42.2737L47.7774 66.8752C45.9045 69.3292 46.6896 70.9648 49.5269 70.5154L56.4352 69.4213L38.4355 94.2887C34.8131 99.2907 36.4953 102.646 42.17 101.748L75.2649 96.5059V113.436L93.3207 110.576V93.6461L126.55 88.3831C132.225 87.4843 133.772 83.742 129.982 80.0617L129.993 80.0485Z" fill="#E31235"/>
</g>
<g clip-path="url(#clip1_302_734)">
<path d="M183.583 83.8147L173.738 74.2492L178.201 73.5422C179.618 73.3178 179.977 72.4105 178.997 71.5281L168.754 62.2864L173.357 61.5572C174.774 61.3328 175.132 60.4255 174.152 59.5431L161.977 48.5604C160.997 47.678 159.434 47.9538 158.494 49.1802L147.366 63.7176C146.43 64.9431 146.822 65.7599 148.239 65.5355L151.93 64.9509L142.527 77.2363C141.592 78.4617 141.984 79.2785 143.401 79.0541L146.85 78.5077L137.862 90.9259C136.053 93.4238 136.893 95.0995 139.727 94.6507L156.253 92.0331V100.487L165.27 99.0593V90.605L181.864 87.9768C184.698 87.528 185.471 85.6591 183.578 83.8213L183.583 83.8147Z" fill="#E31235"/>
</g>
<defs>
<linearGradient id="paint0_linear_302_734" x1="364.867" y1="7.33404" x2="130.271" y2="169.969" gradientUnits="userSpaceOnUse">
<stop stop-color="#4AC4D7" stop-opacity="0"/>
<stop offset="1" stop-color="#4AC4D7"/>
</linearGradient>
<clipPath id="clip0_302_734">
<rect width="96.7298" height="103.679" fill="white" transform="matrix(0.987688 -0.156434 0 1 36.5291 15.8806)"/>
</clipPath>
<clipPath id="clip1_302_734">
<rect width="48.3044" height="51.7745" fill="white" transform="matrix(0.987688 -0.156434 0 1 136.91 51.771)"/>
</clipPath>
</defs>
</svg>
