<svg width="320" height="187" viewBox="0 0 320 187" fill="none" xmlns="http://www.w3.org/2000/svg">
<rect width="193.872" height="5.04024" transform="matrix(0.987688 -0.156434 0 1 8.5686 73.5677)" fill="url(#paint0_linear_307_738)"/>
<rect width="323.989" height="59.7156" transform="matrix(0.987688 -0.156434 0 1 0 126.31)" fill="#E31235"/>
<path d="M50.9557 138.784V155.892L47.4741 156.443V142.096L40.685 143.172V157.518L37.2034 158.07V140.962L50.9557 138.784ZM67.8763 144.258V145.069C67.8763 146.369 67.7023 147.564 67.3541 148.653C67.0059 149.742 66.5146 150.701 65.8802 151.53C65.2458 152.351 64.4876 153.024 63.6056 153.547C62.7313 154.07 61.7603 154.415 60.6926 154.584C59.6327 154.752 58.6617 154.714 57.7797 154.47C56.9054 154.225 56.1472 153.793 55.505 153.174C54.8629 152.547 54.3638 151.745 54.008 150.767C53.6598 149.788 53.4857 148.649 53.4857 147.348V146.537C53.4857 145.229 53.6598 144.035 54.008 142.953C54.3561 141.864 54.8474 140.905 55.4818 140.076C56.124 139.246 56.8822 138.57 57.7565 138.047C58.6385 137.524 59.6095 137.178 60.6694 137.01C61.7371 136.841 62.7081 136.879 63.5824 137.125C64.4644 137.369 65.2226 137.805 65.857 138.433C66.4992 139.06 66.9943 139.862 67.3425 140.841C67.6984 141.811 67.8763 142.95 67.8763 144.258ZM64.3599 145.626V144.792C64.3599 143.883 64.2787 143.097 64.1162 142.433C63.9537 141.77 63.7139 141.228 63.3967 140.808C63.0795 140.388 62.6926 140.097 62.2361 139.934C61.7797 139.764 61.2574 139.725 60.6694 139.818C60.0814 139.912 59.5592 140.116 59.1027 140.431C58.654 140.737 58.271 141.15 57.9538 141.67C57.6443 142.189 57.4083 142.806 57.2458 143.521C57.0834 144.236 57.0021 145.048 57.0021 145.957V146.791C57.0021 147.692 57.0834 148.478 57.2458 149.15C57.4083 149.813 57.6482 150.359 57.9654 150.786C58.2826 151.206 58.6694 151.501 59.1259 151.672C59.5824 151.842 60.1046 151.881 60.6926 151.788C61.2806 151.695 61.8029 151.491 62.2594 151.176C62.7158 150.86 63.0988 150.443 63.4083 149.924C63.7178 149.398 63.9537 148.777 64.1162 148.061C64.2787 147.339 64.3599 146.527 64.3599 145.626ZM83.3927 148.005V150.754L71.2187 152.682V149.933L83.3927 148.005ZM72.2516 149.769V156.713L68.9788 157.232L68.7932 150.317L72.2516 149.769ZM85.8994 147.608L85.5977 154.611L82.4062 155.117V148.161L85.8994 147.608ZM81.4778 133.949V136.711L73.3425 137.999V135.238L81.4778 133.949ZM83.9614 133.556V150.664L80.4914 151.214V134.106L83.9614 133.556ZM72.9131 135.306L76.3947 134.755L75.9421 141.794C75.8724 142.956 75.7486 143.994 75.5707 144.908C75.4005 145.812 75.1916 146.617 74.944 147.322C74.7042 148.026 74.4372 148.651 74.1432 149.199C73.8492 149.739 73.5398 150.219 73.2148 150.639C72.8899 151.051 72.561 151.424 72.2283 151.759C71.8957 152.086 71.5707 152.392 71.2535 152.677L69.2574 152.993V150.243L70.0349 150.12C70.2593 149.897 70.4953 149.601 70.7429 149.233C70.9982 148.863 71.238 148.383 71.4624 147.791C71.6945 147.19 71.8957 146.445 72.0659 145.557C72.2438 144.667 72.3753 143.597 72.4605 142.345L72.9131 135.306ZM94.7543 134.772L90.1586 149.683L86.4565 150.269L92.735 132.166L95.0909 131.793L94.7543 134.772ZM98.5725 148.35L93.9652 134.897L93.5938 132.03L95.9729 131.654L102.286 147.762L98.5725 148.35ZM98.3636 142.014V144.776L89.4391 146.189V143.428L98.3636 142.014ZM110.433 140.373L106.128 141.055V138.306L110.433 137.624C111.099 137.518 111.64 137.323 112.058 137.037C112.476 136.744 112.781 136.382 112.975 135.952C113.168 135.522 113.265 135.056 113.265 134.555C113.265 134.046 113.168 133.587 112.975 133.179C112.781 132.771 112.476 132.467 112.058 132.267C111.64 132.067 111.099 132.019 110.433 132.125L107.335 132.615V146.962L103.853 147.514V130.406L110.433 129.363C111.756 129.154 112.89 129.217 113.834 129.553C114.785 129.88 115.512 130.427 116.015 131.193C116.518 131.96 116.77 132.887 116.77 133.976C116.77 135.081 116.518 136.076 116.015 136.963C115.512 137.849 114.785 138.587 113.834 139.177C112.89 139.765 111.756 140.164 110.433 140.373ZM122.665 127.426V144.534L119.184 145.085V127.977L122.665 127.426ZM132.623 125.849L126.147 136.921L121.888 137.595L121.447 134.528L124.29 134.078L128.398 126.518L132.623 125.849ZM129.037 143.525L124.302 136.626L126.715 133.729L133.168 142.87L129.037 143.525ZM137.891 136.576L144.681 123.939L148.162 123.388V140.496L144.681 141.047V129.485L137.891 142.122L134.41 142.674V125.566L137.891 125.014V136.576ZM170.502 134.208V136.957L158.328 138.885V136.136L170.502 134.208ZM159.361 135.972V142.917L156.089 143.435L155.903 136.52L159.361 135.972ZM173.009 133.811L172.707 140.815L169.516 141.32V134.364L173.009 133.811ZM168.588 120.153V122.914L160.452 124.202V121.441L168.588 120.153ZM171.071 119.759V136.867L167.601 137.417V120.309L171.071 119.759ZM160.023 121.509L163.504 120.958L163.052 127.997C162.982 129.16 162.858 130.198 162.68 131.111C162.51 132.015 162.301 132.82 162.054 133.525C161.814 134.229 161.547 134.855 161.253 135.403C160.959 135.943 160.649 136.422 160.325 136.842C160 137.254 159.671 137.627 159.338 137.962C159.005 138.289 158.68 138.595 158.363 138.88L156.367 139.196V136.447L157.145 136.323C157.369 136.1 157.605 135.804 157.853 135.436C158.108 135.066 158.348 134.586 158.572 133.994C158.804 133.393 159.005 132.649 159.176 131.76C159.354 130.87 159.485 129.8 159.57 128.549L160.023 121.509ZM188.409 125.168V125.978C188.409 127.279 188.235 128.473 187.887 129.563C187.539 130.652 187.048 131.611 186.413 132.44C185.779 133.261 185.021 133.933 184.139 134.457C183.264 134.979 182.293 135.325 181.226 135.494C180.166 135.662 179.195 135.624 178.313 135.38C177.439 135.134 176.68 134.702 176.038 134.083C175.396 133.456 174.897 132.654 174.541 131.676C174.193 130.698 174.019 129.558 174.019 128.258V127.447C174.019 126.139 174.193 124.944 174.541 123.863C174.889 122.773 175.381 121.814 176.015 120.985C176.657 120.155 177.415 119.479 178.29 118.957C179.172 118.433 180.143 118.087 181.203 117.92C182.27 117.75 183.241 117.789 184.116 118.034C184.998 118.278 185.756 118.714 186.39 119.342C187.032 119.969 187.527 120.772 187.876 121.751C188.232 122.72 188.409 123.859 188.409 125.168ZM184.893 126.535V125.701C184.893 124.792 184.812 124.006 184.649 123.343C184.487 122.679 184.247 122.137 183.93 121.718C183.613 121.298 183.226 121.007 182.769 120.844C182.313 120.673 181.791 120.635 181.203 120.728C180.615 120.821 180.092 121.025 179.636 121.34C179.187 121.646 178.804 122.059 178.487 122.58C178.177 123.099 177.941 123.716 177.779 124.431C177.617 125.146 177.535 125.958 177.535 126.866V127.701C177.535 128.601 177.617 129.388 177.779 130.059C177.941 130.723 178.181 131.268 178.499 131.696C178.816 132.116 179.203 132.411 179.659 132.581C180.116 132.752 180.638 132.791 181.226 132.697C181.814 132.604 182.336 132.4 182.793 132.085C183.249 131.77 183.632 131.353 183.941 130.834C184.251 130.307 184.487 129.686 184.649 128.971C184.812 128.248 184.893 127.436 184.893 126.535ZM204.634 114.408V131.551L201.291 132.081V118.839L197.276 120.767V118.1L204.274 114.465L204.634 114.408ZM219.019 119.215V122.176C219.019 123.461 218.883 124.591 218.613 125.566C218.342 126.533 217.951 127.355 217.441 128.031C216.938 128.698 216.338 129.228 215.642 129.62C214.945 130.012 214.172 130.276 213.321 130.411C212.64 130.518 212.005 130.533 211.417 130.454C210.829 130.366 210.299 130.172 209.827 129.871C209.363 129.569 208.961 129.158 208.62 128.641C208.288 128.114 208.032 127.465 207.855 126.694C207.677 125.923 207.588 125.021 207.588 123.987V121.026C207.588 119.741 207.723 118.619 207.994 117.66C208.272 116.691 208.663 115.873 209.166 115.206C209.677 114.538 210.28 114.011 210.976 113.627C211.673 113.235 212.446 112.971 213.297 112.836C213.978 112.728 214.609 112.719 215.189 112.807C215.777 112.886 216.307 113.072 216.779 113.366C217.251 113.659 217.653 114.069 217.986 114.596C218.319 115.116 218.574 115.761 218.752 116.531C218.93 117.294 219.019 118.189 219.019 119.215ZM215.665 123.154V119.288C215.665 118.669 215.63 118.134 215.56 117.683C215.499 117.231 215.402 116.854 215.27 116.554C215.139 116.246 214.976 116.005 214.783 115.832C214.589 115.659 214.369 115.545 214.121 115.49C213.874 115.436 213.599 115.432 213.297 115.48C212.918 115.54 212.582 115.668 212.288 115.863C212.001 116.057 211.758 116.335 211.557 116.696C211.355 117.049 211.201 117.504 211.092 118.062C210.992 118.61 210.942 119.268 210.942 120.036V123.902C210.942 124.521 210.972 125.06 211.034 125.52C211.104 125.979 211.205 126.367 211.336 126.683C211.475 126.99 211.638 127.234 211.824 127.416C212.017 127.589 212.237 127.703 212.485 127.758C212.74 127.812 213.019 127.815 213.321 127.767C213.692 127.708 214.021 127.582 214.307 127.387C214.601 127.184 214.849 126.902 215.05 126.541C215.259 126.171 215.413 125.708 215.514 125.152C215.615 124.595 215.665 123.929 215.665 123.154ZM235.654 116.58V119.541C235.654 120.826 235.518 121.956 235.247 122.931C234.977 123.898 234.586 124.72 234.075 125.396C233.572 126.063 232.973 126.593 232.276 126.985C231.58 127.378 230.806 127.641 229.955 127.776C229.275 127.884 228.64 127.898 228.052 127.819C227.464 127.732 226.934 127.538 226.462 127.236C225.998 126.934 225.596 126.524 225.255 126.006C224.923 125.479 224.667 124.83 224.489 124.059C224.311 123.288 224.222 122.386 224.222 121.352V118.391C224.222 117.106 224.358 115.984 224.629 115.025C224.907 114.056 225.298 113.239 225.801 112.571C226.311 111.903 226.915 111.377 227.611 110.992C228.307 110.6 229.081 110.336 229.932 110.202C230.613 110.094 231.244 110.084 231.824 110.172C232.412 110.251 232.942 110.438 233.414 110.731C233.886 111.025 234.288 111.435 234.621 111.962C234.953 112.481 235.209 113.126 235.387 113.897C235.565 114.66 235.654 115.554 235.654 116.58ZM232.3 120.519V116.653C232.3 116.034 232.265 115.5 232.195 115.048C232.133 114.596 232.037 114.22 231.905 113.919C231.774 113.611 231.611 113.371 231.418 113.198C231.224 113.024 231.004 112.911 230.756 112.856C230.509 112.801 230.234 112.798 229.932 112.845C229.553 112.905 229.217 113.033 228.923 113.228C228.636 113.423 228.393 113.7 228.191 114.061C227.99 114.414 227.836 114.869 227.727 115.427C227.627 115.976 227.576 116.634 227.576 117.401V121.267C227.576 121.886 227.607 122.426 227.669 122.886C227.739 123.345 227.839 123.732 227.971 124.048C228.11 124.355 228.273 124.6 228.458 124.782C228.652 124.955 228.872 125.069 229.12 125.123C229.375 125.177 229.654 125.18 229.955 125.132C230.327 125.073 230.656 124.947 230.942 124.753C231.236 124.549 231.483 124.267 231.685 123.907C231.894 123.537 232.048 123.073 232.149 122.517C232.249 121.961 232.3 121.295 232.3 120.519ZM249.302 114.419V117.38C249.302 118.664 249.166 119.794 248.895 120.769C248.625 121.737 248.234 122.558 247.723 123.234C247.22 123.902 246.621 124.431 245.924 124.824C245.228 125.216 244.454 125.479 243.603 125.614C242.922 125.722 242.288 125.736 241.7 125.657C241.112 125.57 240.582 125.376 240.11 125.075C239.646 124.772 239.244 124.362 238.903 123.844C238.57 123.317 238.315 122.668 238.137 121.898C237.959 121.127 237.87 120.224 237.87 119.19V116.229C237.87 114.945 238.006 113.823 238.276 112.863C238.555 111.895 238.946 111.077 239.449 110.41C239.959 109.741 240.563 109.215 241.259 108.831C241.955 108.438 242.729 108.175 243.58 108.04C244.261 107.932 244.891 107.922 245.472 108.011C246.06 108.09 246.59 108.276 247.062 108.57C247.534 108.863 247.936 109.273 248.269 109.8C248.601 110.319 248.857 110.964 249.035 111.735C249.213 112.498 249.302 113.393 249.302 114.419ZM245.948 118.357V114.492C245.948 113.873 245.913 113.338 245.843 112.887C245.781 112.434 245.685 112.058 245.553 111.758C245.421 111.45 245.259 111.209 245.066 111.036C244.872 110.863 244.652 110.749 244.404 110.694C244.156 110.639 243.882 110.636 243.58 110.684C243.201 110.744 242.864 110.871 242.57 111.067C242.284 111.261 242.04 111.539 241.839 111.899C241.638 112.252 241.483 112.708 241.375 113.265C241.274 113.814 241.224 114.472 241.224 115.24V119.106C241.224 119.724 241.255 120.264 241.317 120.724C241.387 121.183 241.487 121.571 241.619 121.887C241.758 122.194 241.921 122.438 242.106 122.62C242.3 122.793 242.52 122.907 242.768 122.962C243.023 123.015 243.302 123.018 243.603 122.971C243.975 122.912 244.303 122.785 244.59 122.591C244.884 122.388 245.131 122.106 245.332 121.745C245.541 121.375 245.696 120.912 245.797 120.355C245.897 119.799 245.948 119.133 245.948 118.357ZM262.949 112.257V115.218C262.949 116.503 262.814 117.633 262.543 118.608C262.272 119.575 261.882 120.397 261.371 121.073C260.868 121.74 260.269 122.27 259.572 122.662C258.876 123.054 258.102 123.318 257.251 123.453C256.57 123.56 255.936 123.575 255.348 123.496C254.76 123.409 254.23 123.214 253.758 122.913C253.294 122.611 252.891 122.201 252.551 121.683C252.218 121.156 251.963 120.507 251.785 119.736C251.607 118.965 251.518 118.063 251.518 117.029V114.068C251.518 112.783 251.654 111.661 251.924 110.702C252.203 109.733 252.594 108.915 253.096 108.248C253.607 107.58 254.211 107.053 254.907 106.669C255.603 106.277 256.377 106.013 257.228 105.878C257.909 105.77 258.539 105.761 259.12 105.849C259.708 105.928 260.238 106.114 260.71 106.408C261.182 106.701 261.584 107.111 261.917 107.638C262.249 108.158 262.505 108.803 262.683 109.573C262.86 110.336 262.949 111.231 262.949 112.257ZM259.595 116.196V112.33C259.595 111.711 259.561 111.176 259.491 110.725C259.429 110.273 259.332 109.896 259.201 109.596C259.069 109.288 258.907 109.047 258.713 108.874C258.52 108.701 258.3 108.587 258.052 108.533C257.804 108.478 257.53 108.474 257.228 108.522C256.849 108.582 256.512 108.71 256.218 108.905C255.932 109.099 255.688 109.377 255.487 109.738C255.286 110.091 255.131 110.546 255.023 111.104C254.922 111.652 254.872 112.311 254.872 113.078V116.944C254.872 117.563 254.903 118.102 254.965 118.563C255.035 119.021 255.135 119.409 255.267 119.725C255.406 120.032 255.568 120.276 255.754 120.459C255.948 120.632 256.168 120.745 256.416 120.8C256.671 120.854 256.949 120.857 257.251 120.809C257.623 120.75 257.951 120.624 258.238 120.429C258.532 120.226 258.779 119.944 258.98 119.583C259.189 119.213 259.344 118.75 259.445 118.194C259.545 117.637 259.595 116.971 259.595 116.196ZM277.282 113.947L268.392 115.355V112.605L277.201 111.21C277.92 111.096 278.493 110.892 278.918 110.597C279.352 110.302 279.665 109.939 279.858 109.509C280.052 109.071 280.149 108.593 280.149 108.076C280.149 107.567 280.044 107.117 279.835 106.727C279.634 106.328 279.321 106.033 278.895 105.842C278.477 105.642 277.944 105.594 277.294 105.696L274.218 106.184V120.53L270.737 121.082V103.974L277.282 102.937C278.613 102.726 279.75 102.785 280.694 103.113C281.646 103.441 282.377 103.983 282.887 104.74C283.398 105.497 283.653 106.416 283.653 107.497C283.653 108.633 283.39 109.65 282.864 110.548C282.346 111.445 281.611 112.184 280.659 112.766C279.715 113.346 278.59 113.74 277.282 113.947ZM277.92 114.809V117.559L268.392 119.068V116.318L277.92 114.809Z" fill="white"/>
<g clip-path="url(#clip0_307_738)">
<path fill-rule="evenodd" clip-rule="evenodd" d="M198.611 84.7697C198.475 84.8357 198.336 84.8865 198.201 84.9308C198.09 85.0356 197.97 85.1527 197.846 85.2786C197.814 85.5606 197.841 85.9813 197.633 86.2027C197.255 86.6034 196.396 87.0409 196.34 87.2295C196.244 87.6056 196.301 87.8677 196.546 88.5054C197.06 89.8082 197.232 89.7475 198.021 88.6622C198.52 87.9758 198.383 87.6485 198.713 86.4985C198.876 85.9342 199.436 85.2179 199.963 84.6351C199.506 84.7009 199.042 84.7445 198.612 84.7702L198.611 84.7697ZM208.969 62.7202C208.698 62.6608 208.579 62.5938 207.772 62.648C206.965 62.7023 205.723 62.9333 205.723 62.9333C205.723 62.9333 206.293 64.0018 206.945 64.1933C207.482 64.3512 208.084 64.0571 208.287 63.9507C207.794 65.4177 208.986 66.4101 210.221 67.3001C212.707 69.092 211.049 71.2662 210.031 72.2987C209.012 73.3312 206.302 73.1635 205.306 73.1694C203.591 73.1786 202.202 73.6461 200.896 74.4771C200.417 74.4964 199.799 74.2036 199.677 73.7973C199.507 73.2246 200.401 72.2375 200.401 72.2375C199.899 72.341 199.017 72.6972 198.916 73.3507C198.806 73.164 198.826 72.9255 198.95 72.6467C198.382 73.1078 198.376 73.572 198.547 74.1786C198.366 74.1803 198.289 74.0446 198.281 73.8163C197.514 75.0262 199.41 75.8204 200.262 75.4172C199.013 78.0139 201.74 81.0969 199.919 81.9924C198.963 82.4623 197.344 82.7934 197.344 82.7934C197.344 82.7934 197.171 83.7782 196.673 84.7106C196.175 85.6429 195.486 85.8699 194.86 86.0555C194.58 86.1576 194.826 87.0287 194.476 87.3997C194.053 87.8474 193.092 88.3367 193.03 88.5484C192.922 88.9687 192.987 89.2615 193.26 89.9752C193.835 91.432 194.027 91.3633 194.91 90.1506C195.468 89.383 195.314 89.017 195.683 87.7316C196.052 86.4462 198.268 84.455 198.268 84.455C198.268 84.455 200.033 84.3887 201.236 84.0425C202.439 83.6957 202.843 83.4946 203.643 82.6008C204.445 81.7069 204.251 81.1469 204.621 80.1047C204.991 79.0619 206.34 78.4146 206.34 78.4146C205.569 78.8853 204.996 79.5211 204.885 79.9716C206.203 78.6348 209.288 79.3293 211.815 78.8921C212.058 78.8504 212.291 78.8297 212.518 78.8097C212.542 77.7062 212.946 78.2114 212.883 76.9219C213.321 77.8756 212.456 78.6977 212.81 79.2465C212.927 79.4279 215.653 78.3405 217.348 77.788C217.85 77.6241 218.391 77.6908 218.18 78.2851C218.034 79.478 217.323 80.7197 217.323 80.7197C217.323 80.7197 217.517 81.7072 217.242 82.0028C216.968 82.2982 216.106 82.3617 216.313 83.9511C216.529 85.6125 216.369 86.1377 218.342 83.897C219.099 83.0369 218.935 81.8455 219.04 81.1612C219.144 80.4769 220.319 76.9675 220.206 75.6591C220.231 75.5135 219.735 75.3776 219.638 75.3748C219.109 75.3582 217.733 75.6166 217.248 75.6272C218.199 74.8328 220.403 73.7118 221.454 73.2664C221.461 74.437 220.761 76.2488 220.761 76.2488C220.761 76.2488 221.098 77.178 220.849 77.4986C220.599 77.8192 219.7 77.9897 220.131 79.4993C220.582 81.0761 220.484 81.6045 222.261 79.1878C222.943 78.2604 222.61 77.1312 222.629 76.4563C222.647 75.7822 223.092 72.4269 222.798 71.1773C222.804 71.0333 222.625 70.8531 222.38 70.9117C221.236 71.1844 219.382 72.3046 217.901 72.7302C218.249 67.1678 215.446 66.6914 213.345 65.5834C213.12 65.7111 212.021 66.5195 211.194 65.8806C212.374 66.2409 213.611 65.1468 214.172 64.3976C214.67 64.907 215.717 64.4147 216.154 63.9614C216.545 63.5574 216.769 62.8718 216.705 62.3079C216.7 62.2592 216.591 62.0691 216.436 62.0864C214.956 62.2493 214.179 61.9644 213.619 61.7347C213.012 61.4856 212.616 61.3028 211.65 61.3478C211.45 61.3573 210.537 61.6203 210.109 61.8774C210.046 61.7498 209.988 61.6548 209.988 61.6548C209.988 61.6548 209.878 61.4039 210.007 61.2241C210.136 61.0442 210.781 60.3724 211.467 60.1833C212.154 59.994 212.836 59.5929 213.208 59.277C213.581 58.9618 213.862 58.445 213.374 58.5247C212.887 58.6045 212.34 59.1406 212.128 59.239C211.916 59.3373 211.637 59.4085 211.637 59.4085C211.637 59.4085 212.233 58.6064 212.343 58.253C212.452 57.9004 212.244 57.389 211.86 57.6045C211.476 57.8199 211.466 58.2691 211.259 58.7788C211.052 59.2886 210.898 59.5507 210.35 59.9969C209.802 60.4431 209.61 60.7291 209.249 60.9047C208.888 61.0801 208.53 61.1652 208.53 61.1652C208.53 61.1652 209.389 59.9021 209.632 59.1697C209.875 58.4372 209.554 56.7014 209.018 56.3006C208.482 55.8997 208.406 56.3052 208.724 57.0674C209.043 57.8295 209.081 58.6428 208.451 59.681C207.821 60.7192 207.664 61.3663 206.466 61.4907C205.269 61.6158 204.492 60.8967 204.284 60.5019C204.075 60.1065 203.814 59.2458 204.495 58.5365C205.176 57.8272 206.062 56.7592 206.054 55.9797C206.046 55.2002 205.457 54.9233 205.262 55.608C205.068 56.2926 205.168 56.924 204.495 57.3566C203.823 57.7891 203.645 58.0168 203.395 57.1387C203.145 56.2612 203.042 55.6037 202.592 55.8375C202.143 56.0714 202.321 56.3241 202.664 57.1758C203.006 58.0281 203.439 58.9512 203.2 59.6069C202.962 60.2624 202.594 60.2547 202.411 59.4952C202.229 58.7357 202.275 56.8711 201.763 56.3265C201.252 55.7819 200.732 55.8844 200.949 56.5924C201.166 57.301 201.878 58.4698 201.756 59.1754C201.632 59.8819 201.119 60.5173 200.628 59.9124C200.136 59.3074 200.713 58.0215 200.693 57.5075C200.674 56.9929 199.749 57.1095 199.708 58.1772C199.667 59.2448 199.722 59.4904 199.722 59.4904C199.722 59.4904 199.18 59.5162 198.945 58.772C198.71 58.0276 198.781 57.6926 198.216 57.9993C197.652 58.306 197.943 59.2958 198.584 60.1474C199.226 60.9991 199.691 61.1314 201.183 61.1998C202.675 61.2682 202.946 61.4952 203.943 62.0016C204.941 62.508 205.961 62.6241 207.142 62.4768C208.323 62.3295 209.049 62.3479 209.174 62.5186C209.152 62.5327 209.071 62.5818 208.964 62.7237L208.969 62.7202ZM203.783 82.8975C204.515 82.6566 204.866 82.4217 205.467 81.7514C206.137 81.003 206.22 80.0887 206.366 79.5853C205.906 79.6832 205.424 79.8567 205.094 80.1923L204.833 80.4575C204.571 81.3581 204.67 81.9091 203.866 82.8068C203.838 82.8379 203.811 82.8683 203.784 82.898L203.783 82.8975Z" fill="#E31235"/>
<path fill-rule="evenodd" clip-rule="evenodd" d="M225.382 83.0138C225.246 83.0791 225.108 83.1305 224.971 83.175C224.861 83.2798 224.741 83.3967 224.617 83.5226C224.585 83.8053 224.613 84.2253 224.404 84.4467C224.026 84.8468 223.167 85.2849 223.111 85.4736C223.016 85.849 223.073 86.1111 223.316 86.7489C223.831 88.0517 224.003 87.9902 224.791 86.9058C225.29 86.2195 225.153 85.8922 225.483 84.7422C225.645 84.178 226.205 83.4617 226.733 82.8787C226.276 82.9446 225.812 82.9875 225.381 83.0139L225.382 83.0138ZM235.741 60.9642C235.47 60.9048 235.35 60.8378 234.544 60.892C233.737 60.9462 232.495 61.1773 232.495 61.1773C232.495 61.1773 233.065 62.2457 233.717 62.4372C234.254 62.5949 234.856 62.301 235.059 62.1946C234.566 63.6617 235.758 64.6541 236.993 65.5446C239.48 67.3365 237.821 69.5108 236.802 70.5433C235.784 71.5758 233.074 71.4081 232.078 71.414C230.363 71.4232 228.974 71.89 227.668 72.721C227.188 72.7398 226.571 72.4469 226.449 72.0412C226.279 71.4685 227.172 70.4816 227.172 70.4816C226.671 70.585 225.789 70.9406 225.687 71.5948C225.578 71.4079 225.598 71.1696 225.721 70.8907C225.153 71.352 225.147 71.8161 225.319 72.4225C225.137 72.4244 225.06 72.2886 225.053 72.061C224.286 73.2701 226.182 74.0645 227.034 73.6612C225.784 76.258 228.512 79.3415 226.69 80.2364C225.735 80.7063 224.115 81.0373 224.115 81.0373C224.115 81.0373 223.942 82.0222 223.445 82.9545C222.947 83.8868 222.258 84.1138 221.632 84.3001C221.352 84.4028 221.598 85.2733 221.248 85.6442C220.826 86.0918 219.865 86.5812 219.802 86.7929C219.695 87.2131 219.759 87.5061 220.032 88.2198C220.607 89.6766 220.799 89.6079 221.682 88.3952C222.24 87.6274 222.086 87.2616 222.456 85.9754C222.824 84.69 225.041 82.6988 225.041 82.6988C225.041 82.6988 226.805 82.6326 228.008 82.2863C229.211 81.9401 229.615 81.7384 230.417 80.8445C231.218 79.9506 231.024 79.3906 231.394 78.3485C231.764 77.3063 233.112 76.6584 233.112 76.6584C232.342 77.1297 231.769 77.7649 231.658 78.2161C232.975 76.8792 236.06 77.5738 238.588 77.1366C238.831 77.0942 239.064 77.0747 239.29 77.0541C239.315 75.9506 239.719 76.4559 239.656 75.1663C240.093 76.12 239.228 76.9423 239.583 77.4909C239.7 77.6716 242.426 76.5849 244.121 76.0323C244.623 75.8684 245.164 75.9351 244.953 76.5288C244.807 77.7216 244.096 78.9634 244.096 78.9634C244.096 78.9634 244.29 79.9509 244.016 80.2463C243.741 80.5419 242.88 80.6053 243.086 82.1946C243.303 83.856 243.143 84.3812 245.116 82.1405C245.873 81.2804 245.709 80.0891 245.813 79.4048C245.918 78.7205 247.093 75.211 246.98 73.9027C247.004 73.757 246.509 73.6211 246.412 73.6176C245.883 73.601 244.507 73.8595 244.023 73.8699C244.974 73.0755 247.177 71.9546 248.229 71.5092C248.235 72.6799 247.535 74.4915 247.535 74.4915C247.535 74.4915 247.873 75.4207 247.623 75.7414C247.374 76.062 246.474 76.2325 246.906 77.7419C247.357 79.3188 247.259 79.8465 249.036 77.4305C249.718 76.5037 249.385 75.3738 249.403 74.6991C249.421 74.0243 249.867 70.6696 249.572 69.4201C249.578 69.2761 249.4 69.0959 249.154 69.1545C248.011 69.4272 246.156 70.548 244.676 70.9729C245.023 65.4105 242.22 64.9335 240.119 63.8255C239.894 63.9532 238.795 64.7617 237.969 64.1234C239.149 64.4837 240.386 63.3895 240.946 62.6403C241.445 63.1496 242.491 62.6568 242.929 62.2033C243.319 61.7995 243.544 61.1145 243.48 60.5506C243.475 60.5019 243.365 60.3118 243.211 60.3292C241.731 60.492 240.954 60.2072 240.394 59.9774C239.787 59.7284 239.39 59.5456 238.425 59.5906C238.225 59.6001 237.312 59.863 236.883 60.1201C236.821 59.9926 236.763 59.8975 236.763 59.8975C236.763 59.8975 236.652 59.6468 236.781 59.4669C236.911 59.287 237.555 58.6151 238.241 58.426C238.927 58.2369 239.61 57.835 239.983 57.5198C240.354 57.2047 240.636 56.6877 240.148 56.7676C239.661 56.8474 239.114 57.3835 238.902 57.4818C238.691 57.5801 238.412 57.6513 238.412 57.6513C238.412 57.6513 239.007 56.8492 239.117 56.4966C239.226 56.1439 239.018 55.6319 238.634 55.848C238.25 56.0633 238.24 56.5126 238.033 57.0224C237.825 57.5322 237.672 57.7943 237.124 58.2404C236.576 58.6866 236.384 58.9733 236.022 59.1482C235.661 59.3236 235.303 59.4088 235.303 59.4088C235.303 59.4088 236.163 58.1456 236.406 57.4133C236.648 56.6809 236.327 54.9451 235.792 54.544C235.256 54.1432 235.179 54.5481 235.499 55.3108C235.818 56.0735 235.856 56.8862 235.226 57.9244C234.596 58.9626 234.438 59.6097 233.241 59.734C232.044 59.8591 231.267 59.1407 231.058 58.7453C230.85 58.3505 230.588 57.4892 231.269 56.7806C231.95 56.0713 232.836 55.0033 232.828 54.2238C232.821 53.4442 232.231 53.168 232.037 53.8521C231.843 54.5366 231.942 55.1681 231.27 55.6005C230.598 56.0331 230.42 56.2607 230.17 55.3827C229.919 54.5053 229.817 53.8476 229.367 54.0815C228.918 54.3153 229.096 54.5674 229.439 55.4197C229.781 56.2714 230.213 57.1953 229.975 57.8508C229.737 58.5063 229.369 58.4986 229.186 57.7398C229.004 56.9803 229.049 55.1158 228.538 54.571C228.027 54.0264 227.507 54.1283 227.724 54.8369C227.941 55.5449 228.654 56.7143 228.531 57.42C228.407 58.1258 227.894 58.7619 227.403 58.1569C226.912 57.5519 227.488 56.2661 227.468 55.7514C227.449 55.2368 226.524 55.3535 226.483 56.4211C226.442 57.4887 226.497 57.7343 226.497 57.7343C226.497 57.7343 225.955 57.7602 225.721 57.0158C225.485 56.2715 225.556 55.9365 224.992 56.2425C224.428 56.5491 224.718 57.5389 225.36 58.3906C226.002 59.2422 226.467 59.3746 227.959 59.443C229.451 59.5114 229.722 59.7384 230.718 60.2449C231.716 60.7513 232.737 60.8673 233.918 60.72C235.099 60.5727 235.824 60.5912 235.949 60.7617C235.927 60.776 235.847 60.825 235.74 60.9669L235.741 60.9642ZM230.555 81.1414C231.287 80.9005 231.637 80.6656 232.239 79.9953C232.909 79.2469 232.992 78.3326 233.138 77.8292C232.677 77.9272 232.196 78.1006 231.865 78.4362L231.604 78.7016C231.342 79.6022 231.442 80.153 230.637 81.0509C230.61 81.082 230.582 81.1124 230.555 81.1421L230.555 81.1414Z" fill="#E31235"/>
<path fill-rule="evenodd" clip-rule="evenodd" d="M256.121 68.8277C255.985 68.8932 255.847 68.9444 255.71 68.9889C255.6 69.0943 255.481 69.2106 255.356 69.3365C255.323 69.6187 255.351 70.0394 255.143 70.2606C254.765 70.6614 253.906 71.0988 253.85 71.2875C253.754 71.6636 253.812 71.9257 254.056 72.5635C254.57 73.8663 254.742 73.8048 255.531 72.7204C256.03 72.034 255.893 71.7067 256.223 70.5567C256.384 69.9926 256.944 69.2762 257.473 68.6925C257.015 68.7591 256.552 68.8019 256.121 68.8277ZM266.479 46.7782C266.208 46.7188 266.089 46.6518 265.282 46.706C264.476 46.7603 263.233 46.9913 263.233 46.9913C263.233 46.9913 263.803 48.0597 264.456 48.2513C264.992 48.4091 265.595 48.115 265.798 48.0087C265.304 49.4757 266.496 50.4681 267.732 51.3587C270.218 53.1506 268.559 55.3248 267.541 56.3573C266.523 57.3898 263.812 57.2222 262.817 57.228C261.102 57.2372 259.712 57.704 258.408 58.5349C257.927 58.5543 257.309 58.2616 257.188 57.8551C257.017 57.2826 257.911 56.2955 257.911 56.2955C257.41 56.399 256.528 56.7552 256.426 57.4087C256.317 57.222 256.337 56.9835 256.46 56.7046C255.893 57.1658 255.887 57.6299 256.058 58.2364C255.876 58.2383 255.799 58.1025 255.792 57.8748C255.025 59.084 256.922 59.8789 257.774 59.4749C256.524 62.0718 259.252 65.1546 257.43 66.0501C256.475 66.5201 254.855 66.8511 254.855 66.8511C254.855 66.8511 254.682 67.836 254.184 68.7683C253.687 69.7006 252.998 69.9276 252.372 70.1131C252.092 70.2152 252.338 71.0863 251.988 71.4573C251.566 71.905 250.605 72.3943 250.542 72.6059C250.435 73.0262 250.499 73.3191 250.772 74.0321C251.348 75.4889 251.54 75.4202 252.422 74.2075C252.981 73.4398 252.827 73.074 253.196 71.7878C253.565 70.5022 255.781 68.5112 255.781 68.5112C255.781 68.5112 257.545 68.445 258.749 68.0987C259.952 67.7524 260.356 67.5507 261.157 66.6568C261.958 65.763 261.764 65.2036 262.135 64.1607C262.504 63.1186 263.854 62.4707 263.854 62.4707C263.083 62.942 262.51 63.5778 262.399 64.0277C263.716 62.6908 266.801 63.3854 269.329 62.9482C269.572 62.9058 269.805 62.8858 270.031 62.8657C270.056 61.7622 270.46 62.2674 270.397 60.9779C270.834 61.9316 269.97 62.7537 270.324 63.3018C270.441 63.4832 273.167 62.3959 274.862 61.8433C275.364 61.6795 275.904 61.7455 275.694 62.3398C275.548 63.5326 274.836 64.7744 274.836 64.7744C274.836 64.7744 275.031 65.7619 274.756 66.0575C274.481 66.3531 273.62 66.4164 273.826 68.0058C274.042 69.6672 273.882 70.1931 275.855 67.9517C276.612 67.0916 276.448 65.9002 276.553 65.216C276.658 64.5317 277.833 61.0222 277.72 59.7139C277.744 59.5682 277.248 59.4323 277.151 59.4289C276.622 59.4124 275.247 59.6707 274.762 59.6813C275.713 58.8875 277.916 57.7659 278.968 57.3205C278.974 58.4912 278.275 60.3027 278.275 60.3027C278.275 60.3027 278.612 61.232 278.363 61.5526C278.113 61.8732 277.214 62.0437 277.646 63.5531C278.096 65.13 277.999 65.6583 279.776 63.2417C280.457 62.3149 280.125 61.1842 280.143 60.5101C280.162 59.8354 280.607 56.4806 280.312 55.2311C280.319 55.0871 280.14 54.907 279.895 54.9655C278.751 55.2382 276.897 56.3584 275.416 56.784C275.763 51.2209 272.961 50.7445 270.859 49.6366C270.635 49.7643 269.536 50.5727 268.709 49.9338C269.888 50.2942 271.126 49.1999 271.687 48.4507C272.184 48.9601 273.232 48.4672 273.669 48.0145C274.059 47.6105 274.284 46.925 274.22 46.3611C274.215 46.3117 274.105 46.1224 273.951 46.1396C272.471 46.3025 271.694 46.0182 271.134 45.7878C270.527 45.5388 270.131 45.356 269.165 45.4016C268.965 45.4111 268.051 45.6742 267.623 45.9312C267.561 45.8036 267.503 45.7086 267.503 45.7086C267.503 45.7086 267.393 45.4577 267.522 45.2779C267.651 45.098 268.296 44.4262 268.982 44.2371C269.668 44.048 270.351 43.6467 270.723 43.3308C271.095 43.0156 271.376 42.4988 270.889 42.5786C270.401 42.6583 269.855 43.1945 269.643 43.2927C269.432 43.391 269.152 43.4623 269.152 43.4623C269.152 43.4623 269.748 42.6596 269.858 42.3068C269.967 41.9542 269.759 41.4428 269.375 41.6583C268.991 41.8736 268.981 42.3229 268.774 42.8326C268.566 43.3425 268.413 43.6046 267.865 44.0507C267.317 44.4967 267.125 44.7829 266.763 44.9585C266.402 45.1339 266.044 45.2184 266.044 45.2184C266.044 45.2184 266.904 43.9559 267.147 43.2235C267.39 42.4911 267.069 40.7552 266.532 40.3544C265.997 39.9535 265.92 40.3591 266.239 41.1212C266.558 41.8839 266.596 42.6966 265.966 43.7348C265.336 44.773 265.178 45.4201 263.981 45.5445C262.783 45.6696 262.006 44.9506 261.799 44.5557C261.59 44.1603 261.328 43.2996 262.009 42.5903C262.69 41.8811 263.576 40.813 263.568 40.0335C263.561 39.2533 262.971 38.9771 262.777 39.6618C262.583 40.3464 262.682 40.9778 262.01 41.4104C261.338 41.8429 261.16 42.0706 260.909 41.1932C260.659 40.3158 260.557 39.6581 260.107 39.892C259.657 40.1259 259.836 40.378 260.179 41.2303C260.521 42.0819 260.953 43.0058 260.715 43.6613C260.477 44.3168 260.108 44.3091 259.927 43.5496C259.745 42.7907 259.789 40.9255 259.278 40.3809C258.766 39.8363 258.247 39.9382 258.464 40.6468C258.681 41.3554 259.394 42.5241 259.27 43.2299C259.147 43.9363 258.635 44.5716 258.143 43.9661C257.652 43.3611 258.228 42.0758 258.209 41.5612C258.189 41.0466 257.264 41.1632 257.223 42.2309C257.182 43.2985 257.237 43.544 257.237 43.544C257.237 43.544 256.695 43.5699 256.461 42.8255C256.226 42.0812 256.297 41.7462 255.732 42.0522C255.168 42.3589 255.459 43.3487 256.1 44.2003C256.742 45.052 257.207 45.1843 258.699 45.2527C260.191 45.3211 260.462 45.5481 261.459 46.0547C262.456 46.5611 263.477 46.6771 264.658 46.5298C265.839 46.3818 266.565 46.4008 266.69 46.5715C266.668 46.5857 266.587 46.6347 266.48 46.7768L266.479 46.7782ZM261.293 66.9555C262.025 66.7145 262.376 66.479 262.977 65.8094C263.648 65.061 263.73 64.1467 263.877 63.6433C263.416 63.7405 262.934 63.9147 262.604 64.2496L262.343 64.5148C262.081 65.4154 262.181 65.9662 261.376 66.8643C261.348 66.8953 261.32 66.9258 261.293 66.9555Z" fill="#E31235"/>
<path fill-rule="evenodd" clip-rule="evenodd" d="M281.973 69.5086C281.837 69.5739 281.699 69.6252 281.563 69.6697C281.452 69.7751 281.332 69.8915 281.208 70.0173C281.176 70.2995 281.203 70.7201 280.995 70.9407C280.618 71.3415 279.758 71.7789 279.702 71.9677C279.606 72.3438 279.663 72.6053 279.908 73.2436C280.422 74.5464 280.594 74.485 281.383 73.4005C281.882 72.7141 281.745 72.3868 282.075 71.2368C282.237 70.6726 282.796 69.9563 283.325 69.3733C282.867 69.4392 282.404 69.4827 281.973 69.5084L281.973 69.5086ZM292.331 47.459C292.06 47.3996 291.941 47.3325 291.135 47.3868C290.328 47.441 289.086 47.6721 289.086 47.6721C289.086 47.6721 289.655 48.7405 290.308 48.932C290.844 49.0899 291.447 48.7958 291.65 48.6888C291.156 50.1558 292.348 51.1482 293.584 52.0388C296.07 53.8308 294.412 56.0049 293.393 57.0368C292.375 58.0693 289.664 57.9016 288.669 57.9075C286.954 57.9167 285.565 58.3835 284.26 59.215C283.779 59.2338 283.162 58.9416 283.04 58.5346C282.87 57.962 283.764 56.9748 283.764 56.9748C283.263 57.0783 282.381 57.4339 282.279 58.0882C282.169 57.9013 282.189 57.6629 282.313 57.384C281.746 57.8451 281.739 58.3093 281.91 58.9159C281.728 58.9178 281.652 58.782 281.645 58.5542C280.877 59.7634 282.774 60.5584 283.625 60.1545C282.376 62.7512 285.103 65.8349 283.282 66.7297C282.326 67.1996 280.706 67.5308 280.706 67.5308C280.706 67.5308 280.533 68.5157 280.035 69.448C279.538 70.3803 278.849 70.6073 278.222 70.7929C277.943 70.8957 278.188 71.7662 277.838 72.1371C277.416 72.5848 276.455 73.0742 276.392 73.2858C276.286 73.7059 276.349 73.9996 276.622 74.7126C277.198 76.1694 277.39 76.1007 278.272 74.888C278.831 74.1203 278.677 73.7545 279.046 72.469C279.415 71.1828 281.631 69.1924 281.631 69.1924C281.631 69.1924 283.395 69.1262 284.598 68.7799C285.801 68.4338 286.205 68.232 287.006 67.3382C287.807 66.4444 287.613 65.885 287.983 64.8423C288.353 63.8002 289.702 63.1522 289.702 63.1522C288.932 63.6234 288.358 64.2593 288.247 64.7098C289.565 63.373 292.65 64.0675 295.177 63.6303C295.42 63.588 295.653 63.5679 295.88 63.5479C295.904 62.4444 296.308 62.9496 296.245 61.6601C296.682 62.6138 295.817 63.436 296.172 63.9847C296.289 64.1655 299.015 63.078 300.71 62.5255C301.212 62.3616 301.752 62.4284 301.542 63.022C301.396 64.2148 300.685 65.4566 300.685 65.4566C300.685 65.4566 300.879 66.4441 300.604 66.7397C300.329 67.0353 299.468 67.0986 299.675 68.688C299.891 70.3494 299.731 70.8753 301.704 68.6339C302.461 67.7738 302.297 66.5824 302.401 65.8981C302.507 65.2137 303.681 61.7044 303.569 60.3959C303.593 60.2503 303.097 60.1143 303 60.111C302.471 60.095 301.096 60.3534 300.611 60.3633C301.562 59.5695 303.765 58.4479 304.817 58.0025C304.824 59.1731 304.124 60.9848 304.124 60.9848C304.124 60.9848 304.461 61.914 304.212 62.234C303.962 62.5546 303.063 62.7257 303.495 64.2345C303.945 65.8114 303.848 66.3397 305.625 63.9231C306.306 62.9956 305.974 61.8658 305.992 61.1916C306.01 60.5169 306.455 57.1621 306.161 55.9126C306.167 55.7686 305.989 55.5885 305.743 55.647C304.599 55.9197 302.745 57.0399 301.264 57.4662C301.612 51.9031 298.809 51.4267 296.708 50.3187C296.483 50.4465 295.384 51.2549 294.557 50.616C295.737 50.9762 296.974 49.8821 297.535 49.1329C298.033 49.6422 299.08 49.1494 299.518 48.6966C299.908 48.2927 300.132 47.6072 300.069 47.0432C300.063 46.9939 299.954 46.8044 299.799 46.8218C298.319 46.9847 297.542 46.6997 296.982 46.47C296.375 46.221 295.979 46.0381 295.013 46.0832C294.813 46.0926 293.9 46.3557 293.472 46.6127C293.409 46.4852 293.351 46.3901 293.351 46.3901C293.351 46.3901 293.241 46.1392 293.37 45.9594C293.499 45.7795 294.144 45.1077 294.83 44.9186C295.516 44.7295 296.199 44.3282 296.571 44.0124C296.944 43.6972 297.225 43.1803 296.737 43.2601C296.25 43.3398 295.704 43.876 295.492 43.9743C295.28 44.0725 295.001 44.1444 295.001 44.1444C295.001 44.1444 295.597 43.3423 295.706 42.9897C295.815 42.637 295.607 42.125 295.223 42.3411C294.839 42.5565 294.829 43.0057 294.622 43.5155C294.415 44.0252 294.261 44.2874 293.713 44.7335C293.165 45.1797 292.973 45.4658 292.612 45.6413C292.25 45.8168 291.893 45.9012 291.893 45.9012C291.893 45.9012 292.752 44.6381 292.995 43.9057C293.238 43.1734 292.917 41.4374 292.381 41.0366C291.845 40.6357 291.769 41.0406 292.087 41.8034C292.406 42.5655 292.445 43.3788 291.814 44.417C291.184 45.4552 291.027 46.1023 289.829 46.2267C288.632 46.3518 287.855 45.6327 287.647 45.2379C287.439 44.8431 287.177 43.9825 287.858 43.2732C288.539 42.5639 289.425 41.4959 289.417 40.7164C289.409 39.9362 288.819 39.6601 288.625 40.3446C288.431 41.0292 288.531 41.6607 287.859 42.0931C287.187 42.5256 287.008 42.7534 286.758 41.8752C286.508 40.9979 286.406 40.3402 285.956 40.574C285.506 40.8079 285.685 41.06 286.028 41.9123C286.37 42.7639 286.803 43.6878 286.564 44.3434C286.326 44.9989 285.958 44.9912 285.775 44.2318C285.593 43.4729 285.638 41.6077 285.126 41.0631C284.615 40.5185 284.096 40.6204 284.313 41.3289C284.53 42.0368 285.242 43.2063 285.119 43.9119C284.996 44.6184 284.483 45.2538 283.992 44.6489C283.501 44.0438 284.076 42.758 284.057 42.244C284.037 41.7294 283.113 41.8461 283.072 42.9137C283.03 43.9813 283.086 44.2269 283.086 44.2269C283.086 44.2269 282.544 44.2527 282.309 43.5085C282.074 42.7641 282.144 42.4292 281.58 42.7358C281.016 43.0425 281.306 44.0323 281.948 44.8839C282.59 45.7356 283.055 45.8679 284.547 45.9363C286.039 46.0047 286.31 46.2318 287.307 46.7381C288.305 47.2445 289.326 47.3605 290.507 47.2132C291.688 47.0653 292.413 47.0843 292.538 47.255C292.516 47.2692 292.435 47.3182 292.329 47.4601L292.331 47.459ZM287.146 67.6362C287.878 67.3953 288.228 67.1604 288.829 66.4901C289.5 65.7417 289.583 64.8274 289.729 64.324C289.268 64.4219 288.787 64.5954 288.456 64.931L288.195 65.1957C287.933 66.0963 288.033 66.6471 287.228 67.545C287.2 67.5762 287.173 67.6065 287.146 67.6362Z" fill="#E31235"/>
<path fill-rule="evenodd" clip-rule="evenodd" d="M137.403 80.5095C137.403 80.5095 138.093 81.4541 138.182 82.694C138.271 83.9345 138.006 84.6163 138.006 84.6163C138.006 84.6163 138.249 84.5328 138.687 84.3267C139.126 84.1206 139.21 84.018 139.21 84.018C139.21 84.018 139.779 82.3171 139.828 81.7069C139.876 81.0974 139.858 80.8306 139.858 80.8306C139.858 80.8306 139.107 80.883 138.471 80.7791C137.836 80.6758 137.403 80.5095 137.403 80.5095ZM139.552 85.7333C139.552 85.7333 139.593 85.1049 139.55 84.91C139.507 84.7151 139.456 84.4478 139.456 84.4478C139.456 84.4478 139.982 82.8963 140.079 82.0884C140.177 81.2811 140.102 80.8352 140.102 80.8352C140.102 80.8352 140.622 80.7359 141.074 80.5683C141.526 80.4006 141.593 80.4024 141.593 80.4024C141.593 80.4024 141.504 80.9512 141.438 81.3213C141.373 81.6906 141.36 81.7468 141.36 81.7468C141.36 81.7468 141.819 81.9158 142.614 81.7139C143.409 81.5121 143.945 81.2554 143.945 81.2554C143.945 81.2554 143.896 81.7977 143.757 82.1465C143.618 82.4953 143.566 82.5718 143.566 82.5718C143.566 82.5718 144.26 82.6108 144.993 82.265C145.726 81.9192 145.993 81.7299 145.993 81.7299C145.993 81.7299 145.955 82.021 145.862 82.3004C145.774 82.2709 145.678 82.2594 145.585 82.267C145.212 82.2969 144.922 82.5876 144.729 82.9211C144.627 83.0982 144.552 83.2999 144.507 83.5013C143.793 83.9639 142.856 84.5296 141.973 84.9403C140.212 85.7589 139.552 85.7333 139.552 85.7333ZM141.211 85.6816C141.823 85.4918 142.505 85.2418 143.096 84.9299C143.597 84.666 144.068 84.3688 144.475 84.0893C144.487 84.185 144.509 84.2769 144.543 84.3644C144.618 84.5626 144.731 84.7049 144.87 84.8033L143.751 85.2806L143.968 86.0959C143.321 85.9564 142.67 85.8326 142.009 85.7307C141.759 85.6925 141.49 85.6765 141.212 85.6807L141.211 85.6816ZM140.277 83.8629C140.463 83.6363 140.769 83.5819 140.961 83.7416C141.153 83.9012 141.159 84.215 140.974 84.4415C140.789 84.6686 140.482 84.7231 140.29 84.5628C140.097 84.4031 140.092 84.0894 140.277 83.8629ZM140.543 82.3408C140.676 82.1777 140.897 82.1386 141.036 82.2533C141.175 82.3687 141.179 82.5945 141.046 82.7582C140.912 82.922 140.691 82.9605 140.552 82.8457C140.413 82.7303 140.409 82.5045 140.543 82.3408ZM142.181 82.7588L142.51 82.8211L142.779 82.5553L142.775 82.9111L143.065 83.0589L142.734 83.2165L142.644 83.5737L142.445 83.3147L142.099 83.3869L142.306 83.0696L142.183 82.7572L142.181 82.7588ZM135.453 78.8833L136.453 79.0743L137.276 78.2639L137.262 79.3496L138.147 79.8013L137.138 80.2819L136.863 81.3717L136.253 80.583L135.199 80.8044L135.831 79.8358L135.454 78.8831L135.453 78.8833Z" fill="#E31235"/>
<path fill-rule="evenodd" clip-rule="evenodd" d="M164.634 82.2537C164.748 82.3106 164.88 82.3515 165.031 82.3663C165.904 82.4506 166.636 82.0971 167.421 82.1067C167.81 82.1116 168.495 82.3659 169.088 82.621C169.081 82.7732 169.077 82.9251 169.077 83.0757C168.726 82.8086 168.373 82.5973 168.074 82.5272C167.044 82.2833 165.487 82.733 164.489 83.3212C164.141 83.5267 163.67 83.6197 163.277 83.5834L163.092 83.1977C163.559 83.0435 164.099 82.6998 164.633 82.2538L164.634 82.2537Z" fill="#E31235"/>
<path fill-rule="evenodd" clip-rule="evenodd" d="M157.891 65.4791C158.395 65.2933 158.47 66.128 158.868 66.1762C159.531 65.3684 159.132 63.7928 160.611 63.4645C161.844 63.191 162.17 63.5737 162.478 64.3774C162.786 65.1804 162.235 66.312 161.815 66.8992C161.396 67.4871 160.818 67.9254 160.818 67.9254C161.69 68.0531 161.743 69.2485 160.529 69.6237C160.529 69.6237 160.379 71.0989 160.247 72.4186C160.216 72.7239 160.139 73.019 160.021 73.2994C159.458 73.2654 158.868 73.337 158.312 73.4541C158.282 73.4602 158.252 73.4662 158.221 73.4724C158.256 73.3646 158.268 73.2488 158.25 73.1236C158.189 72.7154 157.836 72.3125 157.448 72.2301C157.404 72.2206 157.361 72.2136 157.317 72.2081C157.344 72.162 157.371 72.1113 157.398 72.0549C157.609 71.6123 157.525 71.0623 157.305 70.6005C157.759 70.0573 158.137 69.6887 158.137 69.6887C157.579 69.0558 157.661 68.2529 158.642 68.1067C158.248 67.8075 156.839 65.8656 157.891 65.4779L157.891 65.4791Z" fill="#E31235"/>
<path fill-rule="evenodd" clip-rule="evenodd" d="M179.908 83.2331C184.692 81.0173 190.401 93.3997 165.183 100.203C154.468 103.093 147.24 104.593 144.461 104.53C141.681 104.466 140.163 102.53 140.003 101.036C139.843 99.5431 141.203 98.1414 142.13 98.1632C143.056 98.1843 143.371 99.2516 142.761 100.12C142.151 100.988 141.488 101.502 142.175 102.4C143.854 104.596 151.349 101.665 151.104 98.5638C147.616 98.3124 145.239 98.0063 142.838 94.2965C141.441 92.138 141.213 89.5547 139.185 89.1652C137.158 88.7757 136.501 91.2007 137.187 91.883C137.873 92.5655 138.725 92.1727 138.787 91.8806C138.787 91.8806 138.342 91.9806 137.987 91.6585C137.631 91.3366 137.866 90.4383 138.952 90.2866C140.037 90.1349 140.562 91.8972 139.364 92.8238C138.166 93.7511 135.717 93.7614 135.68 90.4368C135.642 86.9339 140.074 85.9439 141.869 86.2203C146.871 86.9907 148.316 88.437 154.192 87.4897C153.044 87.4902 151.701 87.6118 151.026 87.4118C150.961 87.2744 150.499 84.8537 150.527 82.7614C150.551 81.0328 150.95 79.4105 151.337 78.9398C151.857 78.3075 150.225 78.1567 151.157 77.3601C151.157 77.3601 149.51 78.087 148.723 78.1767C147.936 78.267 147.019 77.6868 146.46 77.8601C145.96 78.0151 145.599 78.4479 144.623 78.5309C144.569 78.8764 144.308 79.1947 143.961 79.3026C143.919 79.3156 143.877 79.3246 143.836 79.3309C143.313 79.8926 142.388 80.5618 142.009 80.0822C142.253 80.1006 142.418 80.0366 142.6 79.7236C142.094 80.0212 141.912 79.8091 141.585 79.3746C141.902 79.542 142.372 79.4022 142.422 79.1638C142.044 79.2528 141.72 79.142 141.634 78.5267C141.93 78.8587 142.218 78.8971 142.675 78.6388C142.382 78.6866 142.14 78.4911 142.185 78.1751C142.447 78.333 142.878 78.2129 143.252 78.0815C143.37 77.9234 143.537 77.7982 143.729 77.7386C144.08 77.6293 144.411 77.7696 144.556 78.0593C144.75 77.9528 144.957 77.8011 145.156 77.5849C145.872 76.8078 146.138 76.9415 146.866 76.8696C147.594 76.7984 148.047 76.7356 148.416 76.4197C148.785 76.1051 149.335 75.0392 149.41 74.1984C149.486 73.3576 150.515 71.6806 151.994 71.0674C153.473 70.4549 154.201 70.6921 154.201 70.6921C154.201 70.6921 154.22 70.6091 154.745 70.3077C155.269 70.0057 155.799 70.1506 156.207 70.4097C156.614 70.6687 156.949 71.4754 156.785 71.8195C156.621 72.1635 156.307 72.23 156.236 72.3751C156.165 72.5203 156.235 72.8847 156.391 72.8979C156.547 72.911 157.005 72.8927 157.212 72.9362C157.419 72.9804 157.553 73.2625 157.564 73.3362C157.575 73.4099 157.122 73.7819 157.122 73.7819C157.122 73.7819 157.341 73.8067 157.466 73.9223C157.591 74.0379 157.556 74.3263 157.556 74.3263C157.556 74.3263 157.571 74.3214 158.347 74.158C162.212 74.1235 161.031 77.3061 161.432 78.3614C161.456 78.424 160.987 78.14 160.929 78.1326C159.24 76.592 156.697 78.2019 156.304 77.71C156.643 78.504 157.842 77.405 159.734 77.8551C160.22 77.9709 161.664 78.8306 161.664 78.8306C162.719 77.8791 163.616 77.4479 164.674 76.2928C164.082 75.6133 164.754 74.6943 165.526 74.4552C166.144 74.2634 166.643 75.0344 166.643 75.0344C166.643 75.0344 167.219 73.7295 168.732 73.1369C170.245 72.5445 170.072 73.1385 170.085 73.4427C170.1 73.7469 170.063 74.3291 170.508 74.5303C170.954 74.7314 170.454 75.4113 169.996 75.6455C169.538 75.8804 169.27 76.5111 168.558 76.4849C167.847 76.4585 167.977 76.5644 167.468 76.3984C168.625 77.5896 167.302 79.0711 166.594 78.5516C166.354 79.7864 164.103 82.2618 162.861 82.5476C161.7 82.8152 160.833 83.1455 159.441 82.42C160.358 83.452 161.021 83.1567 162.187 83.0177L162.773 84.2413C162.773 84.2413 163.768 84.5191 164.759 83.9341C165.75 83.3491 167.092 83.0561 167.825 83.2301C168.559 83.4039 169.991 84.9654 169.991 84.9654C169.991 84.9654 169.139 81.7118 170.782 79.2895C171.71 77.9203 173.643 76.707 175.213 76.7105C178.556 76.7188 179.877 81.2397 176.733 82.6894C174.774 83.5931 172.139 81.9547 174.043 79.8189C175.156 78.5717 176.68 79.3917 175.977 80.4262C175.274 81.4609 176.621 81.3783 176.917 80.5979C177.214 79.8173 177.218 78.7087 175.759 78.4208C174.3 78.1329 172.566 79.1026 172.276 81.3989C171.985 83.6953 174.003 83.8862 174.776 86.3857C175.643 89.191 173.889 90.5116 171.704 92.1959C176.837 99.1219 184.695 86.5307 181.348 86.3034C180.042 86.2146 181.124 87.8268 179.088 88.8114C177.436 89.6106 175.817 85.1267 179.908 83.2324L179.908 83.2331ZM146.223 86.5961L147.754 85.9437L147.515 85.0456L147.309 84.2687L146.883 84.4499L144.331 85.5376L144.523 86.2598C144.897 86.3182 145.268 86.3876 145.639 86.4655C145.834 86.5067 146.029 86.5507 146.223 86.5953L146.223 86.5961ZM150.401 85.2814L148.29 86.1807L148.543 87.1329C149.298 87.2835 150.011 87.3764 150.724 87.4C150.668 87.1152 150.625 86.8188 150.601 86.6685C150.526 86.2094 150.46 85.7462 150.401 85.2814ZM147.94 84.8645L148.179 85.7625L150.347 84.8385C150.323 84.6338 150.301 84.4287 150.28 84.224C150.241 83.8358 150.206 83.4409 150.182 83.0437L148.159 83.9057L147.734 84.0869L147.94 84.8638L147.94 84.8645ZM147.539 83.8277C147.712 83.7542 147.815 83.5566 147.77 83.3856L147.765 83.3657C147.747 83.2967 147.706 83.2433 147.654 83.2087C147.759 83.0034 148.322 81.9704 148.762 82.2786C149.25 82.621 148.208 83.5711 148.208 83.5711C150.145 82.7238 149.381 81.7324 148.858 81.5351C148.335 81.3385 148.23 81.7446 148.23 81.7446L147.562 83.1695C147.502 83.1566 147.436 83.1622 147.37 83.1906L147.104 83.3035C147.038 83.3313 146.982 83.3779 146.941 83.434L145.729 82.8109C145.729 82.8109 145.451 82.5677 145.129 83.1249C144.806 83.6822 144.672 85.0573 146.618 84.2486C146.618 84.2486 145.335 84.2887 145.561 83.643C145.764 83.0599 146.704 83.4522 146.887 83.5352C146.861 83.6032 146.855 83.6766 146.874 83.7454L146.879 83.766C146.924 83.9362 147.101 84.0145 147.274 83.9405L147.539 83.8275L147.539 83.8277ZM148.041 87.0263L147.871 86.3849L146.963 86.772C147.321 86.8589 147.68 86.9458 148.041 87.0263ZM152.534 98.5987C155.288 98.4125 157.739 97.8206 160.225 97.1932C161.024 101.27 152.084 102.801 152.534 98.5987ZM163.114 96.2794C165.28 95.5562 167.406 94.7532 169.465 93.62C171.9 96.3441 165.852 100.328 163.114 96.2794Z" fill="#E31235"/>
<path fill-rule="evenodd" clip-rule="evenodd" d="M211.022 69.2203C202.53 68.7363 188.522 65.4045 170.344 73.3816C170.347 73.4065 170.35 73.4294 170.354 73.4482C170.395 73.6462 170.475 73.8345 170.573 74.0065C191.046 64.6852 206.754 69.905 210.977 69.7347L211.022 69.2197L211.022 69.2203Z" fill="#E31235"/>
<path d="M218.324 69.1213C222.333 68.8489 234.166 68.1178 237.651 67.1612L237.704 67.6462C234.219 68.6066 222.44 69.429 218.433 69.6972L218.324 69.1206L218.324 69.1213Z" fill="#E31235"/>
<path d="M244.355 65.6184C247.507 64.1344 249.67 62.0976 251.426 59.5869C254.63 55.0073 257.724 50.5834 268.44 52.6343L268.718 53.1166C258.334 51.1292 254.905 55.4115 251.814 59.8316C250.01 62.4101 247.798 64.5157 244.499 66.07L244.355 65.6184Z" fill="#E31235"/>
<path d="M274.955 52.219C281.921 50.6551 284.425 52.097 286.271 53.266C287.843 54.2612 289.861 55.1987 294.669 54.1788L294.636 54.5711C289.635 55.6311 287.604 54.7467 285.956 53.7033C284.183 52.581 281.922 51.1791 275.152 52.6992L274.955 52.2183L274.955 52.219Z" fill="#E31235"/>
</g>
<defs>
<linearGradient id="paint0_linear_307_738" x1="183.902" y1="3.69653" x2="65.6597" y2="85.6684" gradientUnits="userSpaceOnUse">
<stop stop-color="#4AC4D7" stop-opacity="0"/>
<stop offset="1" stop-color="#4AC4D7"/>
</linearGradient>
<clipPath id="clip0_307_738">
<rect width="212.957" height="82.7199" fill="white" transform="matrix(0.98035 -0.197267 0.0414774 0.999139 105.499 42.9911)"/>
</clipPath>
</defs>
</svg>
