<svg width="1516" height="378" viewBox="0 0 1516 378" fill="none" xmlns="http://www.w3.org/2000/svg">
<rect width="642.805" height="118.478" transform="matrix(0.987688 -0.156434 0 1 440.349 248.656)" fill="#E31235"/>
<path d="M541.447 273.771V307.713L534.539 308.808V280.343L521.069 282.476V310.941L514.162 312.035V278.092L541.447 273.771ZM575.018 284.632V286.241C575.018 288.821 574.672 291.191 573.982 293.352C573.291 295.513 572.316 297.416 571.057 299.06C569.799 300.69 568.294 302.024 566.544 303.062C564.81 304.099 562.883 304.784 560.765 305.12C558.662 305.453 556.736 305.377 554.986 304.893C553.251 304.406 551.747 303.549 550.473 302.321C549.199 301.077 548.208 299.486 547.502 297.546C546.812 295.604 546.466 293.343 546.466 290.763V289.154C546.466 286.559 546.812 284.189 547.502 282.043C548.193 279.882 549.168 277.979 550.427 276.335C551.701 274.688 553.205 273.346 554.94 272.31C556.69 271.271 558.616 270.585 560.719 270.252C562.837 269.916 564.764 269.992 566.498 270.479C568.248 270.963 569.753 271.828 571.011 273.074C572.285 274.318 573.268 275.911 573.959 277.853C574.665 279.777 575.018 282.037 575.018 284.632ZM568.041 287.346V285.691C568.041 283.888 567.88 282.328 567.557 281.011C567.235 279.695 566.759 278.62 566.13 277.787C565.501 276.955 564.733 276.377 563.827 276.054C562.922 275.716 561.886 275.639 560.719 275.824C559.552 276.008 558.516 276.413 557.611 277.039C556.72 277.646 555.96 278.466 555.331 279.498C554.717 280.527 554.249 281.752 553.926 283.17C553.604 284.589 553.443 286.2 553.443 288.003V289.658C553.443 291.445 553.604 293.005 553.926 294.337C554.249 295.654 554.725 296.736 555.354 297.585C555.983 298.417 556.751 299.003 557.657 299.341C558.562 299.68 559.598 299.756 560.765 299.572C561.932 299.387 562.968 298.982 563.873 298.357C564.779 297.731 565.539 296.904 566.153 295.874C566.767 294.829 567.235 293.597 567.557 292.178C567.88 290.744 568.041 289.133 568.041 287.346ZM605.803 292.065V297.52L581.649 301.346V295.891L605.803 292.065ZM583.698 295.566V309.344L577.205 310.372L576.837 296.653L583.698 295.566ZM610.776 291.278L610.177 305.173L603.846 306.176V292.375L610.776 291.278ZM602.003 264.179V269.658L585.863 272.214V266.736L602.003 264.179ZM606.931 263.399V297.342L600.046 298.432V264.489L606.931 263.399ZM585.011 266.871L591.918 265.777L591.02 279.743C590.882 282.05 590.637 284.109 590.284 285.921C589.946 287.715 589.531 289.312 589.04 290.711C588.564 292.107 588.035 293.349 587.451 294.436C586.868 295.507 586.254 296.459 585.609 297.292C584.965 298.109 584.312 298.849 583.652 299.513C582.992 300.162 582.347 300.769 581.718 301.335L577.758 301.962V296.507L579.3 296.263C579.746 295.819 580.214 295.232 580.705 294.502C581.212 293.769 581.687 292.815 582.133 291.641C582.593 290.449 582.992 288.972 583.33 287.209C583.683 285.443 583.944 283.32 584.113 280.837L585.011 266.871ZM628.345 265.812L619.226 295.394L611.881 296.558L624.338 260.642L629.012 259.902L628.345 265.812ZM635.92 292.75L626.779 266.06L626.042 260.372L630.762 259.624L643.288 291.583L635.92 292.75ZM635.505 280.181V285.659L617.799 288.464V282.985L635.505 280.181ZM659.452 276.924L650.909 278.277V272.822L659.452 271.469C660.772 271.26 661.846 270.872 662.675 270.306C663.504 269.724 664.111 269.006 664.494 268.153C664.878 267.299 665.07 266.375 665.07 265.381C665.07 264.37 664.878 263.46 664.494 262.651C664.111 261.841 663.504 261.238 662.675 260.841C661.846 260.444 660.772 260.35 659.452 260.559L653.304 261.533V289.997L646.396 291.091V257.148L659.452 255.08C662.077 254.665 664.326 254.79 666.198 255.457C668.086 256.106 669.529 257.191 670.527 258.711C671.525 260.232 672.024 262.072 672.024 264.233C672.024 266.424 671.525 268.399 670.527 270.158C669.529 271.917 668.086 273.381 666.198 274.55C664.326 275.717 662.077 276.508 659.452 276.924ZM683.721 251.237V285.179L676.813 286.274V252.331L683.721 251.237ZM703.476 248.108L690.628 270.075L682.178 271.413L681.303 265.327L686.944 264.434L695.095 249.435L703.476 248.108ZM696.362 283.177L686.967 269.489L691.756 263.741L704.559 281.879L696.362 283.177ZM713.93 269.391L727.4 244.319L734.307 243.224V277.167L727.4 278.261V255.322L713.93 280.395L707.022 281.489V247.546L713.93 246.452V269.391ZM778.631 264.692V270.147L754.478 273.973V268.518L778.631 264.692ZM756.527 268.193V281.971L750.034 282.999L749.665 269.28L756.527 268.193ZM783.605 263.904L783.006 277.8L776.674 278.803V265.002L783.605 263.904ZM774.832 236.806V242.284L758.691 244.841V239.362L774.832 236.806ZM779.76 236.026V269.968L772.875 271.059V237.116L779.76 236.026ZM757.839 239.497L764.747 238.403L763.849 252.37C763.711 254.676 763.465 256.736 763.112 258.548C762.774 260.342 762.36 261.938 761.869 263.337C761.393 264.734 760.863 265.975 760.28 267.062C759.697 268.134 759.083 269.086 758.438 269.918C757.793 270.736 757.141 271.476 756.481 272.14C755.821 272.789 755.176 273.396 754.547 273.962L750.586 274.589V269.134L752.129 268.89C752.574 268.446 753.042 267.859 753.534 267.128C754.04 266.395 754.516 265.442 754.961 264.268C755.422 263.076 755.821 261.599 756.159 259.836C756.512 258.07 756.773 255.946 756.941 253.464L757.839 239.497ZM814.16 246.756V248.364C814.16 250.944 813.814 253.315 813.123 255.476C812.433 257.637 811.458 259.539 810.199 261.184C808.94 262.813 807.436 264.147 805.686 265.186C803.952 266.222 802.025 266.908 799.907 267.244C797.804 267.577 795.877 267.501 794.127 267.017C792.393 266.53 790.889 265.672 789.614 264.444C788.34 263.201 787.35 261.609 786.644 259.67C785.953 257.728 785.608 255.467 785.608 252.887V251.278C785.608 248.683 785.953 246.312 786.644 244.167C787.335 242.006 788.31 240.103 789.568 238.458C790.842 236.811 792.347 235.47 794.081 234.433C795.831 233.395 797.758 232.709 799.861 232.376C801.979 232.04 803.906 232.116 805.64 232.603C807.39 233.087 808.894 233.952 810.153 235.198C811.427 236.442 812.41 238.034 813.1 239.977C813.806 241.901 814.16 244.16 814.16 246.756ZM807.183 249.469V247.814C807.183 246.011 807.022 244.452 806.699 243.135C806.377 241.819 805.901 240.744 805.272 239.911C804.642 239.078 803.875 238.5 802.969 238.178C802.063 237.839 801.027 237.762 799.861 237.947C798.694 238.132 797.658 238.537 796.752 239.162C795.862 239.77 795.102 240.589 794.473 241.621C793.859 242.651 793.391 243.875 793.068 245.294C792.746 246.713 792.585 248.324 792.585 250.126V251.782C792.585 253.569 792.746 255.129 793.068 256.461C793.391 257.777 793.866 258.86 794.496 259.708C795.125 260.541 795.893 261.127 796.798 261.465C797.704 261.803 798.74 261.88 799.907 261.695C801.073 261.511 802.11 261.106 803.015 260.48C803.921 259.855 804.681 259.028 805.295 257.998C805.909 256.953 806.377 255.721 806.699 254.302C807.022 252.868 807.183 251.257 807.183 249.469ZM846.349 225.409V259.422L839.718 260.472V234.199L831.751 238.025V232.733L845.635 225.522L846.349 225.409ZM874.89 234.946V240.821C874.89 243.369 874.621 245.611 874.084 247.546C873.546 249.465 872.771 251.095 871.758 252.437C870.76 253.76 869.571 254.811 868.189 255.59C866.808 256.368 865.273 256.891 863.584 257.158C862.233 257.372 860.974 257.401 859.808 257.243C858.641 257.071 857.59 256.686 856.653 256.088C855.732 255.488 854.934 254.674 854.259 253.646C853.599 252.601 853.092 251.313 852.739 249.784C852.386 248.255 852.209 246.464 852.209 244.413V238.538C852.209 235.989 852.478 233.763 853.015 231.86C853.568 229.938 854.343 228.316 855.341 226.992C856.354 225.666 857.551 224.621 858.933 223.859C860.314 223.08 861.849 222.558 863.538 222.29C864.889 222.076 866.14 222.057 867.291 222.232C868.458 222.389 869.509 222.759 870.446 223.341C871.382 223.923 872.18 224.737 872.84 225.782C873.5 226.812 874.007 228.092 874.36 229.621C874.713 231.135 874.89 232.91 874.89 234.946ZM868.235 242.76V235.091C868.235 233.863 868.166 232.801 868.028 231.906C867.905 231.009 867.713 230.262 867.452 229.666C867.191 229.055 866.869 228.577 866.485 228.234C866.101 227.891 865.664 227.665 865.173 227.556C864.682 227.447 864.137 227.441 863.538 227.535C862.786 227.655 862.118 227.908 861.535 228.296C860.967 228.681 860.483 229.231 860.084 229.947C859.685 230.648 859.378 231.551 859.163 232.658C858.964 233.746 858.864 235.052 858.864 236.575V244.245C858.864 245.472 858.925 246.543 859.048 247.456C859.186 248.367 859.386 249.135 859.647 249.762C859.923 250.371 860.245 250.856 860.614 251.218C860.998 251.561 861.435 251.787 861.926 251.896C862.433 252.002 862.985 252.008 863.584 251.913C864.321 251.796 864.973 251.545 865.541 251.16C866.125 250.757 866.616 250.197 867.015 249.481C867.429 248.747 867.736 247.828 867.936 246.724C868.135 245.62 868.235 244.299 868.235 242.76ZM907.893 229.719V235.593C907.893 238.142 907.625 240.384 907.088 242.318C906.55 244.237 905.775 245.868 904.762 247.209C903.764 248.533 902.575 249.584 901.193 250.362C899.812 251.141 898.277 251.663 896.588 251.931C895.237 252.145 893.978 252.173 892.812 252.016C891.645 251.843 890.594 251.458 889.657 250.86C888.736 250.26 887.938 249.447 887.263 248.419C886.603 247.373 886.096 246.086 885.743 244.557C885.39 243.027 885.213 241.237 885.213 239.185V233.311C885.213 230.762 885.482 228.536 886.019 226.632C886.572 224.711 887.347 223.088 888.345 221.765C889.358 220.439 890.555 219.394 891.937 218.631C893.318 217.853 894.853 217.33 896.542 217.063C897.893 216.849 899.144 216.829 900.295 217.005C901.462 217.162 902.513 217.531 903.45 218.113C904.386 218.696 905.184 219.509 905.844 220.555C906.504 221.585 907.011 222.865 907.364 224.394C907.717 225.908 907.893 227.683 907.893 229.719ZM901.239 237.533V229.863C901.239 228.636 901.17 227.574 901.032 226.679C900.909 225.782 900.717 225.035 900.456 224.439C900.195 223.828 899.873 223.35 899.489 223.007C899.105 222.664 898.668 222.438 898.177 222.329C897.686 222.22 897.141 222.213 896.542 222.308C895.79 222.427 895.122 222.681 894.539 223.068C893.971 223.454 893.487 224.004 893.088 224.72C892.689 225.421 892.382 226.324 892.167 227.43C891.968 228.519 891.868 229.825 891.868 231.348V239.017C891.868 240.245 891.929 241.316 892.052 242.229C892.19 243.139 892.39 243.908 892.651 244.535C892.927 245.144 893.249 245.629 893.618 245.99C894.001 246.334 894.439 246.56 894.93 246.668C895.437 246.775 895.989 246.78 896.588 246.686C897.325 246.569 897.977 246.318 898.545 245.933C899.128 245.529 899.62 244.97 900.019 244.254C900.433 243.52 900.74 242.601 900.94 241.497C901.139 240.393 901.239 239.072 901.239 237.533ZM934.971 225.43V231.305C934.971 233.853 934.703 236.095 934.165 238.03C933.628 239.949 932.853 241.579 931.84 242.921C930.842 244.244 929.652 245.295 928.271 246.074C926.889 246.852 925.354 247.375 923.666 247.642C922.315 247.856 921.056 247.884 919.89 247.727C918.723 247.555 917.672 247.169 916.735 246.572C915.814 245.972 915.016 245.158 914.341 244.13C913.681 243.085 913.174 241.797 912.821 240.268C912.468 238.739 912.291 236.948 912.291 234.897V229.022C912.291 226.473 912.56 224.247 913.097 222.344C913.65 220.422 914.425 218.8 915.423 217.476C916.436 216.15 917.633 215.105 919.015 214.343C920.396 213.564 921.931 213.041 923.62 212.774C924.971 212.56 926.222 212.541 927.373 212.716C928.54 212.873 929.591 213.243 930.527 213.825C931.464 214.407 932.262 215.221 932.922 216.266C933.582 217.296 934.089 218.576 934.442 220.105C934.795 221.619 934.971 223.394 934.971 225.43ZM928.317 233.244V225.575C928.317 224.347 928.248 223.285 928.11 222.39C927.987 221.493 927.795 220.746 927.534 220.15C927.273 219.539 926.951 219.061 926.567 218.718C926.183 218.375 925.746 218.149 925.255 218.04C924.763 217.931 924.219 217.925 923.62 218.019C922.868 218.138 922.2 218.392 921.617 218.78C921.049 219.165 920.565 219.715 920.166 220.431C919.767 221.132 919.46 222.035 919.245 223.142C919.045 224.23 918.946 225.536 918.946 227.059V234.729C918.946 235.956 919.007 237.027 919.13 237.94C919.268 238.851 919.468 239.619 919.729 240.246C920.005 240.855 920.327 241.34 920.696 241.702C921.079 242.045 921.517 242.271 922.008 242.38C922.515 242.486 923.067 242.492 923.666 242.397C924.403 242.28 925.055 242.029 925.623 241.644C926.206 241.241 926.698 240.681 927.097 239.965C927.511 239.231 927.818 238.312 928.018 237.208C928.217 236.104 928.317 234.783 928.317 233.244ZM962.049 221.141V227.016C962.049 229.565 961.781 231.806 961.243 233.741C960.706 235.66 959.931 237.29 958.918 238.632C957.92 239.956 956.73 241.006 955.349 241.785C953.967 242.563 952.432 243.086 950.744 243.353C949.393 243.567 948.134 243.596 946.968 243.439C945.801 243.266 944.749 242.881 943.813 242.283C942.892 241.683 942.094 240.869 941.418 239.842C940.758 238.796 940.252 237.509 939.899 235.979C939.546 234.45 939.369 232.66 939.369 230.608V224.733C939.369 222.184 939.638 219.958 940.175 218.055C940.728 216.133 941.503 214.511 942.501 213.187C943.514 211.861 944.711 210.817 946.093 210.054C947.474 209.276 949.009 208.753 950.698 208.485C952.049 208.271 953.3 208.252 954.451 208.427C955.617 208.584 956.669 208.954 957.605 209.536C958.542 210.118 959.34 210.932 960 211.978C960.66 213.008 961.167 214.287 961.52 215.817C961.873 217.33 962.049 219.105 962.049 221.141ZM955.395 228.956V221.286C955.395 220.058 955.326 218.997 955.188 218.102C955.065 217.204 954.873 216.457 954.612 215.862C954.351 215.25 954.029 214.773 953.645 214.429C953.261 214.086 952.824 213.86 952.333 213.751C951.841 213.643 951.296 213.636 950.698 213.731C949.946 213.85 949.278 214.103 948.695 214.491C948.127 214.876 947.643 215.427 947.244 216.143C946.845 216.843 946.538 217.746 946.323 218.853C946.123 219.941 946.024 221.247 946.024 222.77V230.44C946.024 231.668 946.085 232.738 946.208 233.651C946.346 234.562 946.545 235.331 946.806 235.958C947.083 236.567 947.405 237.052 947.773 237.413C948.157 237.756 948.595 237.982 949.086 238.091C949.593 238.197 950.145 238.203 950.744 238.108C951.481 237.991 952.133 237.74 952.701 237.355C953.284 236.952 953.775 236.392 954.175 235.676C954.589 234.942 954.896 234.024 955.096 232.92C955.295 231.816 955.395 230.494 955.395 228.956ZM990.486 224.494L972.848 227.287V221.832L990.324 219.064C991.752 218.838 992.888 218.433 993.732 217.848C994.592 217.261 995.213 216.541 995.597 215.688C995.981 214.819 996.173 213.871 996.173 212.846C996.173 211.836 995.966 210.944 995.551 210.17C995.152 209.378 994.53 208.793 993.686 208.414C992.857 208.017 991.798 207.92 990.509 208.125L984.407 209.091V237.555L977.499 238.65V204.707L990.486 202.65C993.126 202.232 995.382 202.348 997.255 203C999.143 203.649 1000.59 204.724 1001.61 206.227C1002.62 207.729 1003.13 209.553 1003.13 211.698C1003.13 213.951 1002.6 215.969 1001.56 217.751C1000.53 219.53 999.074 220.996 997.186 222.15C995.313 223.302 993.08 224.083 990.486 224.494ZM991.752 226.205V231.66L972.848 234.654V229.199L991.752 226.205Z" fill="white"/>
<rect width="384.649" height="10" transform="matrix(0.987688 -0.156434 0 1 1136.09 188.525)" fill="url(#paint0_linear_302_735)"/>
<rect width="384.649" height="10" transform="matrix(0.987688 -0.156434 0 1 0 367.561)" fill="url(#paint1_linear_302_735)"/>
<g clip-path="url(#clip0_302_735)">
<path fill-rule="evenodd" clip-rule="evenodd" d="M834.399 166.238C834.129 166.369 833.854 166.47 833.585 166.558C833.366 166.765 833.128 166.998 832.881 167.247C832.818 167.807 832.873 168.642 832.459 169.081C831.709 169.876 830.004 170.744 829.894 171.118C829.704 171.864 829.817 172.384 830.302 173.65C831.323 176.234 831.664 176.114 833.23 173.961C834.22 172.599 833.948 171.95 834.603 169.668C834.925 168.548 836.036 167.127 837.083 165.971C836.176 166.101 835.255 166.188 834.401 166.239L834.399 166.238ZM854.949 122.491C854.412 122.373 854.176 122.24 852.575 122.348C850.975 122.455 848.51 122.914 848.51 122.914C848.51 122.914 849.641 125.034 850.935 125.414C851.999 125.727 853.195 125.143 853.598 124.932C852.619 127.843 854.983 129.812 857.435 131.578C862.367 135.133 859.077 139.446 857.056 141.495C855.036 143.543 849.659 143.211 847.683 143.222C844.281 143.241 841.524 144.168 838.934 145.817C837.982 145.855 836.756 145.274 836.515 144.468C836.177 143.332 837.95 141.374 837.95 141.374C836.956 141.579 835.206 142.286 835.005 143.582C834.787 143.212 834.827 142.739 835.072 142.185C833.946 143.1 833.933 144.021 834.273 145.225C833.913 145.228 833.761 144.959 833.746 144.506C832.223 146.906 835.986 148.482 837.676 147.682C835.196 152.834 840.607 158.951 836.994 160.728C835.098 161.66 831.885 162.317 831.885 162.317C831.885 162.317 831.542 164.271 830.554 166.121C829.567 167.97 828.2 168.421 826.957 168.789C826.402 168.992 826.889 170.72 826.195 171.456C825.357 172.344 823.45 173.315 823.326 173.735C823.113 174.569 823.241 175.15 823.783 176.566C824.925 179.456 825.305 179.32 827.056 176.914C828.163 175.391 827.859 174.665 828.59 172.114C829.322 169.564 833.72 165.613 833.72 165.613C833.72 165.613 837.22 165.482 839.607 164.795C841.994 164.107 842.796 163.708 844.384 161.935C845.974 160.161 845.589 159.05 846.324 156.982C847.057 154.914 849.734 153.629 849.734 153.629C848.205 154.563 847.068 155.824 846.848 156.718C849.462 154.066 855.583 155.444 860.597 154.577C861.079 154.494 861.542 154.453 861.991 154.413C862.039 152.224 862.842 153.226 862.716 150.668C863.584 152.56 861.868 154.191 862.571 155.28C862.803 155.64 868.212 153.482 871.575 152.386C872.571 152.061 873.643 152.193 873.225 153.372C872.935 155.739 871.524 158.203 871.524 158.203C871.524 158.203 871.91 160.162 871.365 160.748C870.821 161.334 869.11 161.46 869.52 164.614C869.949 167.91 869.632 168.952 873.546 164.506C875.048 162.8 874.723 160.436 874.931 159.079C875.138 157.721 877.47 150.758 877.246 148.162C877.294 147.873 876.31 147.604 876.117 147.598C875.068 147.565 872.339 148.078 871.376 148.099C873.263 146.523 877.635 144.299 879.721 143.415C879.735 145.737 878.346 149.332 878.346 149.332C878.346 149.332 879.015 151.176 878.52 151.812C878.025 152.448 876.241 152.786 877.096 155.781C877.99 158.91 877.797 159.958 881.322 155.163C882.674 153.323 882.014 151.083 882.052 149.744C882.088 148.406 882.97 141.749 882.387 139.27C882.399 138.984 882.045 138.627 881.558 138.743C879.289 139.284 875.609 141.507 872.672 142.351C873.361 131.315 867.801 130.37 863.632 128.172C863.186 128.425 861.006 130.029 859.365 128.761C861.707 129.476 864.161 127.305 865.273 125.819C866.26 126.83 868.338 125.853 869.206 124.953C869.981 124.152 870.426 122.792 870.3 121.673C870.289 121.576 870.072 121.199 869.765 121.234C866.829 121.557 865.288 120.991 864.177 120.536C862.972 120.041 862.186 119.679 860.27 119.768C859.873 119.787 858.061 120.309 857.211 120.819C857.087 120.566 856.972 120.377 856.972 120.377C856.972 120.377 856.754 119.879 857.01 119.523C857.266 119.166 858.545 117.833 859.906 117.458C861.269 117.082 862.622 116.286 863.361 115.66C864.1 115.034 864.658 114.009 863.69 114.167C862.723 114.325 861.639 115.389 861.218 115.584C860.798 115.779 860.244 115.92 860.244 115.92C860.244 115.92 861.426 114.329 861.644 113.628C861.861 112.928 861.448 111.914 860.686 112.341C859.923 112.769 859.904 113.66 859.494 114.671C859.083 115.682 858.777 116.203 857.69 117.088C856.602 117.973 856.222 118.541 855.505 118.889C854.789 119.237 854.078 119.406 854.078 119.406C854.078 119.406 855.784 116.9 856.266 115.447C856.748 113.993 856.111 110.549 855.047 109.754C853.984 108.959 853.832 109.763 854.465 111.276C855.097 112.788 855.173 114.401 853.923 116.461C852.673 118.521 852.36 119.805 849.984 120.052C847.609 120.3 846.067 118.873 845.655 118.09C845.241 117.305 844.722 115.598 846.073 114.19C847.424 112.783 849.182 110.664 849.166 109.118C849.15 107.571 847.982 107.022 847.596 108.38C847.211 109.738 847.408 110.991 846.074 111.849C844.741 112.707 844.387 113.159 843.89 111.417C843.395 109.676 843.19 108.372 842.298 108.835C841.406 109.299 841.761 109.801 842.44 111.491C843.12 113.182 843.979 115.013 843.505 116.314C843.032 117.615 842.301 117.599 841.939 116.093C841.579 114.586 841.668 110.886 840.654 109.806C839.639 108.725 838.608 108.928 839.039 110.333C839.47 111.739 840.882 114.058 840.638 115.458C840.393 116.86 839.376 118.12 838.401 116.92C837.426 115.72 838.569 113.169 838.531 112.149C838.492 111.128 836.657 111.359 836.576 113.477C836.494 115.596 836.604 116.083 836.604 116.083C836.604 116.083 835.529 116.134 835.062 114.658C834.597 113.181 834.736 112.516 833.617 113.125C832.498 113.733 833.074 115.697 834.347 117.386C835.62 119.076 836.542 119.339 839.503 119.474C842.463 119.61 843 120.061 844.979 121.065C846.958 122.07 848.983 122.3 851.326 122.008C853.669 121.716 855.109 121.752 855.356 122.091C855.314 122.119 855.152 122.216 854.941 122.498L854.949 122.491ZM844.661 162.523C846.113 162.045 846.809 161.579 848.002 160.249C849.332 158.765 849.496 156.951 849.786 155.952C848.872 156.146 847.917 156.49 847.261 157.156L846.744 157.682C846.224 159.469 846.421 160.562 844.826 162.343C844.771 162.405 844.716 162.466 844.662 162.524L844.661 162.523Z" fill="#E31235"/>
<path fill-rule="evenodd" clip-rule="evenodd" d="M887.515 162.754C887.245 162.884 886.972 162.986 886.7 163.074C886.481 163.282 886.244 163.514 885.997 163.764C885.934 164.325 885.989 165.158 885.575 165.597C884.825 166.391 883.12 167.26 883.01 167.634C882.82 168.379 882.933 168.899 883.417 170.165C884.438 172.75 884.78 172.628 886.343 170.476C887.333 169.114 887.062 168.465 887.716 166.183C888.037 165.064 889.148 163.643 890.196 162.486C889.289 162.617 888.368 162.702 887.514 162.754L887.515 162.754ZM908.067 119.007C907.529 118.889 907.292 118.756 905.693 118.864C904.092 118.971 901.627 119.43 901.627 119.43C901.627 119.43 902.758 121.55 904.052 121.93C905.118 122.243 906.312 121.659 906.715 121.448C905.736 124.359 908.1 126.328 910.552 128.095C915.486 131.65 912.194 135.964 910.174 138.012C908.153 140.061 902.776 139.728 900.801 139.74C897.398 139.758 894.642 140.684 892.051 142.333C891.098 142.37 889.873 141.789 889.632 140.984C889.295 139.848 891.066 137.89 891.066 137.89C890.072 138.095 888.322 138.801 888.121 140.098C887.904 139.728 887.943 139.255 888.188 138.702C887.061 139.617 887.049 140.538 887.39 141.741C887.029 141.744 886.877 141.475 886.862 141.023C885.34 143.422 889.102 144.998 890.793 144.198C888.312 149.35 893.725 155.468 890.111 157.244C888.215 158.176 885.002 158.833 885.002 158.833C885.002 158.833 884.659 160.787 883.671 162.637C882.684 164.486 881.317 164.937 880.075 165.306C879.52 165.51 880.007 167.237 879.313 167.973C878.476 168.861 876.569 169.832 876.443 170.252C876.232 171.086 876.358 171.667 876.9 173.083C878.042 175.973 878.423 175.837 880.173 173.431C881.282 171.908 880.976 171.182 881.709 168.63C882.44 166.08 886.838 162.129 886.838 162.129C886.838 162.129 890.338 161.998 892.726 161.311C895.113 160.624 895.914 160.224 897.504 158.45C899.094 156.677 898.708 155.566 899.442 153.498C900.177 151.43 902.853 150.145 902.853 150.145C901.324 151.08 900.187 152.34 899.967 153.235C902.58 150.583 908.701 151.961 913.716 151.094C914.198 151.01 914.662 150.971 915.11 150.93C915.158 148.741 915.96 149.743 915.835 147.185C916.702 149.077 914.986 150.708 915.69 151.797C915.923 152.155 921.331 149.999 924.694 148.903C925.69 148.578 926.763 148.71 926.345 149.888C926.056 152.254 924.644 154.718 924.644 154.718C924.644 154.718 925.03 156.677 924.486 157.263C923.94 157.85 922.231 157.976 922.641 161.129C923.07 164.425 922.753 165.467 926.667 161.022C928.169 159.315 927.844 156.951 928.052 155.594C928.259 154.236 930.591 147.273 930.367 144.677C930.415 144.388 929.431 144.119 929.24 144.112C928.189 144.079 925.46 144.592 924.499 144.612C926.386 143.036 930.757 140.812 932.844 139.929C932.856 142.251 931.468 145.846 931.468 145.846C931.468 145.846 932.139 147.689 931.642 148.326C931.148 148.962 929.363 149.3 930.219 152.295C931.114 155.423 930.92 156.47 934.445 151.677C935.798 149.838 935.138 147.596 935.174 146.257C935.21 144.919 936.094 138.263 935.509 135.784C935.521 135.498 935.167 135.141 934.68 135.257C932.411 135.798 928.732 138.022 925.794 138.865C926.483 127.829 920.923 126.882 916.754 124.684C916.308 124.937 914.128 126.541 912.487 125.275C914.829 125.99 917.283 123.819 918.395 122.333C919.384 123.343 921.46 122.365 922.329 121.466C923.103 120.664 923.55 119.305 923.422 118.187C923.412 118.09 923.194 117.713 922.887 117.747C919.953 118.07 918.41 117.505 917.299 117.049C916.094 116.555 915.308 116.192 913.392 116.282C912.995 116.301 911.184 116.822 910.334 117.332C910.21 117.079 910.095 116.891 910.095 116.891C910.095 116.891 909.875 116.393 910.132 116.036C910.389 115.679 911.668 114.346 913.029 113.971C914.39 113.596 915.745 112.799 916.483 112.173C917.221 111.548 917.78 110.522 916.811 110.681C915.844 110.839 914.76 111.903 914.34 112.098C913.92 112.293 913.366 112.434 913.366 112.434C913.366 112.434 914.548 110.843 914.765 110.143C914.982 109.443 914.569 108.428 913.807 108.856C913.046 109.284 913.025 110.175 912.615 111.186C912.203 112.198 911.898 112.718 910.811 113.603C909.723 114.488 909.343 115.057 908.626 115.404C907.91 115.752 907.199 115.921 907.199 115.921C907.199 115.921 908.905 113.415 909.387 111.962C909.868 110.509 909.23 107.065 908.169 106.269C907.105 105.474 906.953 106.277 907.587 107.79C908.22 109.304 908.296 110.916 907.045 112.976C905.795 115.036 905.483 116.32 903.108 116.566C900.732 116.814 899.191 115.389 898.777 114.605C898.364 113.821 897.844 112.113 899.195 110.707C900.547 109.299 902.304 107.18 902.288 105.634C902.274 104.087 901.104 103.539 900.718 104.896C900.333 106.255 900.531 107.507 899.197 108.365C897.863 109.224 897.511 109.675 897.014 107.933C896.517 106.192 896.314 104.887 895.422 105.351C894.53 105.815 894.885 106.316 895.564 108.007C896.243 109.696 897.101 111.529 896.628 112.83C896.156 114.131 895.425 114.115 895.063 112.61C894.702 111.103 894.791 107.404 893.777 106.323C892.763 105.242 891.732 105.444 892.163 106.85C892.593 108.255 894.006 110.575 893.762 111.975C893.517 113.376 892.5 114.638 891.525 113.437C890.551 112.237 891.693 109.686 891.654 108.665C891.616 107.644 889.781 107.875 889.699 109.993C889.618 112.112 889.727 112.599 889.727 112.599C889.727 112.599 888.652 112.65 888.187 111.173C887.72 109.697 887.861 109.032 886.742 109.639C885.622 110.247 886.198 112.211 887.472 113.901C888.745 115.591 889.667 115.853 892.627 115.989C895.588 116.125 896.125 116.575 898.103 117.58C900.082 118.585 902.108 118.815 904.451 118.523C906.794 118.23 908.232 118.267 908.481 118.605C908.437 118.634 908.277 118.731 908.066 119.012L908.067 119.007ZM897.778 159.039C899.23 158.561 899.926 158.095 901.119 156.765C902.449 155.281 902.613 153.467 902.903 152.468C901.989 152.662 901.034 153.006 900.379 153.672L899.86 154.199C899.34 155.985 899.539 157.078 897.942 158.86C897.887 158.921 897.832 158.982 897.778 159.041L897.778 159.039Z" fill="#E31235"/>
<path fill-rule="evenodd" clip-rule="evenodd" d="M948.503 134.608C948.231 134.738 947.959 134.84 947.687 134.928C947.468 135.137 947.232 135.368 946.985 135.618C946.92 136.178 946.975 137.012 946.562 137.451C945.813 138.247 944.108 139.114 943.997 139.489C943.806 140.235 943.921 140.755 944.404 142.02C945.425 144.605 945.767 144.483 947.331 142.332C948.321 140.97 948.049 140.32 948.704 138.039C949.024 136.92 950.135 135.498 951.185 134.34C950.276 134.472 949.357 134.557 948.503 134.608ZM969.053 90.8615C968.515 90.7436 968.279 90.6106 966.679 90.7183C965.079 90.8259 962.613 91.2843 962.613 91.2843C962.613 91.2843 963.744 93.4041 965.038 93.7841C966.103 94.0973 967.298 93.5138 967.701 93.3028C966.722 96.2134 969.087 98.1824 971.538 99.9493C976.471 103.505 973.18 107.818 971.16 109.867C969.139 111.915 963.762 111.583 961.787 111.594C958.384 111.612 955.628 112.539 953.039 114.187C952.086 114.226 950.86 113.645 950.62 112.838C950.281 111.703 952.054 109.744 952.054 109.744C951.059 109.949 949.309 110.656 949.108 111.953C948.89 111.582 948.93 111.109 949.175 110.556C948.049 111.471 948.038 112.392 948.377 113.595C948.017 113.599 947.864 113.329 947.85 112.877C946.327 115.277 950.09 116.854 951.782 116.052C949.301 121.204 954.713 127.321 951.1 129.098C949.204 130.03 945.991 130.687 945.991 130.687C945.991 130.687 945.648 132.641 944.66 134.49C943.673 136.34 942.306 136.791 941.064 137.159C940.509 137.361 940.997 139.09 940.302 139.826C939.464 140.714 937.557 141.685 937.433 142.105C937.221 142.938 937.348 143.519 937.89 144.934C939.032 147.825 939.412 147.688 941.163 145.282C942.271 143.759 941.966 143.033 942.699 140.481C943.431 137.931 947.828 133.98 947.828 133.98C947.828 133.98 951.327 133.849 953.716 133.162C956.104 132.475 956.904 132.075 958.494 130.301C960.083 128.528 959.698 127.418 960.433 125.349C961.167 123.281 963.844 121.996 963.844 121.996C962.315 122.931 961.178 124.192 960.958 125.085C963.571 122.433 969.692 123.811 974.707 122.943C975.189 122.859 975.651 122.819 976.101 122.78C976.149 120.59 976.951 121.593 976.826 119.034C977.693 120.926 975.978 122.557 976.681 123.645C976.914 124.005 982.321 121.847 985.684 120.751C986.68 120.426 987.752 120.557 987.335 121.736C987.046 124.103 985.634 126.567 985.634 126.567C985.634 126.567 986.02 128.526 985.474 129.112C984.929 129.699 983.22 129.824 983.63 132.978C984.059 136.274 983.741 137.317 987.656 132.87C989.158 131.164 988.833 128.8 989.04 127.443C989.248 126.085 991.579 119.122 991.355 116.526C991.403 116.237 990.419 115.968 990.227 115.961C989.176 115.928 986.448 116.441 985.486 116.462C987.373 114.887 991.744 112.661 993.831 111.778C993.843 114.1 992.457 117.695 992.457 117.695C992.457 117.695 993.126 119.538 992.631 120.174C992.136 120.81 990.352 121.149 991.208 124.143C992.102 127.272 991.909 128.32 995.434 123.526C996.786 121.687 996.127 119.444 996.164 118.106C996.2 116.767 997.083 110.111 996.499 107.632C996.511 107.347 996.157 106.989 995.67 107.105C993.401 107.646 989.721 109.869 986.784 110.713C987.473 99.676 981.912 98.7308 977.744 96.5326C977.298 96.7859 975.118 98.3899 973.477 97.1223C975.817 97.8373 978.272 95.6663 979.385 94.1799C980.372 95.1905 982.45 94.2125 983.318 93.3144C984.093 92.5129 984.538 91.1528 984.412 90.0338C984.401 89.9359 984.183 89.5603 983.877 89.5945C980.941 89.9177 979.4 89.3536 978.288 88.8966C977.084 88.4024 976.298 88.0397 974.382 88.1303C973.985 88.1491 972.173 88.671 971.323 89.181C971.199 88.9279 971.084 88.7393 971.084 88.7393C971.084 88.7393 970.866 88.2415 971.122 87.8849C971.378 87.5279 972.657 86.195 974.018 85.8198C975.379 85.4446 976.734 84.6485 977.473 84.0218C978.212 83.3964 978.77 82.371 977.802 82.5292C976.835 82.6875 975.751 83.7512 975.331 83.9462C974.911 84.1411 974.356 84.2827 974.356 84.2827C974.356 84.2827 975.538 82.69 975.756 81.9901C975.973 81.2905 975.56 80.2759 974.798 80.7034C974.037 81.1306 974.016 82.022 973.606 83.0333C973.194 84.045 972.889 84.5648 971.802 85.45C970.716 86.335 970.334 86.9028 969.617 87.2511C968.901 87.5991 968.19 87.7668 968.19 87.7668C968.19 87.7668 969.896 85.2619 970.378 83.8089C970.86 82.3556 970.223 78.9117 969.158 78.1165C968.096 77.321 967.944 78.1257 968.577 79.6378C969.209 81.1511 969.285 82.7635 968.035 84.8233C966.785 86.8831 966.472 88.167 964.096 88.4138C961.721 88.662 960.179 87.2354 959.767 86.4519C959.353 85.6674 958.834 83.9599 960.185 82.5526C961.536 81.1454 963.294 79.0264 963.278 77.4798C963.263 75.9318 962.094 75.3839 961.708 76.7423C961.323 78.1005 961.52 79.3533 960.186 80.2116C958.853 81.0697 958.499 81.5214 958.002 79.7806C957.506 78.0399 957.302 76.735 956.41 77.199C955.518 77.663 955.873 78.1632 956.552 79.8542C957.232 81.5439 958.089 83.377 957.617 84.6775C957.144 85.9781 956.413 85.9628 956.053 84.4558C955.692 82.9501 955.78 79.2496 954.766 78.1691C953.751 77.0886 952.72 77.2907 953.151 78.6966C953.582 80.1025 954.996 82.4212 954.75 83.8215C954.505 85.2231 953.49 86.4836 952.514 85.2821C951.539 84.0819 952.682 81.5318 952.644 80.5108C952.605 79.4897 950.771 79.7212 950.689 81.8394C950.607 83.9576 950.717 84.4448 950.717 84.4448C950.717 84.4448 949.642 84.4961 949.177 83.0193C948.711 81.5424 948.851 80.8778 947.731 81.485C946.612 82.0934 947.188 84.0572 948.461 85.7469C949.735 87.4366 950.657 87.6992 953.617 87.8349C956.577 87.9706 957.115 88.421 959.092 89.426C961.071 90.4307 963.097 90.6608 965.441 90.3686C967.784 90.075 969.223 90.1127 969.47 90.4514C969.427 90.4796 969.267 90.5768 969.054 90.8586L969.053 90.8615ZM958.764 130.894C960.217 130.416 960.912 129.948 962.105 128.62C963.435 127.135 963.599 125.321 963.889 124.322C962.976 124.515 962.02 124.861 961.365 125.525L960.847 126.052C960.328 127.838 960.526 128.931 958.928 130.713C958.873 130.775 958.818 130.835 958.764 130.894Z" fill="#E31235"/>
<path fill-rule="evenodd" clip-rule="evenodd" d="M999.793 135.959C999.523 136.089 999.249 136.191 998.979 136.279C998.76 136.488 998.522 136.719 998.276 136.969C998.211 137.529 998.266 138.363 997.854 138.801C997.104 139.596 995.399 140.464 995.287 140.838C995.098 141.584 995.211 142.103 995.696 143.37C996.717 145.954 997.057 145.833 998.622 143.681C999.612 142.319 999.34 141.67 999.995 139.388C1000.32 138.269 1001.43 136.848 1002.48 135.691C1001.57 135.822 1000.65 135.908 999.794 135.959L999.793 135.959ZM1020.34 92.2121C1019.81 92.0943 1019.57 91.9612 1017.97 92.0689C1016.37 92.1766 1013.9 92.6349 1013.9 92.6349C1013.9 92.6349 1015.04 94.7547 1016.33 95.1347C1017.39 95.4479 1018.59 94.8644 1018.99 94.6522C1018.01 97.5628 1020.38 99.5317 1022.83 101.299C1027.76 104.854 1024.47 109.168 1022.45 111.215C1020.43 113.263 1015.05 112.931 1013.08 112.942C1009.68 112.961 1006.92 113.887 1004.33 115.537C1003.38 115.574 1002.15 114.994 1001.91 114.187C1001.57 113.051 1003.35 111.092 1003.35 111.092C1002.35 111.297 1000.6 112.003 1000.4 113.301C1000.18 112.93 1000.22 112.457 1000.47 111.904C999.342 112.819 999.329 113.74 999.669 114.943C999.308 114.947 999.155 114.677 999.142 114.226C997.619 116.625 1001.38 118.202 1003.07 117.401C1000.59 122.552 1006 128.671 1002.39 130.446C1000.49 131.378 997.28 132.035 997.28 132.035C997.28 132.035 996.936 133.989 995.949 135.839C994.961 137.689 993.595 138.139 992.352 138.507C991.797 138.711 992.284 140.438 991.59 141.174C990.752 142.063 988.845 143.034 988.721 143.453C988.509 144.287 988.636 144.87 989.177 146.284C990.32 149.175 990.7 149.038 992.451 146.632C993.559 145.109 993.254 144.383 993.985 141.833C994.718 139.281 999.114 135.332 999.114 135.332C999.114 135.332 1002.61 135.201 1005 134.514C1007.39 133.827 1008.19 133.426 1009.78 131.653C1011.37 129.88 1010.98 128.77 1011.72 126.701C1012.45 124.634 1015.13 123.348 1015.13 123.348C1013.6 124.283 1012.46 125.545 1012.24 126.438C1014.86 123.786 1020.98 125.164 1025.99 124.297C1026.47 124.213 1026.94 124.173 1027.38 124.133C1027.43 121.944 1028.24 122.946 1028.11 120.388C1028.98 122.28 1027.26 123.911 1027.96 125C1028.2 125.358 1033.61 123.201 1036.97 122.105C1037.96 121.78 1039.04 121.912 1038.62 123.09C1038.33 125.456 1036.92 127.92 1036.92 127.92C1036.92 127.92 1037.3 129.879 1036.76 130.466C1036.21 131.052 1034.5 131.178 1034.91 134.331C1035.34 137.628 1035.03 138.671 1038.94 134.224C1040.44 132.517 1040.12 130.154 1040.32 128.796C1040.53 127.438 1042.86 120.476 1042.64 117.879C1042.69 117.591 1041.7 117.321 1041.51 117.314C1040.46 117.283 1037.73 117.795 1036.77 117.815C1038.66 116.24 1043.03 114.015 1045.12 113.131C1045.13 115.453 1043.74 119.048 1043.74 119.048C1043.74 119.048 1044.41 120.892 1043.92 121.526C1043.42 122.162 1041.64 122.502 1042.49 125.495C1043.39 128.624 1043.19 129.672 1046.72 124.877C1048.07 123.037 1047.41 120.796 1047.45 119.458C1047.48 118.119 1048.37 111.464 1047.78 108.985C1047.79 108.699 1047.44 108.341 1046.95 108.458C1044.68 108.999 1041.01 111.221 1038.07 112.067C1038.76 101.029 1033.2 100.084 1029.03 97.886C1028.58 98.1394 1026.4 99.7434 1024.76 98.4758C1027.1 99.1905 1029.56 97.0197 1030.67 95.5333C1031.66 96.5437 1033.73 95.566 1034.6 94.6676C1035.38 93.8663 1035.82 92.5062 1035.7 91.3873C1035.69 91.2894 1035.47 90.9135 1035.16 90.948C1032.23 91.2711 1030.68 90.7058 1029.57 90.25C1028.37 89.7559 1027.58 89.3932 1025.67 89.4825C1025.27 89.5013 1023.46 90.0232 1022.61 90.5331C1022.48 90.2801 1022.37 90.0915 1022.37 90.0915C1022.37 90.0915 1022.15 89.5937 1022.41 89.237C1022.66 88.8801 1023.94 87.5472 1025.3 87.172C1026.66 86.7968 1028.02 86.0007 1028.76 85.374C1029.5 84.7486 1030.05 83.7232 1029.09 83.8814C1028.12 84.0397 1027.04 85.1034 1026.62 85.2984C1026.19 85.4933 1025.64 85.6359 1025.64 85.6359C1025.64 85.6359 1026.82 84.0445 1027.04 83.3449C1027.26 82.6452 1026.84 81.6294 1026.08 82.0582C1025.32 82.4854 1025.3 83.3767 1024.89 84.3881C1024.48 85.3995 1024.17 85.9196 1023.09 86.8048C1022 87.69 1021.62 88.2576 1020.9 88.6058C1020.18 88.9541 1019.47 89.1215 1019.47 89.1215C1019.47 89.1215 1021.18 86.6154 1021.66 85.1624C1022.14 83.7094 1021.51 80.2651 1020.44 79.4699C1019.38 78.6745 1019.23 79.4779 1019.86 80.9912C1020.49 82.5033 1020.57 84.117 1019.32 86.1768C1018.07 88.2365 1017.76 89.5205 1015.38 89.7673C1013 90.0154 1011.46 88.5889 1011.05 87.8054C1010.64 87.0222 1010.12 85.3146 1011.47 83.9074C1012.82 82.5002 1014.58 80.3811 1014.56 78.8346C1014.55 77.2868 1013.38 76.7389 1012.99 78.0971C1012.61 79.4553 1012.8 80.7081 1011.47 81.5661C1010.14 82.4242 1009.78 82.8762 1009.29 81.1339C1008.79 79.3931 1008.59 78.0883 1007.7 78.5522C1006.8 79.0162 1007.16 79.5164 1007.84 81.2074C1008.52 82.8971 1009.38 84.73 1008.9 86.0308C1008.43 87.3313 1007.7 87.316 1007.34 85.8093C1006.98 84.3036 1007.06 80.6031 1006.05 79.5226C1005.03 78.442 1004 78.6442 1004.44 80.0498C1004.87 81.4545 1006.28 83.7747 1006.04 85.1747C1005.79 86.5763 1004.77 87.8371 1003.8 86.6369C1002.82 85.4364 1003.97 82.8853 1003.93 81.8655C1003.89 80.8445 1002.05 81.076 1001.97 83.1942C1001.89 85.3124 1002 85.7996 1002 85.7996C1002 85.7996 1000.93 85.8509 1000.46 84.3743C999.994 82.8974 1000.13 82.2329 999.014 82.8413C997.895 83.4497 998.471 85.4135 999.744 87.1032C1001.02 88.7929 1001.94 89.0555 1004.9 89.1912C1007.86 89.3269 1008.4 89.7773 1010.38 90.782C1012.36 91.7867 1014.38 92.0169 1016.72 91.7246C1019.07 91.4311 1020.51 91.4688 1020.75 91.8074C1020.71 91.8357 1020.55 91.9329 1020.34 92.2144L1020.34 92.2121ZM1010.06 132.244C1011.51 131.766 1012.2 131.3 1013.4 129.971C1014.73 128.486 1014.89 126.672 1015.18 125.673C1014.27 125.867 1013.31 126.211 1012.66 126.877L1012.14 127.402C1011.62 129.189 1011.82 130.282 1010.22 132.064C1010.16 132.125 1010.11 132.186 1010.06 132.244Z" fill="#E31235"/>
<path fill-rule="evenodd" clip-rule="evenodd" d="M712.961 157.786C712.961 157.786 714.331 159.66 714.507 162.12C714.684 164.581 714.158 165.934 714.158 165.934C714.158 165.934 714.64 165.768 715.51 165.359C716.38 164.95 716.546 164.747 716.546 164.747C716.546 164.747 717.676 161.372 717.772 160.161C717.868 158.952 717.832 158.423 717.832 158.423C717.832 158.423 716.342 158.527 715.08 158.321C713.82 158.116 712.961 157.786 712.961 157.786ZM717.225 168.15C717.225 168.15 717.307 166.903 717.221 166.516C717.135 166.13 717.034 165.599 717.034 165.599C717.034 165.599 718.078 162.521 718.271 160.918C718.465 159.316 718.317 158.432 718.317 158.432C718.317 158.432 719.348 158.235 720.245 157.902C721.143 157.57 721.274 157.573 721.274 157.573C721.274 157.573 721.097 158.662 720.967 159.396C720.837 160.129 720.812 160.24 720.812 160.24C720.812 160.24 721.722 160.576 723.3 160.175C724.877 159.775 725.942 159.266 725.942 159.266C725.942 159.266 725.844 160.341 725.568 161.033C725.292 161.725 725.19 161.877 725.19 161.877C725.19 161.877 726.567 161.955 728.021 161.268C729.475 160.582 730.005 160.207 730.005 160.207C730.005 160.207 729.929 160.784 729.744 161.339C729.57 161.28 729.38 161.257 729.195 161.273C728.456 161.332 727.88 161.909 727.497 162.57C727.294 162.922 727.145 163.322 727.057 163.721C725.64 164.639 723.781 165.762 722.029 166.576C718.535 168.2 717.225 168.15 717.225 168.15ZM720.517 168.047C721.73 167.671 723.085 167.175 724.256 166.556C725.25 166.032 726.185 165.443 726.992 164.888C727.017 165.078 727.06 165.26 727.127 165.434C727.277 165.827 727.5 166.109 727.776 166.305L725.556 167.252L725.986 168.869C724.703 168.592 723.411 168.347 722.099 168.145C721.604 168.069 721.071 168.037 720.52 168.045L720.517 168.047ZM718.663 164.439C719.032 163.989 719.639 163.881 720.021 164.198C720.402 164.515 720.414 165.137 720.047 165.587C719.679 166.037 719.071 166.146 718.689 165.827C718.308 165.511 718.296 164.888 718.663 164.439ZM719.19 161.419C719.456 161.095 719.894 161.018 720.17 161.245C720.446 161.474 720.453 161.922 720.188 162.247C719.923 162.572 719.485 162.648 719.209 162.421C718.933 162.192 718.926 161.744 719.19 161.419ZM722.442 162.248L723.093 162.372L723.628 161.844L723.619 162.55L724.195 162.844L723.539 163.156L723.36 163.865L722.964 163.351L722.278 163.494L722.689 162.865L722.444 162.245L722.442 162.248ZM709.093 154.559L711.076 154.938L712.709 153.33L712.681 155.484L714.437 156.381L712.436 157.334L711.89 159.496L710.681 157.931L708.588 158.371L709.843 156.449L709.095 154.559L709.093 154.559Z" fill="#E31235"/>
<path fill-rule="evenodd" clip-rule="evenodd" d="M766.989 161.246C767.215 161.359 767.477 161.44 767.777 161.469C769.508 161.637 770.96 160.935 772.518 160.954C773.29 160.964 774.649 161.469 775.826 161.975C775.811 162.277 775.804 162.578 775.804 162.877C775.106 162.347 774.407 161.928 773.814 161.789C771.771 161.305 768.68 162.197 766.702 163.364C766.011 163.772 765.076 163.956 764.297 163.884L763.93 163.119C764.856 162.813 765.928 162.131 766.987 161.246L766.989 161.246Z" fill="#E31235"/>
<path fill-rule="evenodd" clip-rule="evenodd" d="M753.611 127.965C754.61 127.596 754.759 129.252 755.55 129.348C756.865 127.745 756.073 124.619 759.007 123.968C761.452 123.425 762.101 124.184 762.711 125.779C763.321 127.372 762.228 129.617 761.396 130.782C760.563 131.949 759.418 132.818 759.418 132.818C761.148 133.072 761.253 135.443 758.844 136.188C758.844 136.188 758.546 139.115 758.284 141.733C758.224 142.339 758.071 142.924 757.837 143.481C756.72 143.413 755.549 143.555 754.446 143.787C754.385 143.8 754.326 143.811 754.265 143.824C754.334 143.61 754.359 143.38 754.322 143.132C754.202 142.322 753.501 141.522 752.732 141.359C752.644 141.34 752.558 141.326 752.471 141.315C752.525 141.224 752.579 141.123 752.632 141.011C753.052 140.133 752.884 139.042 752.447 138.126C753.349 137.048 754.098 136.317 754.098 136.317C752.992 135.061 753.155 133.468 755.101 133.178C754.319 132.584 751.523 128.732 753.609 127.962L753.611 127.965Z" fill="#E31235"/>
<path fill-rule="evenodd" clip-rule="evenodd" d="M797.292 163.189C806.784 158.793 818.111 183.36 768.077 196.857C746.818 202.593 732.479 205.569 726.964 205.442C721.449 205.315 718.437 201.475 718.12 198.512C717.803 195.549 720.501 192.768 722.339 192.811C724.178 192.853 724.802 194.971 723.591 196.694C722.381 198.416 721.066 199.436 722.428 201.217C725.761 205.574 740.631 199.759 740.145 193.606C733.224 193.107 728.508 192.5 723.745 185.139C720.974 180.857 720.52 175.731 716.497 174.959C712.474 174.186 711.172 178.997 712.533 180.351C713.893 181.705 715.584 180.926 715.708 180.346C715.708 180.346 714.825 180.545 714.12 179.906C713.414 179.267 713.88 177.485 716.034 177.184C718.188 176.883 719.229 180.379 716.852 182.218C714.475 184.057 709.616 184.078 709.543 177.482C709.466 170.532 718.26 168.568 721.822 169.116C731.747 170.644 734.613 173.514 746.271 171.634C743.993 171.636 741.329 171.877 739.99 171.48C739.86 171.207 738.944 166.405 739 162.253C739.046 158.824 739.839 155.605 740.607 154.671C741.639 153.417 738.4 153.117 740.25 151.537C740.25 151.537 736.982 152.979 735.421 153.157C733.859 153.336 732.04 152.185 730.931 152.529C729.938 152.837 729.222 153.695 727.286 153.86C727.178 154.545 726.662 155.177 725.972 155.391C725.889 155.417 725.807 155.435 725.725 155.447C724.686 156.562 722.852 157.889 722.1 156.938C722.584 156.974 722.911 156.847 723.273 156.226C722.269 156.817 721.907 156.396 721.259 155.534C721.888 155.866 722.821 155.589 722.918 155.116C722.17 155.292 721.526 155.072 721.357 153.852C721.944 154.51 722.514 154.586 723.42 154.074C722.839 154.169 722.359 153.781 722.448 153.154C722.97 153.467 723.824 153.229 724.565 152.968C724.801 152.655 725.131 152.406 725.512 152.288C726.209 152.071 726.865 152.349 727.153 152.924C727.538 152.713 727.949 152.412 728.344 151.983C729.764 150.441 730.292 150.707 731.737 150.564C733.181 150.423 734.078 150.298 734.811 149.671C735.543 149.047 736.635 146.932 736.784 145.264C736.934 143.596 738.976 140.269 741.91 139.052C744.845 137.837 746.29 138.307 746.29 138.307C746.29 138.307 746.326 138.143 747.368 137.545C748.409 136.946 749.459 137.233 750.268 137.747C751.077 138.261 751.742 139.862 751.416 140.544C751.09 141.227 750.467 141.359 750.327 141.647C750.186 141.935 750.324 142.658 750.634 142.684C750.943 142.71 751.853 142.674 752.263 142.76C752.674 142.848 752.939 143.407 752.962 143.553C752.983 143.7 752.085 144.438 752.085 144.438C752.085 144.438 752.519 144.487 752.767 144.716C753.014 144.946 752.946 145.518 752.946 145.518C752.946 145.518 752.975 145.508 754.516 145.184C762.183 145.116 759.84 151.43 760.636 153.524C760.683 153.648 759.752 153.084 759.638 153.07C756.288 150.013 751.24 153.207 750.461 152.231C751.134 153.807 753.514 151.626 757.267 152.519C758.23 152.749 761.096 154.455 761.096 154.455C763.19 152.567 764.969 151.711 767.069 149.419C765.892 148.071 767.226 146.248 768.758 145.774C769.984 145.393 770.974 146.923 770.974 146.923C770.974 146.923 772.117 144.334 775.119 143.158C778.12 141.983 777.777 143.161 777.804 143.765C777.833 144.368 777.76 145.524 778.643 145.923C779.527 146.322 778.536 147.67 777.628 148.135C776.719 148.601 776.187 149.853 774.774 149.801C773.362 149.748 773.622 149.958 772.612 149.629C774.907 151.992 772.281 154.932 770.877 153.901C770.4 156.351 765.934 161.262 763.471 161.829C761.168 162.36 759.448 163.015 756.685 161.576C758.504 163.624 759.821 163.038 762.134 162.762L763.297 165.19C763.297 165.19 765.271 165.741 767.237 164.58C769.202 163.419 771.865 162.838 773.32 163.183C774.776 163.528 777.616 166.626 777.616 166.626C777.616 166.626 775.927 160.171 779.186 155.365C781.027 152.648 784.863 150.241 787.978 150.248C794.611 150.265 797.231 159.234 790.994 162.11C787.106 163.903 781.879 160.653 785.657 156.415C787.864 153.941 790.888 155.568 789.494 157.62C788.098 159.673 790.772 159.509 791.359 157.961C791.947 156.412 791.955 154.213 789.061 153.642C786.167 153.07 782.726 154.994 782.15 159.55C781.573 164.106 785.578 164.485 787.11 169.444C788.83 175.01 785.35 177.63 781.015 180.972C791.199 194.713 806.79 169.732 800.149 169.281C797.558 169.105 799.705 172.303 795.665 174.257C792.388 175.842 789.176 166.946 797.292 163.188L797.292 163.189ZM730.46 169.862L733.497 168.567L733.024 166.785L732.615 165.244L731.771 165.603L726.707 167.761L727.088 169.194C727.83 169.31 728.566 169.448 729.301 169.602C729.689 169.684 730.075 169.771 730.461 169.86L730.46 169.862ZM738.749 167.253L734.562 169.037L735.064 170.927C736.561 171.225 737.976 171.41 739.39 171.456C739.28 170.891 739.194 170.303 739.146 170.005C738.999 169.094 738.866 168.175 738.749 167.253ZM733.867 166.426L734.341 168.208L738.642 166.374C738.595 165.968 738.551 165.561 738.51 165.155C738.432 164.385 738.363 163.601 738.315 162.814L734.302 164.524L733.458 164.883L733.867 166.425L733.867 166.426ZM733.071 164.369C733.414 164.223 733.619 163.831 733.53 163.492L733.52 163.452C733.483 163.316 733.404 163.209 733.299 163.141C733.509 162.734 734.624 160.684 735.497 161.296C736.466 161.975 734.399 163.86 734.399 163.86C738.241 162.179 736.726 160.212 735.688 159.82C734.651 159.43 734.443 160.236 734.443 160.236L733.117 163.063C732.999 163.038 732.867 163.049 732.735 163.105L732.209 163.329C732.078 163.384 731.967 163.476 731.885 163.588L729.481 162.352C729.481 162.352 728.929 161.869 728.289 162.975C727.649 164.08 727.383 166.809 731.244 165.204C731.244 165.204 728.699 165.284 729.146 164.002C729.55 162.846 731.415 163.624 731.777 163.789C731.727 163.924 731.714 164.069 731.751 164.206L731.762 164.246C731.852 164.584 732.203 164.74 732.546 164.593L733.072 164.369L733.071 164.369ZM734.068 170.715L733.73 169.443L731.928 170.211C732.64 170.383 733.352 170.555 734.068 170.715ZM742.982 193.675C748.446 193.306 753.309 192.131 758.242 190.887C759.825 198.975 742.09 202.013 742.982 193.675ZM763.972 189.074C768.269 187.639 772.488 186.045 776.573 183.797C781.404 189.202 769.405 197.106 763.972 189.074Z" fill="#E31235"/>
<path fill-rule="evenodd" clip-rule="evenodd" d="M859.023 135.387C842.175 134.427 814.383 127.817 778.317 143.644C778.323 143.693 778.33 143.738 778.338 143.776C778.419 144.169 778.577 144.542 778.772 144.883C819.39 126.39 850.555 136.746 858.935 136.408L859.023 135.386L859.023 135.387Z" fill="#E31235"/>
<path d="M873.512 135.191C881.466 134.65 904.942 133.2 911.857 131.302L911.961 132.264C905.048 134.17 881.678 135.801 873.727 136.333L873.512 135.19L873.512 135.191Z" fill="#E31235"/>
<path d="M925.157 128.241C931.41 125.297 935.702 121.256 939.187 116.274C945.543 107.188 951.682 98.4111 972.943 102.48L973.494 103.437C952.891 99.4939 946.09 107.99 939.956 116.76C936.378 121.876 931.989 126.053 925.443 129.137L925.157 128.241Z" fill="#E31235"/>
<path d="M985.87 101.656C999.689 98.5533 1004.66 101.414 1008.32 103.733C1011.44 105.708 1015.44 107.568 1024.98 105.544L1024.92 106.323C1015 108.426 1010.96 106.671 1007.7 104.601C1004.18 102.374 999.693 99.593 986.26 102.609L985.87 101.655L985.87 101.656Z" fill="#E31235"/>
</g>
<defs>
<linearGradient id="paint0_linear_302_735" x1="364.867" y1="7.33404" x2="130.271" y2="169.969" gradientUnits="userSpaceOnUse">
<stop stop-color="#4AC4D7" stop-opacity="0"/>
<stop offset="1" stop-color="#4AC4D7"/>
</linearGradient>
<linearGradient id="paint1_linear_302_735" x1="364.867" y1="7.33404" x2="130.271" y2="169.969" gradientUnits="userSpaceOnUse">
<stop stop-color="#4AC4D7" stop-opacity="0"/>
<stop offset="1" stop-color="#4AC4D7"/>
</linearGradient>
<clipPath id="clip0_302_735">
<rect width="422.513" height="164.119" fill="white" transform="matrix(0.98035 -0.197267 0.0414774 0.999139 649.663 83.3477)"/>
</clipPath>
</defs>
</svg>
