<svg width="320" height="142" viewBox="0 0 320 142" fill="none" xmlns="http://www.w3.org/2000/svg">
<rect width="193.872" height="5.04024" transform="matrix(0.987688 -0.156434 0 1 114.917 31.2788)" fill="url(#paint0_linear_307_739)"/>
<rect width="323.989" height="59.7156" transform="matrix(0.987688 -0.156434 0 1 0 82.0582)" fill="#E31235"/>
<path d="M53.0932 94.5314V111.639L49.6116 112.191V97.8441L42.8225 98.9194V113.266L39.3409 113.818V96.7096L53.0932 94.5314ZM70.0138 100.006V100.817C70.0138 102.117 69.8397 103.312 69.4916 104.401C69.1434 105.49 68.6521 106.449 68.0177 107.278C67.3832 108.099 66.625 108.772 65.743 109.295C64.8688 109.817 63.8978 110.163 62.8301 110.332C61.7701 110.5 60.7991 110.462 59.9171 110.218C59.0429 109.972 58.2847 109.54 57.6425 108.921C57.0003 108.295 56.5013 107.492 56.1454 106.515C55.7972 105.536 55.6232 104.396 55.6232 103.096V102.285C55.6232 100.977 55.7972 99.7823 56.1454 98.701C56.4936 97.6118 56.9849 96.6528 57.6193 95.8238C58.2614 94.9936 59.0197 94.3173 59.8939 93.795C60.7759 93.2715 61.7469 92.9258 62.8069 92.7579C63.8746 92.5888 64.8455 92.6269 65.7198 92.8723C66.6018 93.1164 67.36 93.5525 67.9945 94.1805C68.6366 94.8073 69.1318 95.6101 69.4799 96.589C69.8358 97.5588 70.0138 98.6978 70.0138 100.006ZM66.4974 101.374V100.539C66.4974 99.6307 66.4161 98.8446 66.2537 98.181C66.0912 97.5174 65.8513 96.9757 65.5341 96.556C65.2169 96.1362 64.8301 95.845 64.3736 95.6823C63.9171 95.5117 63.3949 95.473 62.8069 95.5662C62.2189 95.6593 61.6966 95.8634 61.2401 96.1786C60.7914 96.4846 60.4084 96.8978 60.0912 97.418C59.7817 97.937 59.5458 98.5541 59.3833 99.2692C59.2208 99.9842 59.1396 100.796 59.1396 101.705V102.539C59.1396 103.44 59.2208 104.226 59.3833 104.897C59.5458 105.561 59.7856 106.107 60.1028 106.534C60.42 106.954 60.8069 107.249 61.2634 107.42C61.7198 107.59 62.2421 107.629 62.8301 107.536C63.4181 107.443 63.9403 107.238 64.3968 106.923C64.8533 106.608 65.2363 106.191 65.5457 105.672C65.8552 105.145 66.0912 104.524 66.2537 103.809C66.4161 103.086 66.4974 102.274 66.4974 101.374ZM85.5301 103.752V106.502L73.3561 108.43V105.681L85.5301 103.752ZM74.389 105.517V112.461L71.1163 112.98L70.9306 106.065L74.389 105.517ZM88.0369 103.355L87.7352 110.359L84.5437 110.865V103.909L88.0369 103.355ZM83.6153 89.6972V92.4584L75.4799 93.7469V90.9857L83.6153 89.6972ZM86.0988 89.3038V106.412L82.6288 106.961V89.8534L86.0988 89.3038ZM75.0505 91.0537L78.5321 90.5023L78.0795 97.5417C78.0099 98.7042 77.8861 99.7422 77.7081 100.656C77.5379 101.56 77.329 102.364 77.0814 103.07C76.8416 103.773 76.5747 104.399 76.2807 104.947C75.9867 105.487 75.6772 105.967 75.3523 106.387C75.0273 106.798 74.6985 107.172 74.3658 107.506C74.0331 107.833 73.7082 108.139 73.3909 108.425L71.3948 108.741V105.991L72.1724 105.868C72.3968 105.645 72.6327 105.349 72.8803 104.98C73.1356 104.611 73.3755 104.13 73.5998 103.539C73.832 102.938 74.0331 102.193 74.2033 101.305C74.3813 100.415 74.5128 99.3443 74.5979 98.0931L75.0505 91.0537ZM96.8918 90.5201L92.2961 105.43L88.594 106.017L94.8724 87.9142L97.2283 87.5411L96.8918 90.5201ZM100.71 104.098L96.1026 90.6451L95.7312 87.7782L98.1103 87.4014L104.424 103.509L100.71 104.098ZM100.501 97.7622V100.523L91.5765 101.937V99.1758L100.501 97.7622ZM112.571 96.1209L108.265 96.8028V94.0533L112.571 93.3714C113.236 93.266 113.778 93.0705 114.195 92.785C114.613 92.4917 114.919 92.13 115.112 91.6998C115.306 91.2697 115.402 90.8039 115.402 90.3026C115.402 89.7934 115.306 89.3348 115.112 88.9268C114.919 88.5188 114.613 88.2147 114.195 88.0145C113.778 87.8144 113.236 87.767 112.571 87.8724L109.472 88.3631V102.71L105.99 103.261V86.1533L112.571 85.1111C113.894 84.9016 115.027 84.9649 115.971 85.301C116.923 85.6282 117.65 86.1749 118.153 86.9412C118.656 87.7076 118.907 88.6352 118.907 89.724C118.907 90.8285 118.656 91.824 118.153 92.7105C117.65 93.597 116.923 94.3349 115.971 94.9243C115.027 95.5125 113.894 95.9113 112.571 96.1209ZM124.803 83.1737V100.282L121.321 100.833V83.7252L124.803 83.1737ZM134.76 81.5966L128.284 92.6686L124.025 93.3432L123.584 90.2757L126.427 89.8254L130.536 82.2657L134.76 81.5966ZM131.174 99.2726L126.439 92.3733L128.853 89.4765L135.305 98.6183L131.174 99.2726ZM140.029 92.3242L146.818 79.6869L150.3 79.1354V96.2434L146.818 96.7949V85.2329L140.029 97.8702L136.547 98.4216V81.3136L140.029 80.7621V92.3242ZM173.116 83.6762V84.487C173.116 85.7873 172.942 86.982 172.593 88.0712C172.245 89.1603 171.754 90.1194 171.12 90.9484C170.485 91.7695 169.727 92.4419 168.845 92.9654C167.971 93.4877 167 93.8334 165.932 94.0025C164.872 94.1704 163.901 94.1323 163.019 93.8881C162.145 93.6428 161.387 93.2106 160.744 92.5916C160.102 91.9648 159.603 91.1626 159.247 90.185C158.899 89.2061 158.725 88.0665 158.725 86.7662V85.9555C158.725 84.6473 158.899 83.4526 159.247 82.3712C159.595 81.2821 160.087 80.323 160.721 79.4941C161.363 78.6638 162.122 77.9876 162.996 77.4653C163.878 76.9418 164.849 76.596 165.909 76.4282C166.976 76.2591 167.947 76.2972 168.822 76.5426C169.704 76.7867 170.462 77.2228 171.096 77.8508C171.739 78.4776 172.234 79.2804 172.582 80.2593C172.938 81.2291 173.116 82.368 173.116 83.6762ZM169.599 85.0439V84.2097C169.599 83.301 169.518 82.5149 169.356 81.8513C169.193 81.1877 168.953 80.646 168.636 80.2262C168.319 79.8065 167.932 79.5152 167.476 79.3525C167.019 79.182 166.497 79.1433 165.909 79.2364C165.321 79.3296 164.799 79.5337 164.342 79.8488C163.893 80.1549 163.51 80.568 163.193 81.0883C162.884 81.6073 162.648 82.2243 162.485 82.9394C162.323 83.6545 162.241 84.4664 162.241 85.375V86.2093C162.241 87.1101 162.323 87.8962 162.485 88.5677C162.648 89.2313 162.888 89.7769 163.205 90.2045C163.522 90.6242 163.909 90.9194 164.365 91.0899C164.822 91.2604 165.344 91.2991 165.932 91.206C166.52 91.1129 167.042 90.9087 167.499 90.5936C167.955 90.2785 168.338 89.8614 168.648 89.3424C168.957 88.8155 169.193 88.1946 169.356 87.4795C169.518 86.7566 169.599 85.9447 169.599 85.0439ZM182.388 74.0531V91.1611L178.918 91.7107V74.6027L182.388 74.0531ZM187.588 73.2296V75.9908L173.8 78.1745V75.4133L187.588 73.2296ZM202.663 70.8066V87.9499L199.321 88.4793V75.237L195.305 77.1655V74.4982L202.303 70.8636L202.663 70.8066ZM217.048 75.6135V78.5745C217.048 79.8592 216.913 80.9891 216.642 81.9641C216.371 82.9313 215.98 83.753 215.47 84.4293C214.967 85.0964 214.367 85.6261 213.671 86.0184C212.975 86.4107 212.201 86.6742 211.35 86.809C210.669 86.9169 210.034 86.9312 209.446 86.852C208.858 86.765 208.329 86.5708 207.857 86.2696C207.392 85.9671 206.99 85.5569 206.65 85.039C206.317 84.512 206.062 83.8631 205.884 83.0923C205.706 82.3215 205.617 81.4191 205.617 80.3851V77.4241C205.617 76.1394 205.752 75.0174 206.023 74.058C206.301 73.0895 206.692 72.2717 207.195 71.6046C207.706 70.9362 208.309 70.4098 209.005 70.0253C209.702 69.633 210.475 69.3695 211.327 69.2347C212.007 69.1269 212.638 69.1171 213.218 69.2053C213.806 69.2845 214.336 69.4709 214.808 69.7643C215.28 70.0577 215.682 70.4679 216.015 70.9949C216.348 71.514 216.603 72.159 216.781 72.9298C216.959 73.6928 217.048 74.5874 217.048 75.6135ZM213.694 79.5522V75.6865C213.694 75.0676 213.659 74.5327 213.59 74.0815C213.528 73.6292 213.431 73.2528 213.299 72.9525C213.168 72.6443 213.005 72.4037 212.812 72.2307C212.619 72.0576 212.398 71.9437 212.151 71.8889C211.903 71.8342 211.628 71.8307 211.327 71.8785C210.947 71.9385 210.611 72.0662 210.317 72.2616C210.031 72.4558 209.787 72.7333 209.586 73.0942C209.385 73.4472 209.23 73.9025 209.122 74.4602C209.021 75.0088 208.971 75.6669 208.971 76.4346V80.3003C208.971 80.9192 209.002 81.4587 209.064 81.9189C209.133 82.3779 209.234 82.7654 209.365 83.0814C209.505 83.3883 209.667 83.6328 209.853 83.8149C210.046 83.9879 210.267 84.1018 210.514 84.1566C210.77 84.2102 211.048 84.2131 211.35 84.1653C211.721 84.1065 212.05 83.98 212.336 83.7858C212.63 83.5826 212.878 83.3005 213.079 82.9397C213.288 82.5697 213.443 82.1066 213.543 81.5501C213.644 80.9937 213.694 80.3277 213.694 79.5522ZM233.683 72.9788V75.9398C233.683 77.2245 233.547 78.3544 233.277 79.3294C233.006 80.2966 232.615 81.1184 232.104 81.7946C231.602 82.4617 231.002 82.9914 230.306 83.3837C229.609 83.776 228.836 84.0396 227.985 84.1743C227.304 84.2822 226.669 84.2965 226.081 84.2173C225.493 84.1303 224.963 83.9361 224.491 83.6349C224.027 83.3324 223.625 82.9222 223.284 82.4043C222.952 81.8773 222.696 81.2284 222.518 80.4576C222.341 79.6868 222.252 78.7844 222.252 77.7504V74.7894C222.252 73.5047 222.387 72.3827 222.658 71.4233C222.936 70.4548 223.327 69.637 223.83 68.9699C224.34 68.3015 224.944 67.7751 225.64 67.3906C226.337 66.9983 227.11 66.7348 227.961 66.6C228.642 66.4922 229.273 66.4824 229.853 66.5706C230.441 66.6498 230.971 66.8362 231.443 67.1296C231.915 67.423 232.317 67.8332 232.65 68.3602C232.983 68.8793 233.238 69.5243 233.416 70.2951C233.594 71.0581 233.683 71.9527 233.683 72.9788ZM230.329 76.9175V73.0518C230.329 72.433 230.294 71.898 230.224 71.4468C230.163 70.9945 230.066 70.6181 229.934 70.3178C229.803 70.0096 229.64 69.769 229.447 69.596C229.253 69.4229 229.033 69.309 228.785 69.2543C228.538 69.1995 228.263 69.196 227.961 69.2438C227.582 69.3038 227.246 69.4315 226.952 69.6269C226.665 69.8211 226.422 70.0986 226.221 70.4595C226.019 70.8125 225.865 71.2678 225.756 71.8255C225.656 72.3741 225.605 73.0322 225.605 73.7999V77.6657C225.605 78.2845 225.636 78.824 225.698 79.2842C225.768 79.7432 225.869 80.1307 226 80.4467C226.139 80.7536 226.302 80.9981 226.487 81.1802C226.681 81.3532 226.901 81.4671 227.149 81.5219C227.404 81.5755 227.683 81.5784 227.985 81.5306C228.356 81.4718 228.685 81.3453 228.971 81.1511C229.265 80.9479 229.513 80.6658 229.714 80.305C229.923 79.935 230.077 79.4719 230.178 78.9154C230.279 78.359 230.329 77.693 230.329 76.9175ZM247.331 70.8172V73.7782C247.331 75.0629 247.195 76.1927 246.925 77.1678C246.654 78.135 246.263 78.9567 245.752 79.633C245.249 80.3001 244.65 80.8298 243.954 81.2221C243.257 81.6144 242.484 81.8779 241.632 82.0127C240.952 82.1206 240.317 82.1349 239.729 82.0557C239.141 81.9686 238.611 81.7745 238.139 81.4733C237.675 81.1708 237.273 80.7606 236.932 80.2427C236.6 79.7157 236.344 79.0668 236.166 78.296C235.988 77.5252 235.899 76.6228 235.899 75.5888V72.6277C235.899 71.3431 236.035 70.2211 236.306 69.2617C236.584 68.2932 236.975 67.4754 237.478 66.8083C237.988 66.1399 238.592 65.6135 239.288 65.229C239.985 64.8367 240.758 64.5732 241.609 64.4384C242.29 64.3306 242.921 64.3208 243.501 64.409C244.089 64.4882 244.619 64.6745 245.091 64.968C245.563 65.2614 245.965 65.6716 246.298 66.1986C246.63 66.7177 246.886 67.3627 247.064 68.1335C247.242 68.8965 247.331 69.791 247.331 70.8172ZM243.977 74.7559V70.8902C243.977 70.2713 243.942 69.7364 243.872 69.2852C243.81 68.8329 243.714 68.4565 243.582 68.1562C243.451 67.848 243.288 67.6074 243.095 67.4344C242.901 67.2613 242.681 67.1474 242.433 67.0926C242.186 67.0379 241.911 67.0344 241.609 67.0821C241.23 67.1422 240.894 67.2699 240.6 67.4653C240.313 67.6595 240.07 67.937 239.868 68.2979C239.667 68.6509 239.513 69.1062 239.404 69.6639C239.304 70.2125 239.253 70.8706 239.253 71.6383V75.504C239.253 76.1229 239.284 76.6624 239.346 77.1226C239.416 77.5816 239.516 77.969 239.648 78.285C239.787 78.592 239.95 78.8365 240.135 79.0186C240.329 79.1916 240.549 79.3055 240.797 79.3603C241.052 79.4139 241.331 79.4168 241.632 79.369C242.004 79.3102 242.333 79.1837 242.619 78.9895C242.913 78.7863 243.16 78.5042 243.362 78.1434C243.571 77.7734 243.725 77.3103 243.826 76.7538C243.926 76.1974 243.977 75.5314 243.977 74.7559ZM260.979 68.6556V71.6166C260.979 72.9013 260.843 74.0311 260.572 75.0062C260.302 75.9734 259.911 76.7951 259.4 77.4713C258.897 78.1385 258.298 78.6682 257.601 79.0605C256.905 79.4528 256.131 79.7163 255.28 79.8511C254.6 79.959 253.965 79.9733 253.377 79.8941C252.789 79.807 252.259 79.6129 251.787 79.3116C251.323 79.0092 250.921 78.599 250.58 78.0811C250.247 77.5541 249.992 76.9052 249.814 76.1344C249.636 75.3635 249.547 74.4611 249.547 73.4271V70.4661C249.547 69.1815 249.683 68.0594 249.953 67.1C250.232 66.1316 250.623 65.3138 251.126 64.6466C251.636 63.9783 252.24 63.4519 252.936 63.0674C253.632 62.6751 254.406 62.4116 255.257 62.2768C255.938 62.1689 256.569 62.1592 257.149 62.2474C257.737 62.3266 258.267 62.5129 258.739 62.8063C259.211 63.0998 259.613 63.51 259.946 64.0369C260.278 64.5561 260.534 65.2011 260.712 65.9719C260.89 66.7349 260.979 67.6294 260.979 68.6556ZM257.625 72.5943V68.7286C257.625 68.1097 257.59 67.5747 257.52 67.1236C257.458 66.6712 257.362 66.2949 257.23 65.9946C257.099 65.6864 256.936 65.4458 256.743 65.2728C256.549 65.0997 256.329 64.9858 256.081 64.931C255.834 64.8762 255.559 64.8727 255.257 64.9205C254.878 64.9806 254.541 65.1083 254.247 65.3037C253.961 65.4979 253.717 65.7754 253.516 66.1362C253.315 66.4893 253.16 66.9446 253.052 67.5023C252.952 68.0509 252.901 68.709 252.901 69.4767V73.3424C252.901 73.9613 252.932 74.5008 252.994 74.961C253.064 75.4199 253.164 75.8074 253.296 76.1234C253.435 76.4304 253.598 76.6749 253.783 76.857C253.977 77.03 254.197 77.1439 254.445 77.1987C254.7 77.2523 254.979 77.2552 255.28 77.2074C255.652 77.1485 255.981 77.0221 256.267 76.8279C256.561 76.6246 256.808 76.3426 257.01 75.9817C257.218 75.6118 257.373 75.1486 257.474 74.5922C257.574 74.0358 257.625 73.3698 257.625 72.5943ZM275.311 70.3453L266.421 71.7533V69.0038L275.23 67.6087C275.949 67.4947 276.522 67.2904 276.948 66.9959C277.381 66.7001 277.694 66.3371 277.888 65.907C278.081 65.469 278.178 64.9915 278.178 64.4745C278.178 63.9654 278.073 63.5158 277.864 63.1259C277.663 62.7269 277.35 62.4319 276.924 62.2408C276.507 62.0406 275.973 61.992 275.323 62.0949L272.247 62.582V76.9288L268.766 77.4802V60.3722L275.311 59.3355C276.642 59.1248 277.779 59.1835 278.723 59.5119C279.675 59.839 280.406 60.3812 280.917 61.1385C281.427 61.8958 281.683 62.8149 281.683 63.8959C281.683 65.0318 281.419 66.0487 280.893 66.9467C280.375 67.8434 279.64 68.5826 278.688 69.1642C277.744 69.7445 276.619 70.1382 275.311 70.3453ZM275.949 71.2077V73.9572L266.421 75.4663V72.7168L275.949 71.2077Z" fill="white"/>
<g clip-path="url(#clip0_307_739)">
<path d="M53.5135 74.5409L53.5011 54.4861L73.6682 51.2686L73.6822 71.3465L53.5135 74.5409ZM51.1723 39.438C49.8964 39.6426 48.8567 37.2227 48.8551 36.1387V36.0103C48.8543 35.5704 49.0263 35.1389 49.3128 34.7677C48.2476 34.0213 42.6969 29.8056 40.3286 33.0186C37.7035 36.5806 46.2835 39.2438 46.2835 39.2438C30.7172 41.6043 34.2214 32.9499 37.5273 30.0243C40.8324 27.0989 42.3347 28.3569 42.9035 28.266L49.8503 34.24C50.2224 33.9602 50.6751 33.7593 51.1641 33.681L53.1175 33.3691C53.6057 33.2918 54.0584 33.3485 54.4313 33.5094L61.3551 25.3227C61.9239 25.2318 63.4212 23.4945 66.7345 25.3633C70.0478 27.233 73.5784 34.7657 58.0121 37.3729C58.0121 37.3729 66.579 31.973 63.9431 29.2517C61.5666 26.7961 56.0332 32.7798 54.9705 33.8658C55.2578 34.1461 55.4315 34.5237 55.4323 34.9619V35.0903C55.4339 36.1752 54.4025 38.9239 53.1266 39.1276L51.1723 39.4388V39.438ZM50.3492 46.4709L50.3574 52.1812L28.395 55.6863L28.3777 45.0352L47.2038 42.0318L50.3417 41.5314L50.35 46.4724L50.3492 46.4709ZM30.206 78.2324L30.1961 58.0622L50.3632 54.8447L50.3755 75.037L30.206 78.2316V78.2324ZM75.4602 48.1769L53.497 51.6814L53.4879 45.9704L53.4797 41.0294L56.6168 40.5292L75.4421 37.5259L75.4594 48.177L75.4602 48.1769Z" fill="#E31235"/>
</g>
<defs>
<linearGradient id="paint0_linear_307_739" x1="183.902" y1="3.69653" x2="65.6597" y2="85.6684" gradientUnits="userSpaceOnUse">
<stop stop-color="#4AC4D7" stop-opacity="0"/>
<stop offset="1" stop-color="#4AC4D7"/>
</linearGradient>
<clipPath id="clip0_307_739">
<rect width="47.6694" height="48.4412" fill="white" transform="matrix(0.987688 -0.156434 0 1 28.3777 30.0807)"/>
</clipPath>
</defs>
</svg>
