<svg width="1072" height="310" viewBox="0 0 1072 310" fill="none" xmlns="http://www.w3.org/2000/svg">
<rect width="642.805" height="118.478" transform="matrix(0.987688 -0.156434 0 1 436.698 180.921)" fill="#E31235"/>
<path d="M542.036 206.035V239.978L535.128 241.072V212.607L521.659 214.741V243.205L514.751 244.299V210.357L542.036 206.035ZM575.607 216.897V218.505C575.607 221.085 575.262 223.456 574.571 225.616C573.88 227.777 572.905 229.68 571.647 231.325C570.388 232.954 568.884 234.288 567.134 235.327C565.399 236.363 563.473 237.049 561.354 237.384C559.251 237.717 557.325 237.642 555.575 237.157C553.84 236.671 552.336 235.813 551.062 234.585C549.788 233.342 548.798 231.75 548.092 229.81C547.401 227.868 547.056 225.607 547.056 223.027V221.419C547.056 218.823 547.401 216.453 548.092 214.308C548.782 212.147 549.757 210.244 551.016 208.599C552.29 206.952 553.794 205.61 555.529 204.574C557.279 203.535 559.205 202.849 561.308 202.516C563.427 202.181 565.353 202.256 567.088 202.743C568.838 203.228 570.342 204.093 571.601 205.339C572.875 206.582 573.857 208.175 574.548 210.117C575.254 212.041 575.607 214.301 575.607 216.897ZM568.63 219.61V217.955C568.63 216.152 568.469 214.593 568.147 213.276C567.824 211.959 567.349 210.885 566.719 210.052C566.09 209.219 565.322 208.641 564.417 208.318C563.511 207.98 562.475 207.903 561.308 208.088C560.142 208.273 559.106 208.678 558.2 209.303C557.31 209.91 556.55 210.73 555.92 211.762C555.306 212.792 554.838 214.016 554.516 215.435C554.193 216.854 554.032 218.464 554.032 220.267V221.922C554.032 223.71 554.193 225.269 554.516 226.601C554.838 227.918 555.314 229.001 555.943 229.849C556.573 230.682 557.34 231.267 558.246 231.606C559.152 231.944 560.188 232.021 561.354 231.836C562.521 231.651 563.557 231.246 564.463 230.621C565.368 229.996 566.128 229.168 566.742 228.139C567.356 227.093 567.824 225.861 568.147 224.443C568.469 223.008 568.63 221.398 568.63 219.61ZM606.392 224.33V229.785L582.238 233.61V228.155L606.392 224.33ZM584.288 227.831V241.608L577.794 242.637L577.426 228.918L584.288 227.831ZM611.366 223.542L610.767 237.438L604.435 238.441V224.64L611.366 223.542ZM602.593 196.444V201.922L586.452 204.479V199L602.593 196.444ZM607.52 195.663V229.606L600.636 230.697V196.754L607.52 195.663ZM585.6 199.135L592.508 198.041L591.61 212.008C591.472 214.314 591.226 216.373 590.873 218.185C590.535 219.98 590.121 221.576 589.63 222.975C589.154 224.371 588.624 225.613 588.041 226.7C587.457 227.772 586.843 228.724 586.199 229.556C585.554 230.373 584.902 231.114 584.242 231.778C583.582 232.426 582.937 233.034 582.307 233.599L578.347 234.227V228.772L579.89 228.527C580.335 228.084 580.803 227.497 581.294 226.766C581.801 226.033 582.277 225.08 582.722 223.906C583.182 222.714 583.582 221.236 583.919 219.473C584.272 217.708 584.533 215.584 584.702 213.102L585.6 199.135ZM628.934 198.077L619.816 227.659L612.471 228.822L624.927 192.906L629.602 192.166L628.934 198.077ZM636.509 225.015L627.368 198.324L626.631 192.636L631.352 191.889L643.877 223.848L636.509 225.015ZM636.095 212.445V217.924L618.388 220.728V215.25L636.095 212.445ZM660.041 209.189L651.499 210.542V205.086L660.041 203.733C661.361 203.524 662.436 203.137 663.265 202.57C664.094 201.988 664.7 201.27 665.084 200.417C665.468 199.564 665.659 198.64 665.659 197.645C665.659 196.635 665.468 195.725 665.084 194.915C664.7 194.106 664.094 193.502 663.265 193.105C662.436 192.708 661.361 192.614 660.041 192.823L653.893 193.797V222.261L646.986 223.355V189.413L660.041 187.345C662.666 186.929 664.915 187.055 666.788 187.722C668.676 188.371 670.119 189.455 671.116 190.976C672.114 192.496 672.613 194.337 672.613 196.497C672.613 198.688 672.114 200.663 671.116 202.422C670.119 204.181 668.676 205.645 666.788 206.815C664.915 207.981 662.666 208.773 660.041 209.189ZM684.31 183.501V217.444L677.402 218.538V184.595L684.31 183.501ZM704.066 180.372L691.218 202.339L682.767 203.677L681.892 197.592L687.534 196.698L695.685 181.699L704.066 180.372ZM696.951 215.442L687.557 201.753L692.346 196.006L705.148 214.143L696.951 215.442ZM714.519 201.656L727.989 176.583L734.897 175.489V209.432L727.989 210.526V187.586L714.519 212.659L707.612 213.753V179.81L714.519 178.716V201.656ZM780.165 184.498V186.106C780.165 188.686 779.819 191.057 779.129 193.218C778.438 195.379 777.463 197.281 776.204 198.926C774.946 200.555 773.441 201.889 771.691 202.928C769.957 203.964 768.03 204.65 765.912 204.986C763.809 205.319 761.883 205.243 760.133 204.759C758.398 204.272 756.894 203.414 755.62 202.186C754.346 200.943 753.355 199.351 752.649 197.412C751.959 195.469 751.613 193.208 751.613 190.629V189.02C751.613 186.425 751.959 184.054 752.649 181.909C753.34 179.748 754.315 177.845 755.574 176.2C756.848 174.553 758.352 173.212 760.087 172.175C761.836 171.137 763.763 170.451 765.866 170.118C767.984 169.782 769.911 169.858 771.645 170.345C773.395 170.829 774.9 171.694 776.158 172.94C777.432 174.184 778.415 175.776 779.106 177.719C779.812 179.643 780.165 181.902 780.165 184.498ZM773.188 187.211V185.556C773.188 183.753 773.027 182.194 772.704 180.877C772.382 179.561 771.906 178.486 771.277 177.653C770.648 176.82 769.88 176.242 768.974 175.92C768.069 175.581 767.033 175.504 765.866 175.689C764.699 175.874 763.663 176.279 762.758 176.904C761.867 177.512 761.107 178.331 760.478 179.363C759.864 180.393 759.396 181.617 759.073 183.036C758.751 184.455 758.59 186.066 758.59 187.868V189.524C758.59 191.311 758.751 192.871 759.073 194.203C759.396 195.519 759.872 196.602 760.501 197.45C761.13 198.283 761.898 198.869 762.804 199.207C763.709 199.545 764.745 199.622 765.912 199.437C767.079 199.253 768.115 198.848 769.02 198.222C769.926 197.597 770.686 196.77 771.3 195.74C771.914 194.695 772.382 193.463 772.704 192.044C773.027 190.61 773.188 188.999 773.188 187.211ZM798.562 165.405V199.348L791.677 200.439V166.496L798.562 165.405ZM808.877 163.771V169.25L781.523 173.582V168.104L808.877 163.771ZM838.787 158.964V192.977L832.156 194.027V167.754L824.189 171.58V166.289L838.074 159.077L838.787 158.964ZM867.328 168.501V174.376C867.328 176.925 867.059 179.167 866.522 181.101C865.985 183.02 865.21 184.65 864.196 185.992C863.199 187.316 862.009 188.367 860.627 189.145C859.246 189.923 857.711 190.446 856.022 190.714C854.672 190.928 853.413 190.956 852.246 190.799C851.08 190.626 850.028 190.241 849.092 189.643C848.171 189.043 847.373 188.229 846.697 187.202C846.037 186.156 845.53 184.869 845.177 183.339C844.824 181.81 844.648 180.02 844.648 177.968V172.093C844.648 169.545 844.916 167.318 845.454 165.415C846.006 163.494 846.782 161.871 847.779 160.547C848.792 159.221 849.99 158.177 851.371 157.414C852.753 156.636 854.288 156.113 855.976 155.845C857.327 155.632 858.578 155.612 859.729 155.787C860.896 155.944 861.948 156.314 862.884 156.896C863.82 157.478 864.619 158.292 865.279 159.338C865.939 160.368 866.445 161.647 866.798 163.177C867.151 164.69 867.328 166.465 867.328 168.501ZM860.674 176.316V168.646C860.674 167.418 860.604 166.357 860.466 165.462C860.344 164.564 860.152 163.818 859.891 163.222C859.63 162.61 859.307 162.133 858.924 161.79C858.54 161.446 858.102 161.22 857.611 161.112C857.12 161.003 856.575 160.996 855.976 161.091C855.224 161.21 854.556 161.463 853.973 161.851C853.405 162.236 852.922 162.787 852.523 163.503C852.123 164.203 851.816 165.107 851.602 166.213C851.402 167.301 851.302 168.607 851.302 170.13V177.8C851.302 179.028 851.364 180.098 851.486 181.011C851.625 181.922 851.824 182.691 852.085 183.318C852.361 183.927 852.684 184.412 853.052 184.773C853.436 185.116 853.873 185.342 854.365 185.451C854.871 185.557 855.424 185.563 856.022 185.468C856.759 185.352 857.412 185.101 857.98 184.715C858.563 184.312 859.054 183.753 859.453 183.037C859.868 182.303 860.175 181.384 860.374 180.28C860.574 179.176 860.674 177.854 860.674 176.316ZM900.332 163.274V169.149C900.332 171.698 900.063 173.939 899.526 175.874C898.989 177.793 898.214 179.423 897.2 180.765C896.203 182.088 895.013 183.139 893.631 183.918C892.25 184.696 890.715 185.219 889.026 185.486C887.676 185.7 886.417 185.729 885.25 185.571C884.084 185.399 883.032 185.014 882.096 184.416C881.175 183.816 880.377 183.002 879.701 181.974C879.041 180.929 878.534 179.641 878.181 178.112C877.828 176.583 877.652 174.792 877.652 172.741V166.866C877.652 164.317 877.92 162.091 878.458 160.188C879.01 158.266 879.786 156.644 880.783 155.32C881.796 153.994 882.994 152.95 884.375 152.187C885.757 151.408 887.292 150.886 888.98 150.618C890.331 150.404 891.582 150.385 892.733 150.56C893.9 150.717 894.952 151.087 895.888 151.669C896.824 152.251 897.623 153.065 898.283 154.11C898.943 155.14 899.449 156.42 899.802 157.949C900.155 159.463 900.332 161.238 900.332 163.274ZM893.678 171.088V163.419C893.678 162.191 893.608 161.129 893.47 160.234C893.347 159.337 893.156 158.59 892.895 157.994C892.634 157.383 892.311 156.906 891.928 156.562C891.544 156.219 891.106 155.993 890.615 155.884C890.124 155.776 889.579 155.769 888.98 155.863C888.228 155.983 887.56 156.236 886.977 156.624C886.409 157.009 885.926 157.56 885.527 158.275C885.127 158.976 884.82 159.879 884.606 160.986C884.406 162.074 884.306 163.38 884.306 164.903V172.573C884.306 173.801 884.368 174.871 884.49 175.784C884.629 176.695 884.828 177.463 885.089 178.09C885.365 178.699 885.688 179.184 886.056 179.546C886.44 179.889 886.877 180.115 887.369 180.224C887.875 180.33 888.428 180.336 889.026 180.241C889.763 180.124 890.416 179.873 890.984 179.488C891.567 179.085 892.058 178.525 892.457 177.809C892.872 177.075 893.179 176.156 893.378 175.052C893.578 173.948 893.678 172.627 893.678 171.088ZM927.41 158.985V164.86C927.41 167.409 927.141 169.65 926.604 171.585C926.067 173.504 925.291 175.134 924.278 176.476C923.281 177.8 922.091 178.851 920.709 179.629C919.328 180.407 917.793 180.93 916.104 181.198C914.753 181.411 913.495 181.44 912.328 181.283C911.161 181.11 910.11 180.725 909.174 180.127C908.253 179.527 907.454 178.713 906.779 177.686C906.119 176.64 905.612 175.353 905.259 173.823C904.906 172.294 904.73 170.504 904.73 168.452V162.577C904.73 160.029 904.998 157.802 905.536 155.899C906.088 153.978 906.863 152.355 907.861 151.031C908.874 149.705 910.072 148.661 911.453 147.898C912.835 147.12 914.37 146.597 916.058 146.329C917.409 146.115 918.66 146.096 919.811 146.271C920.978 146.428 922.029 146.798 922.966 147.38C923.902 147.962 924.7 148.776 925.36 149.822C926.021 150.852 926.527 152.131 926.88 153.661C927.233 155.174 927.41 156.949 927.41 158.985ZM920.755 166.8V159.13C920.755 157.902 920.686 156.841 920.548 155.946C920.425 155.048 920.233 154.302 919.973 153.706C919.712 153.094 919.389 152.617 919.005 152.274C918.622 151.93 918.184 151.704 917.693 151.596C917.202 151.487 916.657 151.48 916.058 151.575C915.306 151.694 914.638 151.947 914.055 152.335C913.487 152.72 913.004 153.271 912.604 153.987C912.205 154.687 911.898 155.591 911.683 156.697C911.484 157.785 911.384 159.091 911.384 160.614V168.284C911.384 169.512 911.445 170.582 911.568 171.495C911.706 172.406 911.906 173.175 912.167 173.802C912.443 174.411 912.766 174.896 913.134 175.257C913.518 175.6 913.955 175.826 914.446 175.935C914.953 176.041 915.506 176.047 916.104 175.952C916.841 175.836 917.493 175.585 918.061 175.199C918.645 174.796 919.136 174.237 919.535 173.521C919.95 172.787 920.257 171.868 920.456 170.764C920.656 169.66 920.755 168.338 920.755 166.8ZM954.488 154.697V160.571C954.488 163.12 954.219 165.362 953.682 167.296C953.144 169.215 952.369 170.846 951.356 172.187C950.358 173.511 949.169 174.562 947.787 175.34C946.406 176.118 944.871 176.641 943.182 176.909C941.831 177.123 940.573 177.151 939.406 176.994C938.239 176.821 937.188 176.436 936.251 175.838C935.33 175.238 934.532 174.424 933.857 173.397C933.197 172.351 932.69 171.064 932.337 169.535C931.984 168.005 931.808 166.215 931.808 164.163V158.289C931.808 155.74 932.076 153.514 932.613 151.61C933.166 149.689 933.941 148.066 934.939 146.743C935.952 145.417 937.149 144.372 938.531 143.609C939.913 142.831 941.448 142.308 943.136 142.041C944.487 141.827 945.738 141.807 946.889 141.982C948.056 142.14 949.107 142.509 950.044 143.091C950.98 143.674 951.778 144.487 952.438 145.533C953.098 146.563 953.605 147.843 953.958 149.372C954.311 150.886 954.488 152.661 954.488 154.697ZM947.833 162.511V154.841C947.833 153.613 947.764 152.552 947.626 151.657C947.503 150.759 947.311 150.013 947.05 149.417C946.789 148.806 946.467 148.328 946.083 147.985C945.7 147.642 945.262 147.416 944.771 147.307C944.28 147.198 943.735 147.191 943.136 147.286C942.384 147.405 941.716 147.659 941.133 148.046C940.565 148.431 940.081 148.982 939.682 149.698C939.283 150.398 938.976 151.302 938.761 152.408C938.562 153.497 938.462 154.802 938.462 156.326V163.995C938.462 165.223 938.523 166.294 938.646 167.207C938.784 168.117 938.984 168.886 939.245 169.513C939.521 170.122 939.843 170.607 940.212 170.968C940.596 171.312 941.033 171.538 941.524 171.646C942.031 171.753 942.583 171.758 943.182 171.664C943.919 171.547 944.571 171.296 945.139 170.911C945.723 170.507 946.214 169.948 946.613 169.232C947.027 168.498 947.334 167.579 947.534 166.475C947.733 165.371 947.833 164.05 947.833 162.511ZM982.924 158.049L965.287 160.842V155.387L982.763 152.619C984.19 152.393 985.326 151.988 986.171 151.404C987.03 150.817 987.652 150.097 988.036 149.243C988.419 148.374 988.611 147.427 988.611 146.401C988.611 145.391 988.404 144.499 987.99 143.725C987.59 142.934 986.969 142.348 986.125 141.969C985.296 141.572 984.236 141.476 982.947 141.68L976.845 142.646V171.111L969.938 172.205V138.262L982.924 136.205C985.564 135.787 987.821 135.904 989.693 136.555C991.582 137.204 993.032 138.28 994.045 139.782C995.058 141.285 995.565 143.108 995.565 145.253C995.565 147.507 995.043 149.524 993.999 151.306C992.971 153.085 991.512 154.552 989.624 155.706C987.752 156.857 985.518 157.638 982.924 158.049ZM984.19 159.76V165.215L965.287 168.209V162.754L984.19 159.76Z" fill="white"/>
<rect width="384.649" height="10" transform="matrix(0.987688 -0.156434 0 1 0.956299 299.167)" fill="url(#paint0_linear_302_736)"/>
<g clip-path="url(#clip0_302_736)">
<path d="M972.334 103.725L972.309 63.9357L1012.32 57.5521L1012.35 97.3873L972.334 103.725ZM967.689 34.0797C965.157 34.4856 963.094 29.6846 963.091 27.5338V27.2792C963.09 26.4064 963.431 25.5503 963.999 24.8137C961.886 23.3328 950.873 14.9688 946.174 21.3434C940.966 28.4106 957.989 33.6946 957.989 33.6946C927.105 38.3778 934.058 21.2072 940.617 15.4027C947.174 9.59854 950.155 12.0946 951.283 11.9142L965.066 23.7668C965.804 23.2117 966.702 22.8131 967.672 22.6578L971.548 22.039C972.517 21.8856 973.415 21.998 974.155 22.3173L987.892 6.07466C989.02 5.89426 991.991 2.4473 998.565 6.15519C1005.14 9.86474 1012.14 24.8098 981.259 29.9825C981.259 29.9825 998.256 19.269 993.026 13.8699C988.311 8.99784 977.333 20.8698 975.224 23.0243C975.794 23.5806 976.139 24.3296 976.141 25.1991V25.4538C976.144 27.6062 974.097 33.0597 971.566 33.464L967.689 34.0814V34.0797ZM966.056 48.0333L966.072 59.3626L922.498 66.317L922.463 45.1848L959.815 39.2259L966.041 38.2332L966.057 48.0363L966.056 48.0333ZM926.091 111.049L926.071 71.0309L966.083 64.6473L966.108 104.71L926.091 111.048V111.049ZM1015.88 51.4181L972.301 58.3711L972.283 47.0404L972.267 37.2373L978.491 36.2448L1015.84 30.2862L1015.88 51.4184L1015.88 51.4181Z" fill="#E31235"/>
</g>
<defs>
<linearGradient id="paint0_linear_302_736" x1="364.867" y1="7.33404" x2="130.271" y2="169.969" gradientUnits="userSpaceOnUse">
<stop stop-color="#4AC4D7" stop-opacity="0"/>
<stop offset="1" stop-color="#4AC4D7"/>
</linearGradient>
<clipPath id="clip0_302_736">
<rect width="94.5778" height="96.109" fill="white" transform="matrix(0.987688 -0.156434 0 1 922.463 15.5145)"/>
</clipPath>
</defs>
</svg>
