<svg width="104" height="100" viewBox="0 0 104 100" fill="none" xmlns="http://www.w3.org/2000/svg">
<path d="M103.256 -0.000100015L0 16.354V100L103.256 83.6459V-0.000100015Z" fill="#E31235"/>
<path d="M44.931 36.3684C44.9888 32.2228 43.4664 28.5714 40.6624 26.0887C37.5886 23.3757 33.32 22.2762 28.6275 22.9999C19.3001 24.4382 11.8999 32.6149 11.7843 41.6086C11.7265 45.7542 13.2489 49.4056 16.0529 51.898C19.117 54.6125 23.3953 55.7105 28.0879 54.9868C37.4152 53.5485 44.8153 45.3718 44.931 36.3684ZM28.348 44.5362C27.9915 44.5926 27.6446 44.6183 27.2977 44.605C26.1318 44.5847 25.0912 44.2032 24.2818 43.4924C23.2796 42.6073 22.7401 41.2879 22.7593 39.7922C22.7979 36.6643 25.2068 33.9414 28.3577 33.4521C29.9379 33.2115 31.3833 33.5777 32.4239 34.4958C33.426 35.3809 33.9656 36.6906 33.9463 38.196C33.9078 41.324 31.4989 44.0469 28.348 44.5362Z" fill="white"/>
<path d="M73.761 17.1781L16.3999 84.71L29.0804 82.6724L86.3933 15.2163L73.761 17.1781Z" fill="white"/>
<path d="M86.6919 48.046C84.3216 45.9435 81.2189 44.8155 77.7693 44.7472C76.7575 44.7318 75.7169 44.7991 74.657 44.9572C65.3296 46.3955 57.9295 54.5722 57.8138 63.5658C57.756 67.7114 59.2785 71.3629 62.0824 73.8455C65.1562 76.5586 69.4248 77.658 74.1174 76.9343C83.4447 75.496 90.8449 67.3193 90.9605 58.3257C91.0183 54.1801 89.5055 50.5271 86.6919 48.046ZM74.3775 66.4934C74.021 66.5499 73.6741 66.5756 73.3272 66.5623C72.1613 66.5421 71.1207 66.1605 70.3113 65.4497C69.3092 64.5646 68.7696 63.2452 68.7888 61.7495C68.8274 58.6216 71.2363 55.8987 74.3872 55.4094C75.9674 55.1688 77.4128 55.535 78.4438 56.4546C79.4459 57.3398 79.9855 58.6591 79.9662 60.1548C79.9373 63.2812 77.5284 66.0042 74.3775 66.4934Z" fill="white"/>
</svg>
