<svg width="111" height="100" viewBox="0 0 111 100" fill="none" xmlns="http://www.w3.org/2000/svg">
<path d="M110.6 27.1189L72.3172 26.3529V6.06513L0 17.519V89.0127L17.0269 86.3159C16.9278 91.1353 20.0183 95.0885 24.8024 95.6746C30.4582 96.3734 36.322 92.0951 37.8969 86.1093C38.1842 85.0208 38.3031 83.959 38.2833 82.9392L68.8504 78.0979L69.5933 77.9802L72.337 77.5457C72.2578 81.4894 74.3279 85.0025 78.0027 86.366C83.1831 88.2833 89.562 85.2372 92.2661 79.564C93.1179 77.7743 93.5042 75.9381 93.4645 74.1994L110.61 71.4838V27.1173L110.6 27.1189Z" fill="#E31235"/>
<path d="M102.092 55.1627L72.3171 59.8785V34.9575L102.092 35.5568V55.1627Z" fill="white"/>
<path d="M29.0517 67.0119C34.1033 66.2118 40.2445 50.457 42.9189 44.4475C43.4339 43.2728 43.7311 42.4335 44.0183 42.3579C44.9692 43.2302 36.1338 60.5249 41.0369 64.0606C41.5024 64.4682 42.1363 64.6888 42.7703 64.7488C47.495 64.9632 50.8132 58.3804 53.6461 54.7326L52.2198 53.5244C51.2689 54.7882 50.1694 57.6901 49.3869 56.3699C47.8219 54.0605 57.3803 25.7001 57.3803 25.7001L48.3766 27.1262C47.4356 28.8698 37.4017 53.4746 35.5099 54.0951C35.1929 54.2957 35.0443 54.0084 35.0443 53.6774C36.1438 44.8888 38.4022 37.0096 41.0864 28.2808L32.0926 29.7053C26.8825 45.2224 26.8429 45.4092 22.1082 55.8968C19.7409 60.7445 16.2741 64.1618 18.79 56.7433L10.5985 58.0407C9.02359 62.5924 8.35003 69.8093 13.4313 69.4859C13.5304 69.4802 13.6393 69.463 13.7285 69.4489C19.3348 68.5609 25.4264 53.1249 26.0504 52.3942C25.5849 57.4221 23.3464 63.6835 26.209 66.2587C27.0707 67.0248 28.2593 67.1374 29.0517 67.0119Z" fill="white"/>
<path d="M58.8166 59.8507C58.8166 61.2045 57.7369 62.4687 56.3997 62.6805C55.0724 62.8907 53.9928 61.9686 53.9928 60.6147C53.9928 59.2608 55.0824 57.9952 56.3997 57.7865C57.7369 57.5847 58.8166 58.5069 58.8166 59.8507Z" fill="white"/>
</svg>
