<svg width="51" height="48" viewBox="0 0 51 48" fill="none" xmlns="http://www.w3.org/2000/svg">
<g clip-path="url(#clip0_101_639)">
<path d="M21.4783 6.01171L25.6242 4.39478L30.8067 6.46776" stroke="#E31235" stroke-width="2" stroke-miterlimit="10"/>
<path d="M21.4782 16.8328L17.3323 18.9058V43.7816" stroke="#E31235" stroke-width="2" stroke-miterlimit="10"/>
<path d="M19.4051 12.9458L12.1497 16.8326V41.7085" stroke="#E31235" stroke-width="2" stroke-miterlimit="10"/>
<path d="M32.8796 13.9822L38.0621 16.8325V41.7084" stroke="#E31235" stroke-width="2" stroke-miterlimit="10"/>
<path d="M28.7336 16.8328L32.8796 18.9058V44.8181" stroke="#E31235" stroke-width="2" stroke-miterlimit="10"/>
<path d="M47.3904 22.0151V38.599L25.624 46.891L3.85767 38.599V22.0151" stroke="#E31235" stroke-width="2" stroke-miterlimit="10"/>
<path d="M30.7756 14.2415C30.7341 16.2419 28.3813 17.8692 25.5309 17.8692C22.6805 17.8692 20.4003 16.2419 20.4417 14.2415C20.4832 12.2411 22.836 10.6138 25.6864 10.6138C28.5367 10.6138 30.817 12.2411 30.7756 14.2415V14.2415Z" stroke="#E31235" stroke-width="2" stroke-miterlimit="10"/>
<path d="M23.5511 10.6138C23.1469 8.70663 18.4412 3.10957 16.2956 1.28534C14.3367 -0.383417 7.08122 6.87204 9.0402 8.54079C11.9009 10.9765 18.7936 13.433 21.4781 13.7233" stroke="#E31235" stroke-width="2" stroke-linejoin="round"/>
<path d="M28.4019 11.6502C28.8061 9.743 33.5118 4.14594 35.6573 2.32171C37.6163 0.65296 44.8717 7.90841 42.9128 9.57717C40.052 12.0129 33.1594 14.4694 30.4748 14.7596" stroke="#E31235" stroke-width="2" stroke-linejoin="round"/>
<path d="M12.1496 25.0313L1.78467 20.9786V13.7232L11.1131 10.0747" stroke="#E31235" stroke-width="2" stroke-miterlimit="10"/>
<path d="M32.8797 27.467L25.6242 30.307L17.3323 27.0627" stroke="#E31235" stroke-width="2" stroke-miterlimit="10"/>
<path d="M41.5135 10.6138L49.4634 13.7232V20.9787L38.062 25.4356" stroke="#E31235" stroke-width="2" stroke-miterlimit="10"/>
</g>
<defs>
<clipPath id="clip0_101_639">
<rect width="49.7517" height="48" fill="white" transform="translate(0.748291)"/>
</clipPath>
</defs>
</svg>
