<svg width="33" height="32" viewBox="0 0 33 32" fill="none" xmlns="http://www.w3.org/2000/svg">
<g clip-path="url(#clip0_221_1449)">
<path d="M13.7852 4.5699L16.4196 3.54248L19.7126 4.85969" stroke="#E31235" stroke-width="1.27083" stroke-miterlimit="10"/>
<path d="M13.7851 11.4458L11.1506 12.763V28.5695" stroke="#E31235" stroke-width="1.27083" stroke-miterlimit="10"/>
<path d="M12.4679 8.97595L7.85767 11.4457V27.2522" stroke="#E31235" stroke-width="1.27083" stroke-miterlimit="10"/>
<path d="M21.0298 9.63464L24.3228 11.4458V27.2523" stroke="#E31235" stroke-width="1.27083" stroke-miterlimit="10"/>
<path d="M18.3953 11.4458L21.0297 12.763V29.2281" stroke="#E31235" stroke-width="1.27083" stroke-miterlimit="10"/>
<path d="M30.2503 14.7388V25.2765L16.4196 30.5453L2.58887 25.2765V14.7388" stroke="#E31235" stroke-width="1.27083" stroke-miterlimit="10"/>
<path d="M19.6929 9.79914C19.6665 11.0702 18.1715 12.1043 16.3603 12.1043C14.5492 12.1043 13.1002 11.0702 13.1266 9.79914C13.1529 8.52803 14.648 7.49402 16.4591 7.49402C18.2703 7.49402 19.7192 8.52803 19.6929 9.79914V9.79914Z" stroke="#E31235" stroke-width="1.27083" stroke-miterlimit="10"/>
<path d="M15.1021 7.49401C14.8453 6.28218 11.8552 2.72571 10.4919 1.56656C9.24711 0.50621 4.63688 5.11645 5.88164 6.1768C7.69939 7.72452 12.0791 9.28542 13.7849 9.46982" stroke="#E31235" stroke-width="1.27083" stroke-linejoin="round"/>
<path d="M18.1846 8.1527C18.4414 6.94087 21.4315 3.3844 22.7948 2.22526C24.0396 1.1649 28.6498 5.77514 27.405 6.83549C25.5873 8.38321 21.2076 9.94411 19.5018 10.1285" stroke="#E31235" stroke-width="1.27083" stroke-linejoin="round"/>
<path d="M7.85778 16.6553L1.27173 14.0801V9.4699L7.19917 7.15161" stroke="#E31235" stroke-width="1.27083" stroke-miterlimit="10"/>
<path d="M21.0297 18.203L16.4195 20.0076L11.1506 17.9462" stroke="#E31235" stroke-width="1.27083" stroke-miterlimit="10"/>
<path d="M26.5162 7.49402L31.5677 9.46983V14.0801L24.323 16.9121" stroke="#E31235" stroke-width="1.27083" stroke-miterlimit="10"/>
</g>
<defs>
<clipPath id="clip0_221_1449">
<rect width="31.613" height="30.5" fill="white" transform="translate(0.613037 0.75)"/>
</clipPath>
</defs>
</svg>
