<svg width="91" height="100" viewBox="0 0 91 100" fill="none" xmlns="http://www.w3.org/2000/svg">
<path d="M36.6669 96.1041L53.1301 94.4159L53.4572 83.7391C56.9461 82.5123 60.2338 80.8006 63.2362 78.6719L70.9269 85.1834L82.5929 72.2776L75.3467 65.2893C77.1666 62.0874 78.5505 58.6447 79.4143 55.0458L89.9984 53.6382L90.0403 37.0798L79.4646 37.8625C78.6092 34.4443 77.2422 31.2822 75.439 28.4527L82.7271 19.9621L71.0778 9.46466L63.3789 17.5515C60.3932 16.0438 57.1139 15.0055 53.6334 14.4943L53.3566 3.85561L36.8766 5.58773L36.5495 16.2561C33.069 17.4821 29.7899 19.1929 26.7958 21.3207L19.0883 14.7772L7.43066 27.7159L14.6852 34.7117C12.8737 37.9043 11.4983 41.3377 10.6261 44.9206L0 46.3158V62.8866L10.5841 62.103C11.4312 65.5137 12.7982 68.6673 14.593 71.4892L7.29655 80.0145L18.9122 90.5239L26.6364 82.4091C29.6221 83.9168 32.9013 84.9636 36.3818 85.4748L36.6669 96.1041ZM30.0917 51.5269C30.1085 43.2356 36.8095 35.827 45.0537 34.9774C53.2979 34.1277 59.9654 40.1649 59.9486 48.4563C59.9318 56.7477 53.2308 64.1562 44.9866 65.0059C36.7424 65.8555 30.0749 59.8183 30.0917 51.5269Z" fill="#E31235"/>
</svg>
