<svg width="43" height="48" viewBox="0 0 43 48" fill="none" xmlns="http://www.w3.org/2000/svg">
<g clip-path="url(#clip0_82_783)">
<path d="M17.3575 3.9615L21.0701 6.10365V3.26077L18.5899 1.82858C18.1812 1.59193 17.7048 2.08367 17.419 2.57541C17.1362 3.06715 16.9487 3.72485 17.3575 3.9615Z" fill="#E31235" stroke="white" stroke-width="0.72" stroke-miterlimit="10"/>
<path d="M26.0643 2.57541C25.7784 2.08367 25.3021 1.59193 24.8933 1.82858L22.4131 3.26077V6.10365L26.1257 3.9615C26.5345 3.72485 26.347 3.06715 26.0643 2.57541Z" fill="#E31235" stroke="white" stroke-width="0.72" stroke-miterlimit="10"/>
<path d="M17.3575 9.00183L21.0701 11.144V8.3011L18.5899 6.8689C18.5008 6.81666 18.3133 6.75212 18.0613 6.89964C17.6034 7.16395 17.1208 7.99991 17.1208 8.52853C17.1208 8.8205 17.2684 8.95265 17.3575 9.00183Z" fill="#E31235" stroke="white" stroke-width="0.72" stroke-miterlimit="10"/>
<path d="M26.3624 8.52853C26.3624 7.99991 25.8799 7.16395 25.4219 6.89964C25.1668 6.75212 24.9794 6.81666 24.8933 6.8689L22.4131 8.3011V11.144L26.1257 9.00183C26.2149 8.94958 26.3624 8.8205 26.3624 8.52853Z" fill="#E31235" stroke="white" stroke-width="0.72" stroke-miterlimit="10"/>
<path d="M26.1257 44.0384L22.4131 41.8962V44.7391L24.8933 46.1713C24.9671 46.2143 25.0408 46.2328 25.1177 46.2328C25.468 46.2328 25.8307 45.8302 26.0643 45.4245C26.347 44.9327 26.5345 44.275 26.1257 44.0384Z" fill="#E31235" stroke="white" stroke-width="0.72" stroke-miterlimit="10"/>
<path d="M17.419 45.4245C17.6525 45.8302 18.0152 46.2328 18.3656 46.2328C18.4424 46.2328 18.5162 46.2143 18.5899 46.1713L21.0701 44.7391V41.8962L17.3575 44.0384C16.9487 44.275 17.1362 44.9327 17.419 45.4245Z" fill="#E31235" stroke="white" stroke-width="0.72" stroke-miterlimit="10"/>
<path d="M26.1257 38.9949L22.4131 36.8528V39.6957L24.8933 41.1279C24.9425 41.1555 25.0162 41.1862 25.1177 41.1862C25.2037 41.1862 25.3051 41.1647 25.4219 41.0971C25.8799 40.8328 26.3624 39.9968 26.3624 39.4682C26.3624 39.1763 26.2149 39.0441 26.1257 38.9949Z" fill="#E31235" stroke="white" stroke-width="0.72" stroke-miterlimit="10"/>
<path d="M17.1208 39.4714C17.1208 40 17.6034 40.836 18.0613 41.1003C18.1781 41.1679 18.2795 41.1894 18.3656 41.1894C18.467 41.1894 18.5438 41.1587 18.5899 41.131L21.0701 39.6988V36.856L17.3575 38.9981C17.2684 39.0503 17.1208 39.1794 17.1208 39.4714Z" fill="#E31235" stroke="white" stroke-width="0.72" stroke-miterlimit="10"/>
<path d="M18.6207 12.5856C18.2765 12.7853 17.9138 13.4123 17.9138 13.8118C17.9138 14.0546 18.0398 14.1622 18.1167 14.2052L20.8827 15.8003V13.609L19.0663 12.561C18.9895 12.5179 18.8328 12.4626 18.6238 12.5825L18.6207 12.5856Z" fill="#E31235" stroke="white" stroke-width="0.72" stroke-miterlimit="10"/>
<path d="M25.5727 13.8117C25.5727 13.4153 25.2101 12.7852 24.8659 12.5855C24.6569 12.4656 24.4971 12.5179 24.4233 12.564L22.6069 13.612V15.8033L25.373 14.2082C25.4498 14.1652 25.5758 14.0545 25.5758 13.8148L25.5727 13.8117Z" fill="#E31235" stroke="white" stroke-width="0.72" stroke-miterlimit="10"/>
<path d="M24.6136 35.4853C24.6843 35.4853 24.7704 35.4669 24.8626 35.4115C25.2068 35.2118 25.5695 34.5848 25.5695 34.1853C25.5695 33.9425 25.4435 33.8349 25.3666 33.7919L22.6006 32.1968V34.3881L24.417 35.4361C24.4569 35.4607 24.5245 35.4884 24.6106 35.4884L24.6136 35.4853Z" fill="#E31235" stroke="white" stroke-width="0.72" stroke-miterlimit="10"/>
<path d="M17.9108 34.1883C17.9108 34.5848 18.2734 35.2148 18.6177 35.4146C18.7129 35.4699 18.7959 35.4884 18.8666 35.4884C18.9527 35.4884 19.0172 35.4607 19.0602 35.4361L20.8766 34.3881V32.1968L18.1106 33.7919C18.0337 33.8349 17.9077 33.9455 17.9077 34.1853L17.9108 34.1883Z" fill="#E31235" stroke="white" stroke-width="0.72" stroke-miterlimit="10"/>
<path d="M21.7431 48C22.7543 48 23.2829 47.7111 23.2829 47.5544V0.44564C23.2829 0.288897 22.7543 0 21.7431 0C20.732 0 20.2034 0.288897 20.2034 0.44564V47.5544C20.2034 47.7111 20.732 48 21.7431 48Z" fill="#E31235"/>
<path d="M2.19637 17.7763L5.90901 15.6342L3.44723 14.2112L0.963946 15.6434C0.555187 15.88 0.742663 16.5377 1.02541 17.0295C1.30816 17.5212 1.78761 18.0129 2.19637 17.7763Z" fill="#E31235" stroke="white" stroke-width="0.72" stroke-miterlimit="10"/>
<path d="M5.34961 9.5459C4.78104 9.5459 4.11719 9.71493 4.11719 10.1852V13.0495L6.58204 14.4725V10.1882C6.58204 9.71801 5.91819 9.54897 5.34961 9.54897V9.5459Z" fill="#E31235" stroke="white" stroke-width="0.72" stroke-miterlimit="10"/>
<path d="M6.56366 20.2966L10.2763 18.1544L7.81452 16.7314L5.33431 18.1636C5.24518 18.2159 5.09766 18.345 5.09766 18.6369C5.09766 19.1656 5.58018 20.0015 6.03811 20.2658C6.2932 20.4134 6.4776 20.3488 6.56673 20.2966H6.56366Z" fill="#E31235" stroke="white" stroke-width="0.72" stroke-miterlimit="10"/>
<path d="M10.6544 12.2627C10.1965 11.9984 9.23145 11.9984 8.77659 12.2627C8.5215 12.4102 8.48462 12.6038 8.48462 12.7053V15.5696L10.9495 16.9926V12.7083C10.9495 12.6069 10.9126 12.4133 10.6575 12.2658L10.6544 12.2627Z" fill="#E31235" stroke="white" stroke-width="0.72" stroke-miterlimit="10"/>
<path d="M41.2866 30.2204L37.574 32.3626L40.0358 33.7855L42.516 32.3533C42.5897 32.3103 42.642 32.255 42.6789 32.1905C42.854 31.8893 42.685 31.3729 42.4514 30.9673C42.1687 30.4755 41.6892 29.9838 41.2805 30.2204H41.2866Z" fill="#E31235" stroke="white" stroke-width="0.72" stroke-miterlimit="10"/>
<path d="M38.1335 38.454C38.6007 38.454 39.1324 38.3403 39.3076 38.0391C39.3445 37.9745 39.366 37.9008 39.366 37.8147V34.9503L36.9011 33.5273V37.8116C36.9011 38.2819 37.565 38.4509 38.1335 38.4509V38.454Z" fill="#E31235" stroke="white" stroke-width="0.72" stroke-miterlimit="10"/>
<path d="M36.9226 27.7003L33.21 29.8425L35.6717 31.2655L38.152 29.8333C38.2011 29.8056 38.2657 29.7564 38.3148 29.6673C38.3579 29.5935 38.3886 29.4921 38.3886 29.3569C38.3886 28.8283 37.9061 27.9923 37.4481 27.728C37.1931 27.5805 37.0087 27.645 36.9195 27.6973L36.9226 27.7003Z" fill="#E31235" stroke="white" stroke-width="0.72" stroke-miterlimit="10"/>
<path d="M32.8287 35.7373C33.2867 36.0016 34.2517 36.0016 34.7066 35.7373C34.8234 35.6696 34.894 35.5928 34.9371 35.519C34.9862 35.433 34.9985 35.35 34.9985 35.2947V32.4303L32.5337 31.0073V35.2916C32.5337 35.393 32.5706 35.5867 32.8257 35.7342L32.8287 35.7373Z" fill="#E31235" stroke="white" stroke-width="0.72" stroke-miterlimit="10"/>
<path d="M10.2979 20.9973C10.2979 21.3938 10.6605 22.0238 11.0047 22.2236C11.2137 22.3435 11.3735 22.2881 11.4473 22.2451L14.2133 20.65L12.3171 19.5559L10.5007 20.6039C10.4239 20.647 10.2979 20.7576 10.2979 21.0004V20.9973Z" fill="#E31235" stroke="white" stroke-width="0.72" stroke-miterlimit="10"/>
<path d="M14.8341 15.5881C14.4899 15.3883 13.7646 15.3883 13.4204 15.5881C13.2114 15.7079 13.1807 15.8739 13.1807 15.9599V18.056L15.0769 19.1501V15.9569C15.0769 15.8708 15.0462 15.7048 14.8372 15.585L14.8341 15.5881Z" fill="#E31235" stroke="white" stroke-width="0.72" stroke-miterlimit="10"/>
<path d="M33.127 27.2548C33.1638 27.1933 33.1884 27.1103 33.1884 26.9997C33.1884 26.6032 32.8258 25.9732 32.4816 25.7734C32.2726 25.6535 32.1127 25.7089 32.039 25.7519L29.2729 27.347L31.1692 28.4411L32.9856 27.3931C33.0255 27.3685 33.0839 27.3255 33.127 27.2517V27.2548Z" fill="#E31235" stroke="white" stroke-width="0.72" stroke-miterlimit="10"/>
<path d="M28.6489 32.4089C28.9931 32.6086 29.7184 32.6086 30.0627 32.4089C30.1579 32.3535 30.2163 32.289 30.2532 32.2275C30.2962 32.1538 30.3055 32.0831 30.3055 32.0339V29.9379L28.4092 28.8438V32.037C28.4092 32.123 28.4399 32.289 28.6489 32.4089Z" fill="#E31235" stroke="white" stroke-width="0.72" stroke-miterlimit="10"/>
<path d="M42.5253 35.9984C43.0324 35.1224 43.0447 34.5201 42.9095 34.4402L2.11345 10.8889C1.97822 10.812 1.46497 11.1255 0.957861 12.0014C0.450753 12.8773 0.43846 13.4797 0.573688 13.5596L41.3697 37.1109C41.5049 37.1878 42.0182 36.8743 42.5253 35.9984Z" fill="#E31235"/>
<path d="M6.58214 37.8148V33.5305L4.12036 34.9535V37.8179C4.12036 38.2881 4.78421 38.4571 5.35279 38.4571C5.92136 38.4571 6.58521 38.2912 6.58521 37.8179L6.58214 37.8148Z" fill="#E31235" stroke="white" stroke-width="0.72" stroke-miterlimit="10"/>
<path d="M1.02859 30.9673C0.745836 31.459 0.55836 32.1167 0.967119 32.3533L3.44733 33.7855L5.90911 32.3626L2.19647 30.2204C1.78771 29.9838 1.31134 30.4755 1.02551 30.9673H1.02859Z" fill="#E31235" stroke="white" stroke-width="0.72" stroke-miterlimit="10"/>
<path d="M10.9464 35.2945V31.0103L8.48462 32.4332V35.2976C8.48462 35.399 8.5215 35.5957 8.77659 35.7402C9.23452 36.0045 10.1996 36.0045 10.6544 35.7402C10.9095 35.5927 10.9464 35.399 10.9464 35.2976V35.2945Z" fill="#E31235" stroke="white" stroke-width="0.72" stroke-miterlimit="10"/>
<path d="M6.03201 27.7309C5.57407 27.9952 5.09155 28.8312 5.09155 29.3598C5.09155 29.6549 5.24215 29.784 5.3282 29.8331L7.80842 31.2653L10.2702 29.8423L6.55755 27.7002C6.46843 27.648 6.28095 27.5834 6.02893 27.7309H6.03201Z" fill="#E31235" stroke="white" stroke-width="0.72" stroke-miterlimit="10"/>
<path d="M36.9042 10.1851V14.4693L39.366 13.0464V10.182C39.366 10.099 39.3445 10.0222 39.3076 9.95763C39.1324 9.65644 38.6007 9.54272 38.1335 9.54272C37.565 9.54272 36.9011 9.70869 36.9011 10.182L36.9042 10.1851Z" fill="#E31235" stroke="white" stroke-width="0.72" stroke-miterlimit="10"/>
<path d="M42.4578 17.0295C42.6913 16.6238 42.8573 16.1075 42.6852 15.8063C42.6483 15.7417 42.593 15.6864 42.5223 15.6434L40.0421 14.2112L37.5803 15.6342L41.293 17.7763C41.7017 18.0129 42.1781 17.5212 42.4639 17.0295H42.4578Z" fill="#E31235" stroke="white" stroke-width="0.72" stroke-miterlimit="10"/>
<path d="M32.5369 12.7052V16.9894L34.9986 15.5665V12.7021C34.9986 12.6468 34.9863 12.5638 34.9372 12.4777C34.8941 12.404 34.8235 12.3271 34.7067 12.2595C34.2487 11.9952 33.2837 11.9952 32.8288 12.2595C32.5737 12.407 32.5369 12.6007 32.5369 12.7021V12.7052Z" fill="#E31235" stroke="white" stroke-width="0.72" stroke-miterlimit="10"/>
<path d="M37.4511 20.2657C37.909 20.0014 38.3915 19.1655 38.3915 18.6368C38.3915 18.5016 38.3608 18.4002 38.3178 18.3264C38.2686 18.2404 38.201 18.1881 38.1549 18.1605L35.6747 16.7283L33.2129 18.1512L36.9255 20.2934C37.0147 20.3456 37.2021 20.4102 37.4541 20.2627L37.4511 20.2657Z" fill="#E31235" stroke="white" stroke-width="0.72" stroke-miterlimit="10"/>
<path d="M13.4174 32.4086C13.7616 32.6084 14.4869 32.6084 14.8311 32.4086C15.0401 32.2888 15.0708 32.1228 15.0708 32.0367V28.8435L13.1746 29.9376V32.0337C13.1746 32.1197 13.2053 32.2857 13.4143 32.4056L13.4174 32.4086Z" fill="#E31235" stroke="white" stroke-width="0.72" stroke-miterlimit="10"/>
<path d="M11.0047 25.7762C10.6605 25.976 10.2979 26.6029 10.2979 27.0025C10.2979 27.2453 10.4239 27.3528 10.5007 27.3989L12.3171 28.447L14.2133 27.3528L11.4473 25.7577C11.3705 25.7147 11.2137 25.6594 11.0047 25.7793V25.7762Z" fill="#E31235" stroke="white" stroke-width="0.72" stroke-miterlimit="10"/>
<path d="M30.2534 15.7694C30.2166 15.7079 30.1582 15.6434 30.0629 15.5881C29.7187 15.3883 28.9934 15.3883 28.6491 15.5881C28.4402 15.7079 28.4094 15.8739 28.4094 15.9599V19.1532L30.3057 18.0591V15.963C30.3057 15.9138 30.2965 15.8431 30.2534 15.7694Z" fill="#E31235" stroke="white" stroke-width="0.72" stroke-miterlimit="10"/>
<path d="M32.4784 22.2235C32.8226 22.0237 33.1853 21.3968 33.1853 20.9972C33.1853 20.8866 33.1607 20.8036 33.1238 20.7421C33.0808 20.6684 33.0254 20.6253 32.9824 20.6008L31.166 19.5527L29.2698 20.6469L32.0358 22.2419C32.1126 22.285 32.2694 22.3403 32.4784 22.2204V22.2235Z" fill="#E31235" stroke="white" stroke-width="0.72" stroke-miterlimit="10"/>
<path d="M42.5254 11.9983C42.0182 11.1223 41.505 10.8089 41.3698 10.8857L0.573751 34.4431C0.438522 34.52 0.453889 35.1254 0.957923 36.0013C1.46503 36.8772 1.97828 37.1907 2.11351 37.1139L42.9126 13.5565C43.0478 13.4796 43.0325 12.8742 42.5284 11.9983H42.5254Z" fill="#E31235"/>
</g>
<defs>
<clipPath id="clip0_82_783">
<rect width="42.4833" height="48" fill="white" transform="translate(0.5)"/>
</clipPath>
</defs>
</svg>
