<svg width="32" height="36" viewBox="0 0 32 36" fill="none" xmlns="http://www.w3.org/2000/svg">
<g clip-path="url(#clip0_221_1530)">
<path d="M14.8871 2.89836L12.8998 1.75108C12.4952 1.51676 11.6464 2.98458 12.0509 3.2189L14.8849 4.85472V2.89836H14.8871Z" fill="#E31235"/>
<path d="M18.3682 1.75131L16.3809 2.8986V4.85716L19.2148 3.22134C19.6194 2.98702 18.7727 1.5192 18.366 1.75352L18.3682 1.75131Z" fill="#E31235"/>
<path d="M14.6199 7.04977L11.923 5.49353C11.3726 5.17521 10.2209 7.16914 10.7713 7.48746L14.6177 9.70909V7.05198L14.6199 7.04977Z" fill="#E31235"/>
<path d="M19.3458 5.49386L16.6489 7.0501V9.70721L20.4953 7.48558C21.0458 7.16726 19.894 5.17553 19.3436 5.49165L19.3458 5.49386Z" fill="#E31235"/>
<path d="M16.9796 1.05706V34.9407C16.9796 35.6835 14.2871 35.6835 14.2871 34.9407V1.05706C14.2871 0.314312 16.9796 0.314312 16.9796 1.05706Z" fill="#E31235"/>
<path d="M16.3833 33.0992L18.3706 34.2465C18.7751 34.4808 19.624 33.013 19.2195 32.7786L16.3855 31.1428V33.1014L16.3833 33.0992Z" fill="#E31235"/>
<path d="M12.8992 34.2465L14.8865 33.0992V31.1406L12.0526 32.7764C11.648 33.0108 12.4947 34.4786 12.9014 34.2443L12.8992 34.2465Z" fill="#E31235"/>
<path d="M16.6489 28.9498L19.3458 30.5061C19.8963 30.8244 21.048 28.8305 20.4975 28.5122L16.6511 26.2905V28.9476L16.6489 28.9498Z" fill="#E31235"/>
<path d="M11.9222 30.5061L14.6191 28.9498V26.2927L10.7727 28.5144C10.2223 28.8327 11.374 30.8244 11.9245 30.5083L11.9222 30.5061Z" fill="#E31235"/>
<path d="M2.18293 11.0974L0.195626 12.2447C-0.208909 12.479 0.637741 13.9468 1.04449 13.7125L3.87844 12.0767L2.18293 11.0974Z" fill="#E31235"/>
<path d="M2.93188 7.50749V9.80206L4.6274 10.7813V7.50749C4.6274 7.03885 2.93188 7.03885 2.93188 7.50749Z" fill="#E31235"/>
<path d="M5.64445 13.4031L2.94755 14.9593C2.39712 15.2776 3.54883 17.2694 4.09926 16.9533L7.94566 14.7316L5.64445 13.4031Z" fill="#E31235"/>
<path d="M6.65918 8.5332V11.6457L8.96039 12.9742V8.5332C8.96039 7.89876 6.65918 7.89876 6.65918 8.5332Z" fill="#E31235"/>
<path d="M1.63493 8.36292L30.9803 25.3048C31.6236 25.6761 30.2773 28.0083 29.6341 27.6369L0.28869 10.6951C-0.354588 10.3237 0.991652 7.99155 1.63493 8.36292Z" fill="#E31235"/>
<path d="M29.0847 24.9023L31.072 23.755C31.4765 23.5207 30.6299 22.0529 30.2231 22.2872L27.3892 23.923L29.0847 24.9023Z" fill="#E31235"/>
<path d="M28.3386 28.4924V26.1978L26.6431 25.2185V28.4924C26.6431 28.961 28.3386 28.961 28.3386 28.4924Z" fill="#E31235"/>
<path d="M25.6254 22.5948L28.3223 21.0386C28.8728 20.7202 27.7211 18.7285 27.1706 19.0446L23.3242 21.2663L25.6254 22.5948Z" fill="#E31235"/>
<path d="M24.6088 27.4667V24.3542L22.3076 23.0256V27.4667C22.3076 28.1011 24.6088 28.1011 24.6088 27.4667Z" fill="#E31235"/>
<path d="M2.93188 26.1978V28.4924C2.93188 28.961 4.6274 28.961 4.6274 28.4924V25.2185L2.93188 26.1978Z" fill="#E31235"/>
<path d="M0.195442 23.755L2.18275 24.9023L3.87826 23.923L1.0443 22.2872C0.639768 22.0529 -0.209093 23.5207 0.195442 23.755Z" fill="#E31235"/>
<path d="M6.65918 24.3542V27.4667C6.65918 28.1011 8.96039 28.1011 8.96039 27.4667V23.0256L6.65918 24.3542Z" fill="#E31235"/>
<path d="M2.94755 21.0382L5.64445 22.5945L7.94566 21.2659L4.09926 19.0443C3.54883 18.726 2.39712 20.7199 2.94755 21.0382Z" fill="#E31235"/>
<path d="M0.28869 25.3048L29.6341 8.36296C30.2773 7.99158 31.6236 10.3215 30.9803 10.6951L1.63493 27.6369C0.991652 28.0083 -0.354588 25.6784 0.28869 25.3048Z" fill="#E31235"/>
<path d="M28.3386 9.80206V7.50749C28.3386 7.03885 26.6431 7.03885 26.6431 7.50749V10.7813L28.3386 9.80206Z" fill="#E31235"/>
<path d="M31.072 12.2447L29.0847 11.0974L27.3892 12.0767L30.2231 13.7125C30.6277 13.9468 31.4765 12.479 31.072 12.2447Z" fill="#E31235"/>
<path d="M24.6088 11.6457V8.5332C24.6088 7.89876 22.3076 7.89876 22.3076 8.5332V12.9742L24.6088 11.6457Z" fill="#E31235"/>
<path d="M28.3199 14.9615L25.623 13.4053L23.3218 14.7338L27.1682 16.9555C27.7186 17.2738 28.8703 15.2798 28.3199 14.9615Z" fill="#E31235"/>
<path d="M19.7193 20.3795L15.6364 22.6917L11.5513 20.3817V15.6179L15.632 13.3079L19.7171 15.6157L19.7193 20.3795Z" fill="#FBFBFB" stroke="#E31235" stroke-width="2.21721" stroke-miterlimit="10"/>
</g>
<defs>
<clipPath id="clip0_221_1530">
<rect width="31.0895" height="35" fill="white" transform="translate(0.0895996 0.5)"/>
</clipPath>
</defs>
</svg>
