<svg width="43" height="49" viewBox="0 0 43 49" fill="none" xmlns="http://www.w3.org/2000/svg">
<g clip-path="url(#clip0_89_596)">
<path d="M20.2938 3.45631L17.5684 1.88289C17.0136 1.56154 15.8494 3.57455 16.4042 3.8959L20.2908 6.13932V3.45631H20.2938Z" fill="#E31235"/>
<path d="M25.0687 1.88291L22.3433 3.45633V6.14237L26.2298 3.89895C26.7846 3.5776 25.6235 1.56459 25.0657 1.88594L25.0687 1.88291Z" fill="#E31235"/>
<path d="M19.9271 9.1497L16.2285 7.01542C15.4736 6.57887 13.8941 9.31341 14.649 9.74996L19.924 12.7968V9.15273L19.9271 9.1497Z" fill="#E31235"/>
<path d="M26.4086 7.01544L22.71 9.14972V12.7938L27.985 9.74695C28.7399 9.31039 27.1604 6.57888 26.4055 7.01241L26.4086 7.01544Z" fill="#E31235"/>
<path d="M23.1647 0.930966V47.4C23.1647 48.4186 19.4722 48.4186 19.4722 47.4V0.930966C19.4722 -0.0876658 23.1647 -0.0876658 23.1647 0.930966Z" fill="#E31235"/>
<path d="M22.3462 44.8747L25.0716 46.4481C25.6264 46.7694 26.7906 44.7564 26.2358 44.4351L22.3492 42.1917V44.8777L22.3462 44.8747Z" fill="#E31235"/>
<path d="M17.5683 46.4481L20.2937 44.8746V42.1886L16.4072 44.432C15.8524 44.7534 17.0135 46.7664 17.5713 46.445L17.5683 46.4481Z" fill="#E31235"/>
<path d="M22.71 39.1842L26.4086 41.3185C27.1634 41.755 28.7429 39.0205 27.988 38.5839L22.713 35.5371V39.1811L22.71 39.1842Z" fill="#E31235"/>
<path d="M16.2284 41.3185L19.927 39.1842V35.5402L14.6519 38.587C13.897 39.0235 15.4765 41.755 16.2314 41.3215L16.2284 41.3185Z" fill="#E31235"/>
<path d="M2.87088 14.7007L0.145436 16.2741C-0.409355 16.5955 0.751764 18.6085 1.30959 18.2871L5.19615 16.0437L2.87088 14.7007Z" fill="#E31235"/>
<path d="M3.89868 9.77732V12.9242L6.22395 14.2672V9.77732C6.22395 9.13461 3.89868 9.13461 3.89868 9.77732Z" fill="#E31235"/>
<path d="M7.61859 17.8627L3.91998 19.9969C3.1651 20.4335 4.74459 23.165 5.49947 22.7315L10.7745 19.6847L7.61859 17.8627Z" fill="#E31235"/>
<path d="M9.01001 11.1839V15.4525L12.166 17.2745V11.1839C12.166 10.3139 9.01001 10.3139 9.01001 11.1839Z" fill="#E31235"/>
<path d="M2.11917 10.9505L42.3642 34.185C43.2464 34.6943 41.4002 37.8927 40.518 37.3834L0.272898 14.1489C-0.60931 13.6396 1.23696 10.4412 2.11917 10.9505Z" fill="#E31235"/>
<path d="M39.7659 33.6333L42.4914 32.0598C43.0462 31.7385 41.8851 29.7255 41.3272 30.0468L37.4407 32.2902L39.7659 33.6333Z" fill="#E31235"/>
<path d="M38.7413 38.5566V35.4098L36.416 34.0668V38.5566C36.416 39.1993 38.7413 39.1993 38.7413 38.5566Z" fill="#E31235"/>
<path d="M35.0214 30.4683L38.72 28.334C39.4749 27.8974 37.8954 25.1659 37.1405 25.5994L31.8655 28.6462L35.0214 30.4683Z" fill="#E31235"/>
<path d="M33.6269 37.15V32.8815L30.4709 31.0594V37.15C30.4709 38.0201 33.6269 38.0201 33.6269 37.15Z" fill="#E31235"/>
<path d="M3.89868 35.4098V38.5566C3.89868 39.1993 6.22395 39.1993 6.22395 38.5566V34.0668L3.89868 35.4098Z" fill="#E31235"/>
<path d="M0.145427 32.0598L2.87087 33.6333L5.19614 32.2902L1.30958 30.0468C0.754788 29.7255 -0.409363 31.7385 0.145427 32.0598Z" fill="#E31235"/>
<path d="M9.01001 32.8815V37.15C9.01001 38.0201 12.166 38.0201 12.166 37.15V31.0594L9.01001 32.8815Z" fill="#E31235"/>
<path d="M3.91998 28.334L7.61859 30.4682L10.7745 28.6462L5.49947 25.5994C4.74459 25.1629 3.1651 27.8974 3.91998 28.334Z" fill="#E31235"/>
<path d="M0.272898 34.1851L40.518 10.9506C41.4002 10.4412 43.2464 13.6366 42.3642 14.1489L2.11917 37.3834C1.23696 37.8928 -0.60931 34.6974 0.272898 34.1851Z" fill="#E31235"/>
<path d="M38.7413 12.9242V9.77732C38.7413 9.13461 36.416 9.13461 36.416 9.77732V14.2672L38.7413 12.9242Z" fill="#E31235"/>
<path d="M42.4914 16.2741L39.7659 14.7007L37.4407 16.0437L41.3272 18.2871C41.882 18.6085 43.0462 16.5955 42.4914 16.2741Z" fill="#E31235"/>
<path d="M33.6269 15.4525V11.1839C33.6269 10.3139 30.4709 10.3139 30.4709 11.1839V17.2745L33.6269 15.4525Z" fill="#E31235"/>
<path d="M38.7171 20L35.0185 17.8657L31.8625 19.6877L37.1376 22.7345C37.8925 23.1711 39.472 20.4366 38.7171 20Z" fill="#E31235"/>
<path d="M26.9209 27.4305L21.3215 30.6016L15.719 27.4336V20.9004L21.3154 17.7323L26.9179 20.8973L26.9209 27.4305Z" fill="#FBFBFB" stroke="#E31235" stroke-width="3.04074" stroke-miterlimit="10"/>
</g>
<defs>
<clipPath id="clip0_89_596">
<rect width="42.637" height="48" fill="white" transform="translate(0 0.166992)"/>
</clipPath>
</defs>
</svg>
